<svg width="588" height="209" viewBox="0 0 588 209" xmlns="http://www.w3.org/2000/svg"><title>logo-exclusion-zone</title><g fill="none" fill-rule="evenodd"><path d="M191.892 81.184h4.343v46.107h-4.343m9.859-46.107h19.483c7.746 0 14.788 2.699 14.788 11.263 0 4.81-3.287 9.268-7.981 10.324v.117c5.985.821 9.741 5.28 9.741 11.263 0 4.34-1.526 13.14-16.548 13.14H201.75V81.184zm4.46 20.296h15.14c7.042 0 10.445-3.52 10.445-7.86 0-5.748-3.52-8.681-10.445-8.681h-15.14v16.541zm0 22.174h15.14c6.572 0 12.206-1.995 12.206-9.503 0-5.983-4.343-8.916-12.206-8.916h-15.14v18.419zm35.914-42.47h6.455l15.961 40.475 15.962-40.475h6.455v46.107h-4.342V87.402h-.118l-15.727 39.889h-4.108L246.82 87.402h-.352v39.889h-4.342m64.081-46.107h21.713c8.802 0 14.788 2.816 14.788 11.498 0 4.575-2.23 7.625-6.22 9.62 5.633 1.642 8.45 5.983 8.45 11.732 0 9.385-7.981 13.374-16.314 13.374h-22.417V81.184zm10.21 18.654h10.329c3.638 0 6.22-1.642 6.22-5.514 0-4.34-3.403-5.28-7.042-5.28h-9.506v10.794zm0 19.592h10.916c3.99 0 7.511-1.29 7.511-6.1 0-4.693-2.934-6.57-7.277-6.57h-11.032v12.67h-.117zm32.98-38.246h9.155v46.107h-9.155m45.89 0h-8.685v-4.693h-.235c-2.347 3.871-6.337 5.514-10.21 5.514-9.742 0-12.206-5.514-12.206-13.727v-20.53h9.154v18.888c0 5.514 1.526 8.212 5.868 8.212 4.93 0 7.16-2.815 7.16-9.62v-17.48h9.154v33.436zm13.497-14.43c.235 5.865 3.052 8.446 8.216 8.446 3.638 0 6.69-2.229 7.276-4.34h8.099c-2.582 7.977-8.099 11.262-15.61 11.262-10.563 0-17.018-7.274-17.018-17.598 0-9.972 6.925-17.597 17.018-17.597 11.385 0 16.9 9.62 16.196 19.826h-24.177zm15.023-5.867c-.822-4.692-2.817-7.156-7.277-7.156-5.985 0-7.394 4.575-7.628 7.156h14.905zm13.85-13.14h8.684v4.576h.117c2.348-3.402 5.869-5.396 10.211-5.396 4.225 0 7.981 1.525 9.742 5.513 1.995-2.932 5.398-5.513 10.093-5.513 7.16 0 12.206 3.284 12.206 11.966v22.408h-9.155v-19.006c0-4.458-.352-8.095-5.633-8.095-5.164 0-6.103 4.341-6.103 8.447v18.654h-9.155v-18.771c0-3.872.235-8.33-5.516-8.33-1.76 0-6.22 1.173-6.22 7.743v19.358h-9.155V93.855h-.117zm65.958-5.161h-9.154v-7.509h9.154v7.509zm-9.271 5.162h9.154v33.436h-9.154V93.855zm24.529 15.838l-10.915-15.838h10.445l5.869 8.681 5.868-8.681h10.21l-11.032 15.603 12.324 17.833h-10.446l-7.042-10.56-7.042 10.56h-10.328M82.038 104.883c0 4.223.822 8.447 2.465 12.318 1.643 3.754 3.873 7.157 6.807 9.972.587.587 1.291 1.29 1.995 1.76V80.715c-.704.587-1.29 1.173-1.995 1.877a32.062 32.062 0 0 0-6.807 9.972c-1.526 3.872-2.465 7.978-2.465 12.319z" fill="#1D3649"/><path d="M135.909 82.475a32.076 32.076 0 0 0-9.976-6.805c-3.873-1.642-7.98-2.463-12.323-2.463-3.756 0-7.277.586-10.798 1.877l41.9 24.167c-.353-2.346-1.057-4.575-1.996-6.804-1.526-3.637-3.873-7.04-6.807-9.972zm-36.97-5.631l15.375 26.63h30.867v-1.055L99.878 76.374c-.235.235-.587.352-.94.47z" fill="#00B29F"/><path d="M145.18 106.056h-30.866l-15.375 26.631c.352.117.587.352.939.47l45.185-26.045c.118-.352.118-.704.118-1.056zm-19.247 27.804c3.756-1.642 7.16-3.871 9.976-6.804a32.062 32.062 0 0 0 6.807-9.972c.94-2.23 1.643-4.458 1.995-6.805l-41.899 24.168c3.404 1.29 7.042 1.877 10.798 1.877 4.342 0 8.45-.821 12.323-2.464z" fill="#5AAAFA"/><path d="M112.084 104.765l-15.375-26.63c-.117.116-.822.586-.822.586v52.09c.235.234.587.351.822.586l15.375-26.632z" fill="#1D3649"/><path d="M113.61 70.86c17.487 0 31.806 13.14 33.8 30.034 0 .47.118.938.118 1.408l15.61-26.984-16.197-28.156h-32.627l-15.61 26.983 1.409-.704c4.225-1.642 8.802-2.58 13.497-2.58z" fill="#00B29F"/><path fill="#90908F" d="M98.939 135.268h.117v1.29h-.117z"/><path d="M147.528 107.229c0 .47-.117 1.056-.117 1.525-1.995 16.894-16.314 30.034-33.801 30.034-4.812 0-9.39-.939-13.497-2.816-.47-.235-.94-.352-1.409-.587l15.61 26.984h32.51l16.196-28.157-15.492-26.983z" fill="#5AAAFA"/><path d="M94.714 76.609H63.377l-16.196 28.156 16.196 28.157H94.48c-.352-.235-.822-.587-1.174-.821-8.333-6.218-13.614-16.073-13.614-27.218s5.399-21 13.614-27.218l1.409-1.056z" fill="#1D3649"/><g stroke="#F0F"><path d="M120.065 207.536l.234-.586"/><path d="M120.886 206.011L237.547 2.933" stroke-dasharray="1.0001,1.0001"/><path d="M237.782 2.464l.352-.47m-118.89 0l.234.47"/><path d="M120.065 3.52L239.19 206.48" stroke-dasharray="0.9954,0.9954"/><path d="M239.543 206.95l.234.469"/></g><path d="M274.635 1.056h19.482c7.746 0 14.788 2.698 14.788 11.262 0 4.81-3.286 9.269-7.98 10.324v.118c5.985.821 9.74 5.28 9.74 11.262 0 4.341-1.525 13.14-16.548 13.14h-19.482V1.056zm4.342 20.296h15.14c7.042 0 10.446-3.52 10.446-7.86 0-5.749-3.521-8.682-10.446-8.682h-15.14v16.542zm0 22.173h15.14c6.573 0 12.206-1.994 12.206-9.503 0-5.983-4.342-8.916-12.206-8.916h-15.14v18.42zM.94 122.363v-19.592c0-7.743 2.7-14.782 11.384-14.782 4.812 0 9.272 3.285 10.328 7.977h.118c.821-5.983 5.281-9.737 11.267-9.737 4.342 0 13.145 1.525 13.145 16.542v19.475H.939v.117zm20.304-4.458v-15.134c0-7.04-3.52-10.441-7.863-10.441-5.751 0-8.685 3.52-8.685 10.44v15.135h16.548zm22.182 0v-15.134c0-6.57-1.995-12.201-9.506-12.201-5.986 0-8.92 4.34-8.92 12.201v15.134h18.426zm231.21 44.464h19.482c7.746 0 14.788 2.698 14.788 11.262 0 4.81-3.286 9.268-7.98 10.324v.118c5.985.82 9.74 5.279 9.74 11.262 0 4.341-1.525 13.14-16.548 13.14h-19.482v-46.106zm4.342 20.296h15.14c7.042 0 10.446-3.52 10.446-7.86 0-5.75-3.521-8.682-10.446-8.682h-15.14v16.542zm0 22.173h15.14c6.573 0 12.206-1.994 12.206-9.503 0-5.983-4.342-8.916-12.206-8.916h-15.14v18.419z" fill="#F0F" opacity=".25"/><path fill="#F0F" opacity=".1" d="M.939 1.056h586.826v46.106H.94zm0 161.313h586.826v46.106H.94z"/><path fill="#F0F" opacity=".1" d="M.939 1.056h46.124v207.536H.94z"/><path d="M541.64 122.363v-19.592c0-7.743 2.7-14.782 11.268-14.782 4.812 0 9.272 3.285 10.328 7.977h.117c.822-5.983 5.282-9.737 11.267-9.737 4.343 0 13.145 1.525 13.145 16.542v19.475h-46.124v.117zm20.188-4.458v-15.134c0-7.04-3.521-10.441-7.864-10.441-5.75 0-8.685 3.52-8.685 10.44v15.135h16.549zm22.182 0v-15.134c0-6.57-1.996-12.201-9.507-12.201-5.986 0-8.92 4.34-8.92 12.201v15.134h18.427z" fill="#F0F" opacity=".25"/><path fill="#F0F" opacity=".1" d="M541.64.939h46.125v207.536h-46.124z"/></g></svg>