<svg id="Final" xmlns="http://www.w3.org/2000/svg" viewBox="0 0 18 18"><defs><style>.cls-1{fill:none;clip-rule:evenodd}.cls-2{clip-path:url(#clip-path)}.cls-3{fill:#152935}</style><clipPath id="clip-path"><path class="cls-1" d="M149.15-173.3h6.57v-15.56h-13.15v15.56h6.58z"/></clipPath></defs><title>Color_Tab_Icons</title><rect class="cls-3" x="8.44" width="1.13" height="3.64" rx=".56" ry=".56"/><rect class="cls-3" x="8.44" y="14.36" width="1.12" height="3.64" rx=".56" ry=".56"/><circle class="cls-3" cx="9.11" cy="9" r="4.33"/><rect class="cls-3" x="15.62" y="7.19" width="1.12" height="3.64" rx=".56" ry=".56" transform="rotate(-90 16.18 9.01)"/><rect class="cls-3" x="1.26" y="7.19" width="1.12" height="3.64" rx=".56" ry=".56" transform="rotate(-90 1.82 9.01)"/><rect class="cls-3" x="2.87" y="1.85" width="1.12" height="3.64" rx=".56" ry=".56" transform="rotate(-45 3.43 3.67)"/><rect class="cls-3" x="13.81" y="1.85" width="1.12" height="3.64" rx=".56" ry=".56" transform="rotate(-135 14.37 3.666)"/><rect class="cls-3" x="13.81" y="12.57" width="1.12" height="3.64" rx=".56" ry=".56" transform="rotate(135 14.368 14.387)"/><rect class="cls-3" x="2.87" y="12.57" width="1.12" height="3.64" rx=".56" ry=".56" transform="rotate(45 3.441 14.385)"/></svg>