<svg id="Final" xmlns="http://www.w3.org/2000/svg" xmlns:xlink="http://www.w3.org/1999/xlink" viewBox="0 0 18 18"><defs><style>.cls-1{fill:none;clip-rule:evenodd;}.cls-2{clip-path:url(#clip-path);}.cls-3{fill:#152935;}</style><clipPath id="clip-path"><polygon class="cls-1" points="149.15 -173.3 155.72 -173.3 155.72 -188.86 142.57 -188.86 142.57 -173.3 149.15 -173.3"/></clipPath></defs><title>Color_Tab_Icons</title><rect class="cls-3" x="8.44" width="1.13" height="3.64" rx="0.56" ry="0.56"/><rect class="cls-3" x="8.44" y="14.36" width="1.12" height="3.64" rx="0.56" ry="0.56"/><circle class="cls-3" cx="9.11" cy="9" r="4.33"/><rect class="cls-3" x="15.62" y="7.19" width="1.12" height="3.64" rx="0.56" ry="0.56" transform="translate(7.17 25.19) rotate(-90)"/><rect class="cls-3" x="1.26" y="7.19" width="1.12" height="3.64" rx="0.56" ry="0.56" transform="translate(-7.19 10.83) rotate(-90)"/><rect class="cls-3" x="2.87" y="1.85" width="1.12" height="3.64" rx="0.56" ry="0.56" transform="translate(-1.59 3.5) rotate(-45)"/><rect class="cls-3" x="13.81" y="1.85" width="1.12" height="3.64" rx="0.56" ry="0.56" transform="translate(21.94 16.42) rotate(-135)"/><rect class="cls-3" x="13.81" y="12.57" width="1.12" height="3.64" rx="0.56" ry="0.56" transform="translate(34.7 14.4) rotate(135)"/><rect class="cls-3" x="2.87" y="12.57" width="1.12" height="3.64" rx="0.56" ry="0.56" transform="translate(11.18 1.78) rotate(45)"/></svg>