<svg id="Progress" xmlns="http://www.w3.org/2000/svg" viewBox="0 0 18 18"><defs><style>.cls-1{fill:none;clip-rule:evenodd}.cls-2{clip-path:url(#clip-path)}.cls-3{fill:#152935}</style><clipPath id="clip-path"><path class="cls-1" d="M96.48-228.3h6.57v-15.56H89.91v15.56h6.57z"/></clipPath></defs><title>Color_Tab_Icons</title><path class="cls-3" d="M14.26 4.46A8.11 8.11 0 0 0 7.42 1 .59.59 0 0 0 7 2a7.27 7.27 0 0 1 .68.91 7.65 7.65 0 0 1 .79 6.4A7.17 7.17 0 0 1 2.75 14a.59.59 0 0 0-.31 1 8.15 8.15 0 0 0 5.34 2 7.86 7.86 0 0 0 1.91-.23 8.14 8.14 0 0 0 5.56-5 7.77 7.77 0 0 0-.99-7.31z"/></svg>