<svg id="Progress" xmlns="http://www.w3.org/2000/svg" xmlns:xlink="http://www.w3.org/1999/xlink" viewBox="0 0 18 18"><defs><style>.cls-1{fill:none;clip-rule:evenodd;}.cls-2{fill:#8c9ba5;}.cls-3{clip-path:url(#clip-path);}</style><clipPath id="clip-path"><polygon class="cls-1" points="290.81 -228.3 297.39 -228.3 297.39 -243.86 284.24 -243.86 284.24 -228.3 290.81 -228.3"/></clipPath></defs><title>Icons</title><rect class="cls-2" x="8.44" width="1.12" height="3.64" rx="0.56" ry="0.56"/><rect class="cls-2" x="8.44" y="14.36" width="1.13" height="3.64" rx="0.56" ry="0.56"/><path class="cls-2" d="M9.11,4.67A4.33,4.33,0,1,0,13.44,9,4.33,4.33,0,0,0,9.11,4.67Zm0,7.53A3.2,3.2,0,1,1,12.31,9,3.2,3.2,0,0,1,9.11,12.2Z"/><rect class="cls-2" x="15.62" y="7.19" width="1.13" height="3.64" rx="0.56" ry="0.56" transform="translate(7.17 25.19) rotate(-90)"/><rect class="cls-2" x="1.26" y="7.19" width="1.13" height="3.64" rx="0.56" ry="0.56" transform="translate(-7.19 10.83) rotate(-90)"/><rect class="cls-2" x="2.87" y="1.85" width="1.13" height="3.64" rx="0.56" ry="0.56" transform="translate(-1.59 3.5) rotate(-45)"/><rect class="cls-2" x="13.81" y="1.85" width="1.12" height="3.64" rx="0.56" ry="0.56" transform="translate(21.94 16.42) rotate(-135)"/><rect class="cls-2" x="13.81" y="12.57" width="1.13" height="3.64" rx="0.56" ry="0.56" transform="translate(34.7 14.4) rotate(135)"/><rect class="cls-2" x="2.87" y="12.57" width="1.12" height="3.64" rx="0.56" ry="0.56" transform="translate(11.18 1.78) rotate(45)"/></svg>