<svg id="Progress" xmlns="http://www.w3.org/2000/svg" viewBox="0 0 18 18"><defs><style>.cls-1{fill:none;clip-rule:evenodd}.cls-2{fill:#8c9ba5}.cls-3{clip-path:url(#clip-path)}</style><clipPath id="clip-path"><path class="cls-1" d="M290.81-228.3h6.58v-15.56h-13.15v15.56h6.57z"/></clipPath></defs><title>Icons</title><rect class="cls-2" x="8.44" width="1.12" height="3.64" rx=".56" ry=".56"/><rect class="cls-2" x="8.44" y="14.36" width="1.13" height="3.64" rx=".56" ry=".56"/><path class="cls-2" d="M9.11 4.67A4.33 4.33 0 1 0 13.44 9a4.33 4.33 0 0 0-4.33-4.33zm0 7.53a3.2 3.2 0 1 1 3.2-3.2 3.2 3.2 0 0 1-3.2 3.2z"/><rect class="cls-2" x="15.62" y="7.19" width="1.13" height="3.64" rx=".56" ry=".56" transform="rotate(-90 16.18 9.01)"/><rect class="cls-2" x="1.26" y="7.19" width="1.13" height="3.64" rx=".56" ry=".56" transform="rotate(-90 1.82 9.01)"/><rect class="cls-2" x="2.87" y="1.85" width="1.13" height="3.64" rx=".56" ry=".56" transform="rotate(-45 3.43 3.67)"/><rect class="cls-2" x="13.81" y="1.85" width="1.12" height="3.64" rx=".56" ry=".56" transform="rotate(-135 14.37 3.666)"/><rect class="cls-2" x="13.81" y="12.57" width="1.13" height="3.64" rx=".56" ry=".56" transform="rotate(135 14.368 14.387)"/><rect class="cls-2" x="2.87" y="12.57" width="1.12" height="3.64" rx=".56" ry=".56" transform="rotate(45 3.441 14.385)"/></svg>