<svg id="Progress" xmlns="http://www.w3.org/2000/svg" xmlns:xlink="http://www.w3.org/1999/xlink" viewBox="0 0 18 18"><defs><style>.cls-1{fill:none;clip-rule:evenodd;}.cls-2{clip-path:url(#clip-path);}.cls-3{fill:#8c9ba5;}</style><clipPath id="clip-path"><polygon class="cls-1" points="236.81 -173.3 243.39 -173.3 243.39 -188.86 230.24 -188.86 230.24 -173.3 236.81 -173.3"/></clipPath></defs><title>Icons</title><path class="cls-3" d="M7.78,17a8.15,8.15,0,0,1-5.34-2,0.59,0.59,0,0,1,.31-1,7.17,7.17,0,0,0,5.7-4.7,7.65,7.65,0,0,0-.79-6.4h0A7.27,7.27,0,0,0,7,2a0.59,0.59,0,0,1,.43-1,8.12,8.12,0,0,1,6.85,3.45,7.77,7.77,0,0,1,1,7.33,8.14,8.14,0,0,1-5.56,5A7.86,7.86,0,0,1,7.78,17ZM4.22,14.86a7,7,0,0,0,5.18.77,7,7,0,0,0,4.75-4.25,6.62,6.62,0,0,0-.85-6.24A7,7,0,0,0,8.65,2.26h0a8.73,8.73,0,0,1,.9,7.41A8.43,8.43,0,0,1,4.22,14.86Z"/></svg>