<svg id="Layer_1" data-name="Layer 1" viewBox="0 0 15 16" fill-rule="evenodd"><defs><style></style></defs><path class="cls-1" d="M5.66 4.89a8.13 8.13 0 0 1 1-3.84 7 7 0 1 0 5.85 11.87 8.16 8.16 0 0 1-6.85-8.03z"></path><path class="cls-2" d="M7.55 0z"></path><path class="cls-1" d="M5.66 4.89a8.13 8.13 0 0 1 1-3.84 7 7 0 1 0 5.85 11.87 8.16 8.16 0 0 1-6.85-8.03z"></path><path class="cls-1" d="M5.66 4.89a8.13 8.13 0 0 1 1-3.84 7 7 0 1 0 5.85 11.87 8.16 8.16 0 0 1-6.85-8.03z"></path><path class="cls-1" d="M5.66 4.89a8.13 8.13 0 0 1 1-3.84 7 7 0 1 0 5.85 11.87 8.16 8.16 0 0 1-6.85-8.03z"></path><path d="M14 12a7.14 7.14 0 0 1-6.8-7.13 6.92 6.92 0 0 1 1.26-4l.01-.1a.51.51 0 0 0 .09-.26.5.5 0 0 0-.48-.51H8a8 8 0 1 0 6.33 12.88A.5.5 0 0 0 14 12zm-6 3a7 7 0 0 1-.88-13.95A8.14 8.14 0 0 0 13 12.92 7 7 0 0 1 8 15z"></path></svg>