<?xml version="1.0" encoding="UTF-8"?>
<svg width="26px" height="34px" viewBox="0 0 26 34" version="1.1" xmlns="http://www.w3.org/2000/svg" xmlns:xlink="http://www.w3.org/1999/xlink">
    <!-- Generator: Sketch 50.2 (55047) - http://www.bohemiancoding.com/sketch -->
    <title>Disabled</title>
    <desc>Created with Sketch.</desc>
    <defs>
        <path d="M2.6429774,5 L5,2.6429774 L17.3792202,15.0221976 L15.0221976,17.3792202 L2.6429774,5 Z M10,16.3333333 C13.4978034,16.3333333 16.3333333,13.4978034 16.3333333,10 C16.3333333,6.50219658 13.4978034,3.66666667 10,3.66666667 C6.50219658,3.66666667 3.66666667,6.50219658 3.66666667,10 C3.66666667,13.4978034 6.50219658,16.3333333 10,16.3333333 Z M10,19.6666667 C4.66124742,19.6666667 0.333333333,15.3387526 0.333333333,10 C0.333333333,4.66124742 4.66124742,0.333333333 10,0.333333333 C15.3387526,0.333333333 19.6666667,4.66124742 19.6666667,10 C19.6666667,15.3387526 15.3387526,19.6666667 10,19.6666667 Z" id="path-1"></path>
        <filter x="-18.1%" y="-12.9%" width="136.2%" height="136.2%" filterUnits="objectBoundingBox" id="filter-2">
            <feOffset dx="0" dy="1" in="SourceAlpha" result="shadowOffsetOuter1"></feOffset>
            <feGaussianBlur stdDeviation="1" in="shadowOffsetOuter1" result="shadowBlurOuter1"></feGaussianBlur>
            <feColorMatrix values="0 0 0 0 0   0 0 0 0 0   0 0 0 0 0  0 0 0 0.2 0" type="matrix" in="shadowBlurOuter1"></feColorMatrix>
        </filter>
    </defs>
    <g id="Page-1" stroke="none" stroke-width="1" fill="none" fill-rule="evenodd">
        <g id="Cursor/Disabled" transform="translate(-4.789062, -3.277344)">
            <g id="Disabled-Cursor" transform="translate(-2.000000, -1.085070)">
                <g id="Disbaled-Icon" transform="translate(11.000000, 16.000000)" fill-rule="nonzero">
                    <g id="Oval-2">
                        <use fill="black" fill-opacity="1" filter="url(#filter-2)" xlink:href="#path-1"></use>
                        <use fill="#FFFFFF" fill-rule="evenodd" xlink:href="#path-1"></use>
                    </g>
                </g>
                <g id="Cursor" transform="translate(11.096875, 11.055931) rotate(150.000000) translate(-11.096875, -11.055931) translate(3.096875, 3.055931)">
                    <g id="path-2-link" fill="#000000">
                        <polygon id="path-2" points="0.69046276 0.69046276 8.0409437 2.51794906 15.3914247 0.69046276 8.0409437 15.3914247"></polygon>
                    </g>
                    <polygon id="Shape" stroke="#FFFFFF" points="1.6230169 1.43753705 8.0409437 14.2733907 14.4588705 1.43753705 8.0409437 3.03317051"></polygon>
                </g>
            </g>
        </g>
    </g>
</svg>