<svg width="15" height="11" viewBox="0 0 15 11" xmlns="http://www.w3.org/2000/svg">
  <g fill="none" fill-rule="evenodd">
    <path fill="#152935" d="M3.906 1.716H14.52V.793H3.905M3.906 5.87H14.52v-.924H3.905M3.906 10.022H14.52V9.1H3.905"/>
    <g fill="#000">
      <path d="M1.6.332c-.51 0-.924.413-.924.923s.413.923.923.923.92-.414.92-.923c0-.51-.41-.923-.92-.923M1.6 4.485c-.51 0-.924.413-.924.923s.413.923.923.923.92-.413.92-.922c0-.51-.41-.923-.92-.923M1.6 8.638c-.51 0-.924.413-.924.923s.413.923.923.923.92-.413.92-.922c0-.51-.41-.922-.92-.922"/>
    </g>
  </g>
</svg>
