<svg width="16" height="13" viewBox="0 0 16 13" xmlns="http://www.w3.org/2000/svg">
  <g fill="#152935" fill-rule="evenodd">
    <path d="M3.702 2.045h11.7V1.028H3.7M3.702 6.623h11.7V5.606H3.7M3.702 11.202h11.7v-1.018H3.7M.14.01v.51h.51v2.034H.14v.508H1.67v-.508h-.51V.01M1.158 5.097v1.018h.51V5.097M.65 6.623h.508v-.508H.65"/>
    <path d="M.14 6.623V7.64h1.527v-.508H.65v-.51M.65 4.588H.14v.51H1.16v-.51M1.158 10.184h.51v-.51h-.51M.65 10.693h.508v-.51H.65M1.158 10.693v1.017h.51v-1.018M.65 11.71H.14v.51H1.16v-.51"/>
    <path d="M.65 9.167H.14v.508H1.16v-.508"/>
  </g>
</svg>
