<svg width="13" height="13" viewBox="0 0 13 13" xmlns="http://www.w3.org/2000/svg">
  <path d="M11.55 1.187C11.024.66 10.294.332 9.487.332c-.806 0-1.536.327-2.064.855L6.172 2.44c-.53.527-.857 1.256-.857 2.063 0 .31.058.604.144.888-.28-.088-.574-.15-.883-.15-.806 0-1.536.328-2.064.856l-1.25 1.252c-.53.528-.857 1.257-.857 2.064 0 .806.307 1.557.834 2.085.53.528 1.28.835 2.087.835.806 0 1.536-.327 2.064-.855l1.252-1.252c.528-.528.855-1.257.855-2.064 0-.308-.06-.6-.15-.88.284.085.58.143.89.143.805 0 1.535-.327 2.063-.855l1.25-1.252c.53-.528.856-1.257.856-2.064 0-.806-.327-1.537-.855-2.065zM5.87 9.454l-1.25 1.25c-.346.347-.805.537-1.293.537-.508 0-.988-.187-1.314-.513-.328-.328-.516-.807-.516-1.315 0-.49.19-.948.536-1.293l1.25-1.252c.347-.346.806-.536 1.294-.536.3 0 .585.08.843.215l-1.58 1.58.77.772 1.58-1.582c.137.258.216.543.216.843 0 .49-.19.948-.535 1.294zm4.91-4.91L9.528 5.797c-.345.346-.804.536-1.292.536-.307 0-.598-.076-.857-.202l1.594-1.594-.772-.77-1.594 1.593c-.126-.26-.202-.55-.202-.857 0-.49.19-.948.536-1.293l1.25-1.25c.347-.347.806-.537 1.294-.537.49 0 .948.19 1.294.536.346.344.535.804.535 1.292 0 .49-.19.947-.535 1.293z" fill="#152935" fill-rule="evenodd"/>
</svg>
