<svg xmlns="http://www.w3.org/2000/svg" width="72" height="72" viewBox="0 0 72 72"><g fill="#FFF"><path d="M23.3 36c0 2.4.5 4.6 1.4 6.8.9 2.1 2.1 3.9 3.7 5.5.4.4.7.7 1.1 1V22.7c-.4.3-.7.7-1.1 1-1.6 1.6-2.9 3.5-3.7 5.5-.9 2.2-1.4 4.5-1.4 6.8zM53 23.7c-1.6-1.6-3.5-2.9-5.5-3.7-2.1-.9-4.4-1.4-6.8-1.4-2.1 0-4 .4-5.9 1l23 13.4c-.2-1.3-.6-2.5-1.1-3.7-.8-2.1-2.1-4-3.7-5.6zm-20.4-3.1l8.5 14.7h17v-.6l-25-14.4c-.1.1-.3.2-.5.3zm25.5 16.1h-17l-8.5 14.7c.2.1.3.2.5.3L58 37.3c.1-.2.1-.4.1-.6zM47.5 52c2.1-.9 3.9-2.1 5.5-3.7s2.9-3.5 3.7-5.5c.5-1.2.9-2.5 1.1-3.8L34.7 52.4c1.9.7 3.9 1 6 1 2.4 0 4.6-.4 6.8-1.4zm-7.7-16l-8.5-14.7c-.1 0-.5.3-.5.3v28.8c.2.1.3.2.5.3L39.8 36zm1.3.7"/><path d="M40.7 17.3c9.6 0 17.5 7.2 18.6 16.6 0 .3.1.5.1.8L68 19.8 59 4.2H41.1l-8.6 14.9c.3-.1.5-.3.8-.4 2.3-.9 4.8-1.4 7.4-1.4zm18.7 20c0 .3 0 .6-.1.8-1.1 9.3-9 16.6-18.6 16.6-2.6 0-5.2-.5-7.4-1.5-.3-.1-.5-.2-.8-.3l8.6 14.9H59l9-15.5-8.6-15zM30.2 20.5H13L4 36l9 15.5h17.2c-.2-.2-.4-.3-.7-.5-4.6-3.4-7.5-8.9-7.5-15 0-6.2 3-11.6 7.5-15 .2-.2.5-.4.7-.5z"/></g></svg>