<svg width="200" height="47" viewBox="0 0 200 47" xmlns="http://www.w3.org/2000/svg">
  <title>
    logo-misusage-06
  </title>
  <g fill="none" fill-rule="evenodd">
    <g fill="#1D3649">
      <path d="M.48275862 13.793103h1.79310345v18.6896552H.48275862M4.48275862 13.793103h7.93103448c3.1724138 0 6 1.10344828 6 4.55172414 0 1.93103448-1.3103448 3.79310345-3.2413793 4.20689655v.0689655c2.4137931.3448276 3.9310345 2.137931 3.9310345 4.5517241 0 1.7931035-.6206897 5.3103449-6.6896552 5.3103449H4.48275862V13.793103zm1.79310345 8.20689655h6.13793103c2.8275862 0 4.2068966-1.37931034 4.2068966-3.1724138 0-2.34482758-1.3793104-3.51724137-4.2068966-3.51724137H6.27586207v6.68965517zm0 8.96551725h6.13793103c2.6206897 0 4.8965517-.8275862 4.8965517-3.862069 0-2.4137931-1.7931034-3.58620687-4.8965517-3.58620687H6.27586207v7.44827587zM20.7586207 13.793103h2.6206896l6.4827587 16.4137931 6.4137931-16.4137931h2.6206896v18.6896552h-1.7931034V16.34482714h-.0689655L30.6206897 32.4827582h-1.6551725l-6.4137931-16.13793106h-.0689655V32.4827582h-1.7931034V13.793103M46.7586207 13.793103h8.8275862c3.5862069 0 6 1.1724138 6 4.62068966 0 1.86206896-.8965517 3.10344827-2.5517241 3.93103448 2.275862.62068965 3.4482758 2.41379306 3.4482758 4.75862066 0 3.7931035-3.2413793 5.4482759-6.6206896 5.4482759h-9.1034483V13.793103zm4.0689655 7.5862069h4.137931c1.4482759 0 2.4827587-.62068966 2.4827587-2.20689656 0-1.72413793-1.3793104-2.13793103-2.8275862-2.13793103h-3.862069v4.3448276h.0689655zm0 7.9310345h4.4137931c1.5862069 0 3.0344828-.5517242 3.0344828-2.4827586 0-1.9310345-1.1724138-2.6896552-2.9655173-2.6896552h-4.4827586v5.1724138zM64.2068966 13.793103h3.7241379v18.6896552h-3.7241379M82.8275862 32.4827582h-3.5172414v-1.862069h-.0689655c-.9655172 1.5172414-2.5517241 2.2758621-4.137931 2.2758621-3.9310345 0-4.9655173-2.2068966-4.9655173-5.5862069v-8.3448276h3.724138v7.6551724c0 2.2068966.6206896 3.3103448 2.4137931 3.3103448 2 0 2.8965517-1.1034482 2.8965517-3.8620689v-7.1034483h3.7241379v13.5172414h-.0689655zM88.2758621 26.6206892c.137931 2.4137931 1.2413793 3.4482759 3.3103448 3.4482759 1.5172414 0 2.6896552-.8965518 2.9655172-1.724138h3.2413793c-1.0344827 3.2413793-3.2413793 4.5517242-6.3448275 4.5517242-4.2758621 0-6.8965518-2.9655173-6.8965518-7.1034483 0-4.06896552 2.8275862-7.1724138 6.8965518-7.1724138 4.6206896 0 6.8275862 3.86206897 6.5517241 8.0689655h-9.7241379v-.0689655zm6.0689655-2.3448276C94 22.41379266 93.1724138 21.3793099 91.3793103 21.3793099c-2.4137931 0-3.0344827 1.86206896-3.1034482 2.8965517h6.0689655zM100 18.9655168h3.517241v1.86206896h.068966c.965517-1.37931035 2.344827-2.20689655 4.137931-2.20689655 1.724138 0 3.241379.62068966 3.931034 2.27586208.827587-1.1724138 2.206897-2.27586207 4.068966-2.27586207 2.896552 0 4.965517 1.31034483 4.965517 4.8275862v9.0344828h-3.724138v-7.6551724c0-1.7931035-.137931-3.31034487-2.275862-3.31034487-2.068965 0-2.482758 1.72413793-2.482758 3.44827587v7.5172414h-3.724138v-7.5862069c0-1.58620692.137931-3.37931037-2.275862-3.37931037-.758621 0-2.482759.48275862-2.482759 3.10344827v7.862069H100V18.9655168zM126.62069 16.82758576h-3.724138V13.793103h3.724138v3.03448276zm-3.724138 2.13793103h3.724138v13.5172414h-3.724138V18.9655168zM132.827586 25.3793099l-4.482758-6.4137931h4.206896l2.413793 3.51724137 2.344828-3.51724138h4.137931l-4.482759 6.3448276 4.965517 7.1724138h-4.206896l-2.827586-4.2758621-2.827586 4.2758621h-4.137932"/>
    </g>
    <path d="M167.1724137 23.3793103c0 1.724138.3448276 3.3793104 1.0344827 4.9655173.6206897 1.5172414 1.5862069 2.8965517 2.7586207 4.0689655.2758621.2758621.5517242.4827586.8275862.7586207V13.6551724c-.275862.2068966-.5517241.4827586-.8275862.7586207-1.1724138 1.1724138-2.0689655 2.5517241-2.7586207 4.0689655-.6896551 1.4482759-1.0344827 3.1724138-1.0344827 4.8965517z" fill="#1D3649"/>
    <path d="M188.9655171 14.3448276c-1.1724138-1.1724138-2.5517241-2.0689655-4.0689655-2.7586207-1.5862069-.6896552-3.2413793-1.0344828-4.9655172-1.0344828-1.5172414 0-2.9655173.2758621-4.3448276.7586207l16.9655172 9.7931035c-.137931-.9655173-.4137931-1.862069-.8275862-2.7586207-.6206896-1.4482759-1.5172414-2.8275862-2.7586207-4zM174.0689654 12.0689655c-.0689655 0-.0689655 0 0 0l6.2068966 10.7586207h12.4827586v-.4137931L174.4827585 11.862069c-.2068965.0689655-.3448276.137931-.4137931.2068965z" fill="#00B29F"/>
    <path d="M192.7586206 23.862069H180.275862l-6.2068966 10.8275862c.137931.0689655.2758621.137931.3448276.2068965l18.2758621-10.5517241c0-.2068966.0689655-.3448276.0689655-.4827586zM184.9655171 35.1034483c1.5172414-.6206897 2.8965518-1.5862069 4.0689656-2.7586207 1.1724137-1.1724138 2.0689655-2.5517242 2.7586206-4.0689655.3448276-.8965518.6206897-1.7931035.8275863-2.7586207l-16.9655173 9.7931034c1.3793104.4827586 2.8965517.7586207 4.3448276.7586207 1.7241379.0689655 3.3793103-.2758621 4.9655172-.9655172z" fill="#5AAAFA"/>
    <path d="M179.3103447 23.3793103l-6.2068965-10.7586206c-.0689655 0-.3448276.2068965-.3448276.2068965v21.1034483c.137931.0689655.2068965.137931.3448276.2068965l6.2068965-10.7586207z" fill="#1D3649"/>
    <path d="M179.9999999 9.5862069c7.0344828 0 12.8965517 5.3103448 13.6551724 12.137931 0 .2068966.0689655.4137931.0689655.5517242l6.2758621-10.8965518L193.4482758 0H180.275862l-6.3448276 10.9655172c.2068965-.0689655.4137931-.2068965.5517241-.275862 1.7241379-.6896552 3.5172414-1.1034483 5.5172414-1.1034483z" fill="#00B29F"/>
    <path fill="#90908F" d="M173.9999999 35.7241379h.1v.48275862h-.1z"/>
    <path d="M193.7241378 24.3448276c0 .2068965 0 .4137931-.0689655.6206896-.7586207 6.8275862-6.6206896 12.1379311-13.6551724 12.1379311-1.9310345 0-3.7931035-.4137931-5.4482759-1.1034483-.2068965-.0689655-.3448276-.137931-.5517241-.2758621l6.2758621 10.8965518h13.1724138l6.5517241-11.3793104-6.2758621-10.8965517z" fill="#5AAAFA"/>
    <path d="M172.275862 11.9310345h-12.6896552l-6.55172415 11.3793103 6.55172414 11.3793104h12.6206896c-.137931-.1379311-.3448275-.2068966-.4827586-.3448276-3.3793103-2.4827586-5.5172414-6.4827586-5.5172414-11.0344828 0-4.4827586 2.2068966-8.5517241 5.5172414-11.0344827.2068966-.0689655.3448276-.2068966.5517242-.3448276z" fill="#1D3649"/>
  </g>
</svg>