<svg width="200" height="47" viewBox="0 0 200 47" xmlns="http://www.w3.org/2000/svg"><title>logo-misusage-06</title><g fill="none" fill-rule="evenodd"><path d="M.483 13.793h1.793v18.69H.483m4-18.69h7.93c3.173 0 6 1.104 6 4.552 0 1.93-1.31 3.793-3.24 4.207v.069c2.413.345 3.93 2.138 3.93 4.551 0 1.794-.62 5.31-6.69 5.31h-7.93V13.794zM6.276 22h6.138c2.827 0 4.207-1.38 4.207-3.172 0-2.345-1.38-3.518-4.207-3.518H6.276V22zm0 8.966h6.138c2.62 0 4.896-.828 4.896-3.863 0-2.413-1.793-3.586-4.896-3.586H6.276v7.449zm14.483-17.173h2.62l6.483 16.414 6.414-16.414h2.62v18.69h-1.793V16.345h-.069l-6.413 16.138h-1.655l-6.414-16.138h-.07v16.138H20.69v-18.69m26.069 0h8.827c3.586 0 6 1.173 6 4.62 0 1.863-.896 3.104-2.552 3.932 2.276.62 3.449 2.414 3.449 4.758 0 3.794-3.242 5.449-6.62 5.449h-9.104V13.793zm4.069 7.586h4.138c1.448 0 2.482-.62 2.482-2.207 0-1.724-1.379-2.138-2.827-2.138h-3.862v4.345h.069zm0 7.931h4.413c1.587 0 3.035-.551 3.035-2.482s-1.173-2.69-2.966-2.69h-4.482v5.172zm13.379-15.517h3.724v18.69h-3.724m18.62 0H79.31V30.62h-.069a4.867 4.867 0 0 1-4.138 2.276c-3.93 0-4.965-2.207-4.965-5.587v-8.344h3.724v7.655c0 2.207.62 3.31 2.414 3.31 2 0 2.896-1.103 2.896-3.862v-7.103h3.725v13.517h-.07zm5.449-5.862c.138 2.413 1.241 3.448 3.31 3.448 1.517 0 2.69-.897 2.966-1.724h3.241c-1.034 3.241-3.241 4.552-6.345 4.552-4.276 0-6.896-2.966-6.896-7.104 0-4.069 2.827-7.172 6.896-7.172 4.621 0 6.828 3.862 6.552 8.069h-9.724v-.07zm6.069-2.345c-.345-1.862-1.173-2.897-2.966-2.897-2.413 0-3.034 1.862-3.103 2.897h6.069zm5.655-5.31h3.517v1.862h.07c.965-1.38 2.344-2.207 4.137-2.207 1.724 0 3.242.62 3.931 2.276.828-1.173 2.207-2.276 4.07-2.276 2.896 0 4.965 1.31 4.965 4.827v9.035h-3.724v-7.655c0-1.794-.138-3.31-2.276-3.31-2.07 0-2.483 1.723-2.483 3.448v7.517h-3.724v-7.586c0-1.587.138-3.38-2.276-3.38-.759 0-2.483.483-2.483 3.104v7.862H100V18.966zm26.62-2.138h-3.723v-3.035h3.724v3.035zm-3.723 2.138h3.724v13.517h-3.724V18.966zm9.93 6.413l-4.482-6.413h4.207l2.414 3.517 2.344-3.517h4.138l-4.482 6.344 4.965 7.173h-4.207l-2.827-4.276-2.828 4.276h-4.138m39.241-9.103c0 1.723.345 3.379 1.035 4.965.62 1.517 1.586 2.896 2.759 4.069.275.276.551.483.827.758V13.655c-.276.207-.552.483-.827.759-1.173 1.172-2.07 2.552-2.76 4.069-.689 1.448-1.034 3.172-1.034 4.896z" fill="#1D3649"/><path d="M188.966 14.345c-1.173-1.173-2.552-2.07-4.07-2.759a12.325 12.325 0 0 0-4.965-1.034 13.08 13.08 0 0 0-4.345.758l16.966 9.793a9.787 9.787 0 0 0-.828-2.758c-.62-1.448-1.517-2.828-2.758-4zm-14.897-2.276c-.069 0-.069 0 0 0l6.207 10.759h12.483v-.414l-18.276-10.552c-.207.069-.345.138-.414.207z" fill="#00B29F"/><path d="M192.759 23.862h-12.483l-6.207 10.828c.138.069.276.138.345.207l18.276-10.552c0-.207.069-.345.069-.483zm-7.793 11.241c1.517-.62 2.896-1.586 4.068-2.758 1.173-1.173 2.07-2.552 2.76-4.07.344-.896.62-1.792.827-2.758l-16.966 9.793c1.38.483 2.897.759 4.345.759 1.724.069 3.38-.276 4.966-.966z" fill="#5AAAFA"/><path d="M179.31 23.38l-6.207-10.76c-.069 0-.344.208-.344.208V33.93c.138.069.207.138.344.207l6.207-10.759z" fill="#1D3649"/><path d="M180 9.586c7.034 0 12.897 5.31 13.655 12.138 0 .207.07.414.07.552L200 11.379 193.448 0h-13.172l-6.345 10.966c.207-.07.414-.207.552-.276C176.207 10 178 9.586 180 9.586z" fill="#00B29F"/><path fill="#90908F" d="M174 35.724h.1v.483h-.1z"/><path d="M193.724 24.345c0 .207 0 .414-.069.62-.758 6.828-6.62 12.138-13.655 12.138A14.23 14.23 0 0 1 174.552 36a2.065 2.065 0 0 1-.552-.276l6.276 10.897h13.172L200 35.24l-6.276-10.896z" fill="#5AAAFA"/><path d="M172.276 11.931h-12.69l-6.552 11.38 6.552 11.379h12.62c-.137-.138-.344-.207-.482-.345-3.38-2.483-5.517-6.483-5.517-11.035 0-4.482 2.207-8.551 5.517-11.034.207-.07.345-.207.552-.345z" fill="#1D3649"/></g></svg>