<svg width="200" height="47" viewBox="0 0 200 47" xmlns="http://www.w3.org/2000/svg">
  <title>
    logo-misusage-07
  </title>
  <g fill="none" fill-rule="evenodd">
    <g fill="#1D3649">
      <path d="M58.96907218 13.745704h1.78694158v18.6254296h-1.78694158M62.95532647 13.745704H70.790378c3.161512 0 5.9793815 1.09965636 5.9793815 4.53608247 0 1.92439863-1.305842 3.78006873-3.2302406 4.19243987v.06872852c2.4054983.3436426 3.9175258 2.13058424 3.9175258 4.53608244 0 1.7869416-.6185567 5.2920963-6.6666667 5.2920963h-7.83505153V13.745704zm1.71821306 8.17869416H70.790378c2.8178694 0 4.1924399-1.37457045 4.1924399-3.16151203 0-2.33676976-1.3745705-3.50515464-4.1924399-3.50515464h-6.11683847v6.66666666zm0 8.93470794H70.790378c2.6116839 0 4.8797251-.8247423 4.8797251-3.8487973 0-2.4054983-1.7869416-3.57388315-4.8797251-3.57388315h-6.11683847v7.42268045zM79.1752577 13.745704h2.6116839l6.4604811 16.3573883 6.3917526-16.3573883h2.6116838v18.6254296h-1.7869416V16.28865933h-.0687285L89.0034364 32.3711336h-1.6494845l-6.3917526-16.08247427h-.0687285V32.3711336h-1.7869416V13.745704M105.0859107 13.745704h8.7972508c3.5738832 0 5.9793815 1.16838488 5.9793815 4.604811 0 1.8556701-.8934708 3.0927835-2.5429554 3.91752577 2.2680413.6185567 3.4364262 2.40549833 3.4364262 4.74226803 0 3.7800687-3.2302406 5.4295533-6.5979382 5.4295533h-9.0034364V13.745704h-.0687285zm4.0549828 7.56013746h4.1237113c1.443299 0 2.4742268-.6185567 2.4742268-2.19931272 0-1.71821306-1.3745704-2.1305842-2.8178694-2.1305842h-3.8487972v4.32989692h.0687285zm0 7.90378004h4.3986254c1.580756 0 3.024055-.5498282 3.024055-2.4742268s-1.1683849-2.6804123-2.9553265-2.6804123h-4.4673539v5.1546391zM122.4742268 13.745704h3.7113402v18.6254296h-3.7113402M141.0309278 32.3711336h-3.5738831v-1.8556701h-.0687285c-.9621993 1.5120274-2.5429554 2.2680412-4.1237114 2.2680412-3.9175257 0-4.9484536-2.1993127-4.9484536-5.5670103v-8.31615122h3.7113402v7.62886602c0 2.1993127.6185567 3.298969 2.4054983 3.298969 1.9931272 0 2.8865979-1.0996563 2.8865979-3.8487972v-7.07903782h3.7113402V32.3711336zM146.4604811 26.5292092c.1374571 2.4054982 1.2371134 3.4364261 3.2989691 3.4364261 1.5120275 0 2.6804124-.8934708 2.9553264-1.7182131h3.2302406c-1.0309278 3.2302406-3.2302406 4.5360825-6.3230241 4.5360825-4.2611683 0-6.8728522-2.9553265-6.8728522-7.0790378 0-4.05498283 2.8178694-7.14776634 6.8728522-7.14776634 4.604811 0 6.8041238 3.84879725 6.5292097 8.04123714h-9.6907217v-.0687285zm5.9793815-2.3367698c-.3436427-1.8556701-1.1683849-2.88659794-2.9553265-2.88659794-2.4054983 0-3.024055 1.8556701-3.0927835 2.88659794h6.04811zM158.0756014 18.90034318h3.5051546v1.8556701h.068729c.962199-1.37457045 2.336769-2.19931272 4.123711-2.19931272 1.718213 0 3.23024.6185567 3.917526 2.26804124.824742-1.16838488 2.199312-2.26804124 4.054982-2.26804124 2.886598 0 4.948454 1.30584193 4.948454 4.81099657v9.00343647h-3.71134v-7.628866c0-1.7869416-.137457-3.2989691-2.268041-3.2989691-2.061856 0-2.474227 1.71821306-2.474227 3.4364261v7.491409h-3.71134v-7.5601375c0-1.58075602.137457-3.3676976-2.268042-3.3676976-.756013 0-2.474226.48109966-2.474226 3.0927835v7.8350516h-3.7113406V18.90034318zM184.67354 16.76975898h-3.711341V13.745704h3.711341v3.02405498zm-3.711341 2.1305842h3.711341V32.3711336h-3.711341V18.90034318zM190.859107 25.2920958l-4.467354-6.39175262h4.192439l2.405499 3.50515463 2.336769-3.50515462h4.123712l-4.467354 6.32302402 4.948453 7.1477664h-4.192439l-2.81787-4.2611684-2.817869 4.2611684h-4.123712"/>
    </g>
    <path d="M14.6391753 23.2989691c0 1.718213.3436426 3.3676976 1.0309278 4.9484536.6185567 1.5120275 1.580756 2.8865979 2.7491409 4.0549828.2749141.2749141.5498282.4810997.8247423.7560137V13.6082474c-.2749141.2061856-.5498282.4810997-.8247423.7560138-1.1683849 1.1683848-2.0618557 2.5429553-2.7491409 4.0549828-.6872852 1.443299-1.0309278 3.161512-1.0309278 4.8797251z" fill="#5596E6"/>
    <path d="M36.3573883 14.2955326c-1.1683849-1.1683848-2.5429553-2.0618556-4.0549828-2.7491408-1.580756-.6872853-3.2302406-1.0309279-4.9484536-1.0309279-1.5120275 0-2.9553265.2749141-4.3298969.7560138l16.838488 9.8281787c-.1374571-.9621994-.4123712-1.8556701-.8247423-2.7491409-.6185567-1.5120275-1.5120275-2.886598-2.6804124-4.0549829zM21.443299 12.0274914l6.185567 10.7216495h12.4398625v-.4123711l-18.2817869-10.515464c-.0687285.0687286-.2061856.1374571-.3436426.2061856z" fill="#325C80"/>
    <path d="M40.0687285 23.7800687H27.628866l-6.185567 10.790378c.137457.0687286.2749141.1374571.3436426.2061856L40 24.2611684c.0687285-.2061856.0687285-.3436426.0687285-.4810997zM32.3024055 34.9828179c1.5120275-.6185567 2.8865979-1.580756 4.0549828-2.7491409 1.1683849-1.1683849 2.0618557-2.5429554 2.7491409-4.0549828.3436426-.8934708.6185567-1.7869416.8247423-2.7491409L23.024055 35.257732c1.3745704.4810996 2.8865979.7560137 4.3298969.7560137 1.718213 0 3.3676976-.3436426 4.9484536-1.0309278z" fill="#AF6EE8"/>
    <path d="M26.7353952 23.2989691l-6.185567-10.7216495c-.0687285 0-.3436426.2061856-.3436426.2061856V33.814433c.137457.0687285.2061855.137457.3436426.2061856l6.185567-10.7216495z" fill="#5596E6"/>
    <path d="M27.3539519 9.5532646c7.0103093 0 12.8522337 5.2920962 13.6082474 12.0962199 0 .2061856.0687285.4123712.0687285.5498282l6.2542956-10.8591065L40.7560137.06872852H27.628866L21.3058419 10.9965636c.2061856-.0687285.4123712-.2061856.5498282-.2749141 1.7182131-.75601376 3.5738832-1.1683849 5.4982818-1.1683849z" fill="#325C80"/>
    <path fill="#90908F" d="M21.443299 35.6013746h.1v.48109966h-.1z"/>
    <path d="M41.0309278 24.2611684c0 .2061856 0 .4123711-.0687285.6185567-.7560137 6.8041237-6.5979381 12.0962199-13.6082474 12.0962199-1.9243986 0-3.7800687-.4123711-5.4295533-1.0996563-.2061855-.0687286-.3436426-.1374571-.5498282-.2749141l6.2542956 10.8591065h13.1271477l6.5292097-11.3402062-6.2542956-10.8591065z" fill="#AF6EE8"/>
    <path d="M19.7250859 11.8900344H7.0790378L.54982818 23.2302405 7.0790378 34.5704467h12.5773196c-.1374571-.137457-.3436426-.2061855-.4810997-.3436426-3.3676976-2.4742268-5.4982818-6.4604811-5.4982818-10.9965636 0-4.4673539 2.1993128-8.5223367 5.4982818-10.9965635.1374571-.0687285.3436426-.2061856.5498282-.3436426z" fill="#5596E6"/>
  </g>
</svg>