<svg width="200" height="68" viewBox="0 0 200 68" xmlns="http://www.w3.org/2000/svg"><title>logo-misusage-04</title><g fill="none" fill-rule="evenodd"><path d="M58.97 20h1.786v27.1h-1.787M62.955 20h7.835c3.162 0 5.98 1.6 5.98 6.6 0 2.8-1.306 5.5-3.23 6.1v.1c2.405.5 3.917 3.1 3.917 6.6 0 2.6-.619 7.7-6.667 7.7h-7.835V20zm1.719 11.9h6.116c2.818 0 4.193-2 4.193-4.6 0-3.4-1.375-5.1-4.193-5.1h-6.116v9.7zm0 13h6.116c2.612 0 4.88-1.2 4.88-5.6 0-3.5-1.787-5.2-4.88-5.2h-6.116v10.8zM79.175 20h2.612l6.46 23.8L94.64 20h2.612v27.1h-1.787V23.7h-.069l-6.392 23.4h-1.649l-6.392-23.4h-.069v23.4h-1.786V20m25.979 0h8.797c3.574 0 5.98 1.7 5.98 6.7 0 2.7-.894 4.5-2.543 5.7 2.268.9 3.436 3.5 3.436 6.9 0 5.5-3.23 7.9-6.598 7.9h-9.003V20h-.07zm4.055 11h4.124c1.443 0 2.474-.9 2.474-3.2 0-2.5-1.375-3.1-2.818-3.1h-3.849V31h.069zm0 11.5h4.399c1.58 0 3.024-.8 3.024-3.6s-1.169-3.9-2.956-3.9h-4.467v7.5zM122.474 20h3.712v27.1h-3.712m18.557 0h-3.574v-2.7h-.069c-.962 2.2-2.543 3.3-4.123 3.3-3.918 0-4.949-3.2-4.949-8.1V27.5h3.711v11.1c0 3.2.619 4.8 2.406 4.8 1.993 0 2.887-1.6 2.887-5.6V27.5h3.71v19.6zm5.43-8.5c.137 3.5 1.237 5 3.298 5 1.512 0 2.68-1.3 2.956-2.5h3.23c-1.03 4.7-3.23 6.6-6.323 6.6-4.261 0-6.873-4.3-6.873-10.3 0-5.9 2.818-10.4 6.873-10.4 4.605 0 6.804 5.6 6.53 11.7h-9.692v-.1zm5.979-3.4c-.344-2.7-1.169-4.2-2.955-4.2-2.406 0-3.025 2.7-3.093 4.2h6.048zm5.636-7.7h3.505v2.7h.068c.963-2 2.337-3.2 4.124-3.2 1.718 0 3.23.9 3.918 3.3.824-1.7 2.199-3.3 4.055-3.3 2.886 0 4.948 1.9 4.948 7v13.1h-3.711V36c0-2.6-.138-4.8-2.268-4.8-2.062 0-2.474 2.5-2.474 5v10.9h-3.712v-11c0-2.3.138-4.9-2.268-4.9-.756 0-2.474.7-2.474 4.5v11.4h-3.711V27.5zm26.598-3.1h-3.712V20h3.712v4.4zm-3.712 3.1h3.712v19.6h-3.712V27.5zm9.897 9.3l-4.467-9.3h4.192l2.406 5.1 2.336-5.1h4.124l-4.467 9.2 4.948 10.4h-4.192l-2.818-6.2-2.818 6.2h-4.124M14.64 33.9c0 2.5.343 4.9 1.03 7.2.619 2.2 1.58 4.2 2.75 5.9.274.4.55.7.824 1.1V19.8c-.275.3-.55.7-.825 1.1-1.168 1.7-2.062 3.7-2.749 5.9-.687 2.1-1.03 4.6-1.03 7.1z" fill="#1D3649"/><path d="M36.357 20.8a14.74 14.74 0 0 0-4.055-4c-1.58-1-3.23-1.5-4.948-1.5-1.512 0-2.955.4-4.33 1.1l16.839 14.3c-.138-1.4-.413-2.7-.825-4-.619-2.2-1.512-4.2-2.68-5.9zm-14.914-3.3l6.186 15.6h12.44v-.6L21.787 17.2c-.069.1-.206.2-.344.3z" fill="#00B29F"/><path d="M40.069 34.6h-12.44l-6.186 15.7c.138.1.275.2.344.3L40 35.3c.069-.3.069-.5.069-.7zm-7.767 16.3c1.512-.9 2.887-2.3 4.055-4 1.169-1.7 2.062-3.7 2.75-5.9.343-1.3.618-2.6.824-4L23.024 51.3c1.375.7 2.887 1.1 4.33 1.1 1.718 0 3.368-.5 4.948-1.5z" fill="#5AAAFA"/><path d="M26.735 33.9L20.55 18.3c-.069 0-.344.3-.344.3v30.6c.138.1.206.2.344.3l6.185-15.6z" fill="#1D3649"/><path d="M27.354 13.9c7.01 0 12.852 7.7 13.608 17.6 0 .3.069.6.069.8l6.254-15.8L40.756.1H27.629L21.306 16c.206-.1.412-.3.55-.4 1.718-1.1 3.574-1.7 5.498-1.7z" fill="#00B29F"/><path fill="#90908F" d="M21.443 51.8h.1v.7h-.1z"/><path d="M41.03 35.3c0 .3 0 .6-.068.9-.756 9.9-6.598 17.6-13.608 17.6-1.924 0-3.78-.6-5.43-1.6-.206-.1-.343-.2-.55-.4l6.255 15.8h13.127l6.53-16.5-6.255-15.8z" fill="#5AAAFA"/><path d="M19.725 17.3H7.08L.549 33.8l6.53 16.5h12.577c-.137-.2-.343-.3-.48-.5-3.368-3.6-5.499-9.4-5.499-16 0-6.5 2.2-12.4 5.498-16 .138-.1.344-.3.55-.5z" fill="#1D3649"/></g></svg>