<svg width="590" height="269" viewBox="0 0 590 269" xmlns="http://www.w3.org/2000/svg">
  <title>
    Logo-Spec_Light
  </title>
  <g fill="none" fill-rule="evenodd">
    <path fill-opacity=".25" fill="#DFE6EB" d="M0 0h590v269H0z"/>
    <path d="M31.44889267 42.5020492H152.649915M31.44889267 39.5020492v6M152.649915 39.5020492v6M183.174617 42.5020492h374.764888M183.174617 39.5020492v6M557.939505 39.5020492v6M31.3723519 224.702869H557.939505M31.3723519 221.702869v6M557.939505 221.702869v6" stroke="#FF71D4" stroke-linecap="square"/>
    <path d="M83.9378671 34h1.14v-8.568h-1.14V34zm7.98-4.212c-.156-1.476-1.26-2.136-2.676-2.136-1.968 0-2.928 1.464-2.928 3.324 0 1.86 1.008 3.168 2.904 3.168 1.572 0 2.508-.888 2.736-2.412h-1.044c-.132.948-.708 1.512-1.704 1.512-1.296 0-1.812-1.116-1.812-2.268 0-1.248.456-2.424 1.932-2.424.852 0 1.38.456 1.536 1.236h1.056zm1.86 1.116c0-1.5.864-2.352 1.932-2.352s1.932.852 1.932 2.352-.864 2.34-1.932 2.34-1.932-.84-1.932-2.34zm-1.08 0c0 1.812 1.044 3.24 3.012 3.24s3.012-1.428 3.012-3.24c0-1.824-1.044-3.252-3.012-3.252s-3.012 1.428-3.012 3.252zm7.032 3.096h1.02v-3.504c0-1.116.6-1.944 1.836-1.944.78 0 1.26.48 1.26 1.248V34h1.02v-4.08c0-1.332-.504-2.268-2.136-2.268-.9 0-1.584.36-2.016 1.128h-.024v-.984h-.96V34zM362.061329 25.432h-1.14l-1.74 7.128h-.024l-1.896-7.128h-1.236l-1.92 7.128h-.024l-1.68-7.128h-1.164l2.196 8.568h1.188l1.98-7.2h.024l1.956 7.2h1.188l2.292-8.568zm1.464 5.472c0-1.5.864-2.352 1.932-2.352s1.932.852 1.932 2.352-.864 2.34-1.932 2.34-1.932-.84-1.932-2.34zm-1.08 0c0 1.812 1.044 3.24 3.012 3.24s3.012-1.428 3.012-3.24c0-1.824-1.044-3.252-3.012-3.252s-3.012 1.428-3.012 3.252zm7.032 3.096h1.02v-2.76c0-1.584.6-2.508 2.244-2.508v-1.08c-1.104-.036-1.788.444-2.28 1.452h-.024v-1.308h-.96V34zm4.692-3.048c0-1.212.468-2.4 1.86-2.4 1.404 0 1.956 1.14 1.956 2.352 0 1.152-.516 2.34-1.896 2.34-1.32 0-1.92-1.128-1.92-2.292zm4.8-5.52h-1.02v3.192h-.024c-.444-.732-1.38-.972-2.004-.972-1.896 0-2.832 1.476-2.832 3.228 0 1.752.948 3.264 2.856 3.264.864 0 1.644-.3 1.98-.984h.024V34h1.02v-8.568zm1.308 8.568h1.02v-3.864c0-.48.456-1.584 1.656-1.584.912 0 1.164.576 1.164 1.38V34h1.02v-3.864c0-.96.624-1.584 1.62-1.584.996 0 1.2.612 1.2 1.38V34h1.02v-4.548c0-1.284-.828-1.8-2.064-1.8-.804 0-1.524.384-1.944 1.056-.252-.768-.936-1.056-1.704-1.056-.876 0-1.536.348-2.004 1.056h-.024v-.912h-.96V34zm15.528-.816c-.108.036-.216.06-.312.06-.324 0-.324-.216-.324-.696v-3.192c0-1.452-1.212-1.704-2.328-1.704-1.392 0-2.568.54-2.628 2.076h1.02c.048-.912.684-1.176 1.548-1.176.636 0 1.38.132 1.38 1.032 0 .78-.972.684-2.088.912-1.056.192-2.1.504-2.1 1.908 0 1.248.924 1.74 2.052 1.74.864 0 1.62-.288 2.184-.96 0 .672.336.96.864.96.3 0 .552-.06.732-.168v-.792zm-1.656-1.344c0 .576-.552 1.404-1.896 1.404-.624 0-1.2-.24-1.2-.912 0-1.524 2.304-.948 3.096-1.536v1.044zm2.484 2.16h1.02v-2.76c0-1.584.6-2.508 2.244-2.508v-1.08c-1.104-.036-1.788.444-2.28 1.452h-.024v-1.308h-.96V34zm3.948 0h1.02v-2.352l.96-.888 2.124 3.24h1.296l-2.64-3.948 2.46-2.256h-1.368l-2.832 2.712v-5.076h-1.02V34zM289.505949 242.229508h5.676v-.96h-4.536v-7.608h-1.14v8.568zm7.404-3.096c0-1.5.864-2.352 1.932-2.352s1.932.852 1.932 2.352-.864 2.34-1.932 2.34-1.932-.84-1.932-2.34zm-1.08 0c0 1.812 1.044 3.24 3.012 3.24s3.012-1.428 3.012-3.24c0-1.824-1.044-3.252-3.012-3.252s-3.012 1.428-3.012 3.252zm12.444-3.108h-.96v.888h-.012c-.372-.684-1.068-1.032-1.848-1.032-2.16 0-2.868 1.812-2.868 3.276 0 1.692.924 3.144 2.772 3.144.792 0 1.584-.372 1.932-1.128h.024v.408c0 1.392-.528 2.352-1.86 2.352-.66 0-1.572-.276-1.608-1.008h-1.02c.06 1.344 1.404 1.824 2.568 1.824 1.968 0 2.88-1.02 2.88-3.048v-5.676zm-2.856 5.376c-1.344 0-1.752-1.248-1.752-2.364 0-1.188.528-2.256 1.836-2.256 1.284 0 1.764 1.128 1.764 2.22 0 1.164-.504 2.4-1.848 2.4zm4.956-2.268c0-1.5.864-2.352 1.932-2.352s1.932.852 1.932 2.352-.864 2.34-1.932 2.34-1.932-.84-1.932-2.34zm-1.08 0c0 1.812 1.044 3.24 3.012 3.24s3.012-1.428 3.012-3.24c0-1.824-1.044-3.252-3.012-3.252s-3.012 1.428-3.012 3.252z" fill="#FF71D4"/>
    <g>
      <path d="M197.4256 153.8627931h15.830682c6.833977 0 12.719624-2.0954028 12.719624-9.9350637 0-6.2179474-4.600847-9.3269211-12.719624-9.3269211H197.4256v19.2619848zm0-23.1818153h15.830682c7.307106 0 10.893365-3.6498896 10.893365-8.1788969 0-6.0152332-3.653553-9.055946-10.893365-9.055946H197.4256v17.2348429zm-4.600847-21.1546733h20.431529c8.118777 0 15.493177 2.8379986 15.493177 11.8277522 0 5.0688889-3.382306 9.7323495-8.388988 10.8131471v.1354875c6.224188.8108568 10.216282 5.4743173 10.216282 11.7605256 0 4.5951997-1.624377 13.7194066-17.320471 13.7194066h-20.431529v-48.256319zM234.973751 109.5258908h6.765647l16.710682 42.3093467 16.642353-42.3093467h6.765647v48.2573533h-4.599812v-41.7012042h-.135623l-16.507765 41.7012042h-4.3296l-16.576094-41.7012042h-.134588v41.7012042h-4.600847M312.708809 149.5016455h11.365459c4.127718 0 7.848565-1.3517726 7.848565-6.3534349 0-4.9334014-3.0448-6.8933166-7.644612-6.8933166h-11.569412v13.2467515zm0-20.4782699h10.756706c3.789177 0 6.495436-1.6899743 6.495436-5.7452923 0-4.5279731-3.51793-5.5425782-7.307106-5.5425782h-9.945036v11.2878705zm-10.622117-19.5329598h22.731953c9.201694 0 15.425882 2.9734861 15.425882 11.9632398 0 4.7979138-2.300423 7.9751484-6.562729 10.0695169 5.953976 1.6899744 8.863153 6.2179474 8.863153 12.2331807 0 9.8006103-8.321695 13.9903816-17.049224 13.9903816h-23.409035v-48.256319zM347.222306 157.7479759h9.606494v-48.2573533h-9.606494M395.299915 157.7472519h-9.133364v-4.8661747h-.202918c-2.436047 3.9870571-6.630024 5.812519-10.689412 5.812519-10.216282 0-12.786917-5.7452924-12.786917-14.39581v-21.4928751h9.607529v19.7356741c0 5.7442581 1.623341 8.583291 6.155859 8.583291 5.2096 0 7.442729-2.9062595 7.442729-10.0033246v-18.3156405h9.606494v34.9423408zM425.043087 136.5250417c-.88-4.8661748-2.976471-7.4342326-7.644612-7.4342326-6.224188 0-7.780235 4.7306872-7.983153 7.4342326h15.627765zm-15.627765 6.0824598c.270212 6.1507208 3.179389 8.8542661 8.591906 8.8542661 3.856471 0 6.968565-2.3653436 7.577318-4.527973h8.456282c-2.706259 8.3123159-8.456282 11.7594914-16.372141 11.7594914-11.027953 0-17.860894-7.5697201-17.860894-18.3828672 0-10.4759796 7.238776-18.4521623 17.860894-18.4521623 11.906918 0 17.725271 10.0033246 16.980894 20.749245h-25.234259zM439.622616 122.8049111h9.066071v4.7306872h.134588c2.503341-3.5816287 6.0896-5.6770315 10.689412-5.6770315 4.397929 0 8.321694 1.5544869 10.216282 5.8125191 2.097506-3.0417471 5.68273-5.8125191 10.553789-5.8125191 7.442729 0 12.786917 3.4471755 12.786917 12.5041557v23.3845294h-9.606494v-19.8029006c0-4.6634606-.405835-8.5160644-5.886682-8.5160644-5.412518 0-6.427106 4.527973-6.427106 8.8542661v19.4646989h-9.606494v-19.6001865c0-4.055318.270212-8.7187785-5.818353-8.7187785-1.894588 0-6.495435 1.2162851-6.495435 8.0434093v20.2755557h-9.606495v-34.9423408zM498.923953 157.7469417h9.606494v-34.9423409h-9.606494v34.9423409zm.001035-40.3494315h9.606494v-7.9079218h-9.606494v7.9079218zM524.563426 139.3636608l-11.501082-16.5584394h10.959623l6.156894 9.1242069 6.088565-9.1242069h10.622118l-11.501083 16.3557253 12.921506 18.5866155h-10.959623l-7.307106-11.0168955-7.306071 11.0168955h-10.757741M67.5865694 134.222374c0 4.4524723.872753 8.7715256 2.5934118 12.8351176 1.661647 3.9270703 4.0428235 7.4538834 7.0752 10.4832194.6656941.6650267 1.3552 1.2979914 2.0674823 1.8999284l.0124236-50.4437706c-.7164236.6040055-1.4111059 1.2390388-2.0799059 1.9071682-3.0323765 3.0293359-5.413553 6.5561491-7.0752 10.4832193-1.7206588 4.0635921-2.5934118 8.3826454-2.5934118 12.8351177" fill="#1D3649"/>
      <path d="M123.9379388 110.9042438c-3.0323764-3.029336-6.5627294-5.4070906-10.4937412-7.0681059-4.0676705-1.7189335-8.3900235-2.5908114-12.848-2.5908114-3.8875294 0-7.6725647.6629581-11.2753882 1.9733606L133.11168 128.487631c-.426541-2.4336045-1.127435-4.8072221-2.098541-7.1001678-1.6626825-3.9270703-4.0428237-7.4538834-7.0752002-10.4832194M85.2624565 105.010846c-.0082824.004137-.0155294.008274-.0238118.012411l16.0915765 27.8432073h32.2483768c-.014494-.3537156-.03313-.7053626-.059012-1.0559754l-47.2870589-27.2867775c-.3261177.1572069-.6501647.3195851-.9700706.4871346" fill="#00B29F"/>
      <path d="M133.579426 135.5622527v-.0010343h-32.2711531v-.004137l-16.0532705 27.874235.0031058.0010342c.3157647.165481.6336.3257907.9555765.4809291l47.3067293-27.2919488c.025882-.3516471.044518-.7053626.059012-1.0590782M113.4446118 164.6087135c3.9299764-1.6610153 7.4613647-4.0387699 10.4937411-7.0681059 3.0323765-3.029336 5.4125177-6.5561492 7.0752001-10.4832194.972141-2.2970827 1.674071-4.6758716 2.099576-7.1136131l-43.8095055 25.2761837c3.608 1.3145394 7.3992471 1.9795661 11.2929883 1.9795661 4.4569411 0 8.7803294-.8718779 12.848-2.5908114" fill="#5AAAFA"/>
      <path d="M98.9786541 134.2139965l.0020706-.0031028-.0031059.0020686-16.0429176-27.8576869c-.0031059.0020685-.0062118.004137-.0082824.0051713-.1138823.0723979-.9152.5998685-.9152.601937l-.0134588 54.5114997c.2929882.1996114.5890824.3950858.8882824.5853889l16.0926117-27.8452758z" fill="#1D3649"/>
      <path fill="#90908F" d="M101.3078588 135.5526341v.004137l.0020706-.0031027"/>
      <path d="M100.5965082 98.7016772c18.243953 0 33.2774588 13.7256121 35.3200938 31.4041508.056942.4933402.10353.9897831.139765 1.4893288.001035.004137.001035.0093083.001035.0134453l16.273789-28.1586554-17.000565-29.41527645h-34.0000942L84.9987671 102.2936484c.4979764-.2430501 1.0021647-.4757577 1.5136-.6960543 4.319247-1.8626951 9.0805647-2.8959169 14.0841411-2.8959169" fill="#00B29F"/>
      <path fill="#90908F" d="M85.7040094 167.2972621h.0010353l-.6449882-1.1159623-.0010353-.0010343"/>
      <path d="M136.062475 136.7639548v.004137c-.03727.5222993-.084894 1.0414959-.144941 1.5575897-2.035388 17.6847443-17.0730352 31.4175962-35.3211293 31.4175962-5.0097882 0-9.7773176-1.0352904-14.0996706-2.9031568-.4845176-.2089197-.9638588-.4292163-1.4369882-.6588211l16.304847 28.2124362h34.0000941l17.000565-29.415276-16.302777-28.2145052z" fill="#5AAAFA"/>
      <path d="M80.7291106 104.7597286h-32.728753l-17.00056466 29.4152765 17.00056466 29.4163107h32.5910589c-.0041412-.0031028-.0082824-.0062056-.0124236-.0082741-.4255058-.2906259-.8448-.5895259-1.256847-.8967-8.6705883-6.4785799-14.2818824-16.8159692-14.2818824-28.4637609 0-11.6539972 5.6175059-21.9965577 14.2953412-28.4741034.4565647-.3402703.9203765-.6701979 1.3935059-.9887488M548.880311 123.2355753h4.186729v.7818976h-1.644047v4.3852457h-.905882v-4.3852457h-1.6368M553.632104 123.2355753h1.275482l1.426635 4.0449755h.014494l1.3904-4.0449755h1.260989v5.1671433h-.8624v-3.9870571h-.014495l-1.433882 3.9870571h-.746447l-1.433882-3.9870571h-.014494v3.9870571h-.8624M286.150824 113.8341878h1.141929c.445176 0 .679153-.2109882.679153-.633999 0-.5119567-.329224-.606074-.690541-.606074h-1.130541v1.240073zm-.695718-1.8078796h1.898729c.873789 0 1.313789.4002571 1.313789 1.0735578 0 .7622467-.522824.9566868-.657412 1.0011599v.0113768c.240188.0279249.591153.2171937.591153.8398159 0 .4674837.066259.8842889.216376 1.0456329h-.745412c-.106635-.1716865-.106635-.3888803-.106635-.5833205 0-.7291505-.150118-1.0518384-.789929-1.0518384h-1.024941v1.6351589h-.695718v-3.9715433z" fill="#1D3649"/>
      <path d="M287.058052 110.5750401c-1.896659 0-3.440283 1.5420758-3.440283 3.4368329 0 1.8957913 1.543624 3.4378671 3.440283 3.4378671 1.896659 0 3.440282-1.5420758 3.440282-3.4378671 0-1.8947571-1.543623-3.4368329-3.440282-3.4368329m0 7.4218215c-2.2 0-3.988988-1.7871945-3.988988-3.9849886 0-2.1967599 1.788988-3.9849886 3.988988-3.9849886s3.988988 1.7882287 3.988988 3.9849886c0 2.1977941-1.788988 3.9849886-3.988988 3.9849886M182.505976 157.7831406h4.600848v-48.2573533h-4.600848" fill="#1D3649"/>
    </g>
  </g>
</svg>