<svg width="588" height="209" viewBox="0 0 588 209" xmlns="http://www.w3.org/2000/svg">
  <title>
    logo-exclusion-zone
  </title>
  <g fill="none" fill-rule="evenodd">
    <g fill="#1D3649">
      <path d="M191.89221535 81.18435687h4.34251497v46.10614523h-4.34251497M201.750898 81.18435687h19.4826347c7.7461078 0 14.788024 2.69832402 14.788024 11.26256983 0 4.8100559-3.2862276 9.2681564-7.9808384 10.3240224v.1173184c5.9856288.821229 9.7413174 5.2793296 9.7413174 11.2625698 0 4.3407821-1.5257485 13.1396648-16.548503 13.1396648H201.750898V81.18435687zm4.4598802 20.29608943h15.1401198c7.0419161 0 10.445509-3.5195531 10.445509-7.8603352 0-5.7486034-3.5209581-8.68156428-10.445509-8.68156428h-15.1401198v16.54189948zm0 22.1731843h15.1401198c6.5724551 0 12.205988-1.9944134 12.205988-9.5027933 0-5.9832402-4.342515-8.9162011-12.205988-8.9162011h-15.1401198v18.4189944zM242.1245507 81.18435687h6.4550898l15.9616766 40.47486033 15.9616767-40.47486033h6.4550898v46.10614523h-4.342515V87.40223397h-.1173652l-15.7269461 39.88826813h-4.1077845l-15.8443113-39.88826813h-.3520959v39.88826813h-4.3425149M306.205988 81.18435687h21.712575c8.802395 0 14.788024 2.81564246 14.788024 11.49720673 0 4.575419-2.229941 7.6256983-6.22036 9.6201117 5.633533 1.6424581 8.4503 5.9832402 8.4503 11.7318436 0 9.3854748-7.980839 13.3743017-16.313773 13.3743017h-22.416766V81.18435687zm10.210778 18.65363133h10.328144c3.638323 0 6.220359-1.6424581 6.220359-5.5139665 0-4.34078215-3.403593-5.27932963-7.041916-5.27932963h-9.506587V99.8379882zm0 19.5921787h10.91497c3.990419 0 7.511378-1.2905028 7.511378-6.1005586 0-4.6927375-2.934132-6.5698324-7.276647-6.5698324h-11.032335v12.670391h-.117366zM349.396407 81.18435687h9.154491v46.10614523h-9.154491M395.286227 127.2905021h-8.68503v-4.6927374h-.23473c-2.347306 3.8715084-6.337725 5.5139665-10.210779 5.5139665-9.741317 0-12.205988-5.5139665-12.205988-13.726257V93.8547479h9.154491v18.8882682c0 5.5139665 1.525749 8.2122905 5.868264 8.2122905 4.929341 0 7.159281-2.8156425 7.159281-9.6201117v-17.480447h9.154491v33.4357542zM408.783233 112.8603345c.234731 5.8659218 3.051497 8.4469274 8.215569 8.4469274 3.638324 0 6.689821-2.2290503 7.276647-4.3407821h8.098203c-2.582035 7.9776536-8.098203 11.2625698-15.60958 11.2625698-10.562875 0-17.017964-7.273743-17.017964-17.5977654 0-9.972067 6.92455-17.5977653 17.017964-17.5977653 11.384431 0 16.900598 9.6201117 16.196407 19.8268156h-24.177246zm15.022755-5.8659218c-.821557-4.6927374-2.816767-7.1564245-7.276647-7.1564245-5.985629 0-7.394012 4.575419-7.628742 7.1564245h14.905389zM437.65509 93.8547479h8.68503v4.575419h.117365c2.347305-3.4022346 5.868263-5.396648 10.210778-5.396648 4.22515 0 7.980839 1.5251396 9.741318 5.5139665 1.995209-2.9329609 5.398802-5.5139665 10.093413-5.5139665 7.159281 0 12.205988 3.2849162 12.205988 11.9664804v22.4078213h-9.154491V108.402234c0-4.4581006-.352096-8.0949721-5.633533-8.0949721-5.164072 0-6.102994 4.3407821-6.102994 8.4469274v18.6536313h-9.154491v-18.7709498c0-3.8715083.23473-8.3296089-5.516168-8.3296089-1.760479 0-6.220359 1.1731844-6.220359 7.7430168v19.3575419h-9.154491V93.8547479h-.117365zM503.614371 88.69273676h-9.154491v-7.5083799h9.154491v7.5083799zm-9.271856 5.16201114h9.154491v33.4357542h-9.154491V93.8547479zM518.871856 109.6927368l-10.91497-15.8379889h10.445509l5.868263 8.6815643 5.868264-8.6815643H540.3497l-11.032335 15.603352 12.323353 17.8324022h-10.445509l-7.041916-10.5586592-7.041916 10.5586592h-10.328144"/>
    </g>
    <path d="M82.0383236 104.8826813c0 4.2234636.8215569 8.4469273 2.4646706 12.3184357 1.6431138 3.75419 3.8730539 7.1564246 6.8071857 9.9720671.5868263.5865921 1.2910179 1.2905027 1.9952095 1.7597765V80.7150835c-.7041916.5865922-1.2910179 1.1731844-1.9952095 1.877095-2.9341318 2.9329609-5.1640719 6.2178771-6.8071857 9.972067-1.5257485 3.8715084-2.4646706 7.9776536-2.4646706 12.3184358z" fill="#1D3649"/>
    <path d="M135.9089823 82.47486c-2.9341318-2.9329609-6.2203593-5.1620111-9.976048-6.8044692-3.8730538-1.6424581-7.9808383-2.4636872-12.3233532-2.4636872-3.7556887 0-7.2766468.5865922-10.7976048 1.877095l41.8994012 24.1675977c-.3520958-2.3463687-1.0562875-4.5754189-1.9952096-6.8044692-1.5257485-3.6368715-3.8730539-7.0391062-6.8071856-9.9720671zM98.9389224 76.8435751l15.3748503 26.6312849h30.8670658v-1.0558659l-45.302994-26.0446927c-.2347305.2346368-.5868263.3519553-.9389221.4692737z" fill="#00B29F"/>
    <path d="M145.1808385 106.0558656h-30.8670658l-15.3748503 26.6312849c.3520958.1173185.5868263.3519553.9389221.4692738l45.1856288-26.0446928c.1173652-.3519553.1173652-.7039106.1173652-1.0558659zM125.9329343 133.8603349c3.7556887-1.6424581 7.1592815-3.8715084 9.976048-6.8044693 2.9341317-2.9329609 5.1640718-6.2178771 6.8071856-9.972067.9389221-2.2290503 1.6431138-4.4581006 1.9952096-6.8044693l-41.8994012 24.1675978c3.4035928 1.2905028 7.0419161 1.8770949 10.7976048 1.8770949 4.3425149 0 8.4502994-.821229 12.3233532-2.4636871z" fill="#5AAAFA"/>
    <path d="M112.0838326 104.7653628L96.7089823 78.1340779c-.1173653.1173184-.8215569.5865922-.8215569.5865922v52.0893855c.2347305.2346368.5868263.3519553.8215569.5865921l15.3748503-26.6312849z" fill="#1D3649"/>
    <path d="M113.6095811 70.8603349c17.4874251 0 31.805988 13.1396648 33.8011979 30.0335195 0 .4692738.117365.9385475.117365 1.4078213l15.609581-26.9832402-16.1964074-28.15642463h-32.6275449L98.7041918 74.1452511c.4694611-.2346369.9389222-.4692737 1.4083833-.7039106 4.2251497-1.6424581 8.8023952-2.5810056 13.497006-2.5810056z" fill="#00B29F"/>
    <path fill="#90908F" d="M98.9389224 135.2681561h.11736527v1.2905028h-.11736527z"/>
    <path d="M147.528144 107.22905c0 .4692737-.117365 1.0558659-.117365 1.5251396-1.9952099 16.8938548-16.3137728 30.0335196-33.8011979 30.0335196-4.8119761 0-9.3892216-.9385475-13.497006-2.8156425-.4694611-.2346368-.9389222-.3519553-1.4083833-.5865921l15.6095809 26.9832404h32.5101796l16.1964067-28.1564248-15.492215-26.9832402z" fill="#5AAAFA"/>
    <path d="M94.7137727 76.6089382h-31.336527l-16.19640716 28.1564246 16.19640716 28.1564246h31.1017964c-.3520958-.2346369-.8215569-.5865922-1.1736527-.821229-8.3329341-6.2178771-13.6143712-16.0726257-13.6143712-27.2178771s5.3988024-21 13.6143712-27.2178771c.4694611-.3519553.9389222-.7039106 1.4083833-1.055866z" fill="#1D3649"/>
    <g>
      <g stroke="#F0F">
        <path d="M120.0646708 207.536312l.23473055-.586592"/>
        <path d="M120.8862277 206.011173L237.547306 2.93296054" stroke-dasharray="1.0001,1.0001"/>
        <path d="M237.782036 2.4636868l.352096-.46927375M119.24311392 1.99441305l.23473054.46927374"/>
        <path d="M120.0646708 3.51955272L239.190419 206.480447" stroke-dasharray="0.9954,0.9954"/>
        <path d="M239.542515 206.94972l.234731.469274"/>
      </g>
      <path d="M274.634731 1.05586592h19.482634c7.746108 0 14.788024 2.69832402 14.788024 11.26256988 0 4.8100558-3.286227 9.2681564-7.980838 10.3240223v.1173184c5.985629.8212291 9.741317 5.2793296 9.741317 11.2625699 0 4.3407821-1.525748 13.1396648-16.548503 13.1396648h-19.482634V1.05586592zm4.342515 20.29608938h15.140119c7.041916 0 10.445509-3.5195531 10.445509-7.8603352 0-5.74860334-3.520958-8.68156423-10.445509-8.68156423h-15.140119V21.3519553zm0 22.1731844h15.140119c6.572455 0 12.205988-1.9944134 12.205988-9.5027933 0-5.9832403-4.342515-8.9162011-12.205988-8.9162011h-15.140119v18.4189944zM.93892216 122.363128V102.77095c0-7.743017 2.6994012-14.7821232 11.38443114-14.7821232 4.811976 0 9.2718563 3.2849162 10.3281437 7.9776536h.1173653c.8215569-5.9832402 5.2814371-9.7374301 11.2670658-9.7374301 4.342515 0 13.1449102 1.5251396 13.1449102 16.5418997v19.47486H.93892216v.117318zm20.30419164-4.4581V102.77095c0-7.0391064-3.5209581-10.4413411-7.8634731-10.4413411-5.7508982 0-8.68502992 3.5195531-8.68502992 10.4413411v15.134078H21.2431138zm22.1820359 0V102.77095c0-6.5698327-1.9952096-12.2011176-9.5065868-12.2011176-5.9856288 0-8.9197605 4.3407821-8.9197605 12.2011176v15.134078h18.4263473zM274.634731 162.368715h19.482634c7.746108 0 14.788024 2.698324 14.788024 11.26257 0 4.810056-3.286227 9.268156-7.980838 10.324022v.117319c5.985629.821229 9.741317 5.279329 9.741317 11.26257 0 4.340782-1.525748 13.139664-16.548503 13.139664h-19.482634v-46.106145zm4.342515 20.296089h15.140119c7.041916 0 10.445509-3.519553 10.445509-7.860335 0-5.748603-3.520958-8.681564-10.445509-8.681564h-15.140119v16.541899zm0 22.173185h15.140119c6.572455 0 12.205988-1.994414 12.205988-9.502793 0-5.983241-4.342515-8.916202-12.205988-8.916202h-15.140119v18.418995z" fill="#F0F" opacity=".25"/>
      <path fill="#F0F" opacity=".1" d="M.93892216 1.05586592h586.826347v46.1061453H.93892216zM.93892216 162.368715h586.826347v46.1061453H.93892216z"/>
      <path fill="#F0F" opacity=".1" d="M.93892216 1.05586592h46.1245509v207.536313H.93892216z"/>
      <path d="M541.640719 122.363128V102.77095c0-7.743017 2.699401-14.7821232 11.267065-14.7821232 4.811976 0 9.271857 3.2849162 10.328144 7.9776536h.117365c.821557-5.9832402 5.281438-9.7374301 11.267066-9.7374301 4.342515 0 13.14491 1.5251396 13.14491 16.5418997v19.47486h-46.12455v.117318zm20.186826-4.4581V102.77095c0-7.0391064-3.520958-10.4413411-7.863473-10.4413411-5.750898 0-8.68503 3.5195531-8.68503 10.4413411v15.134078h16.548503zm22.182036 0V102.77095c0-6.5698327-1.99521-12.2011176-9.506587-12.2011176-5.985629 0-8.91976 4.3407821-8.91976 12.2011176v15.134078h18.426347z" fill="#F0F" opacity=".25"/>
      <path fill="#F0F" opacity=".1" d="M541.640719.9385475h46.1245509v207.536313H541.640719z"/>
    </g>
  </g>
</svg>