<svg width="199" height="47" viewBox="0 0 199 47" xmlns="http://www.w3.org/2000/svg">
  <title>
    logo-misusage-01
  </title>
  <g fill="none" fill-rule="evenodd">
    <g fill="#1D3649">
      <path d="M58.67569372 13.7457046h1.77805132v18.5327657H58.6756937M62.6421159 13.7457046h7.7960712c3.1457831 0 5.9496333 1.09418542 5.9496333 4.5135149 0 1.9148245-1.2993452 3.7612624-3.2141697 4.17158194v.0683866c2.3935306.34193294 3.8980356 2.11998426 3.8980356 4.51351486 0 1.7780514-.6154793 5.2657674-6.6334992 5.2657674h-7.7960712V13.7457046zm1.70966473 8.13800413h6.08640647c2.8038502 0 4.1715819-1.3677318 4.1715819-3.14578312 0-2.32514402-1.3677317-3.48771604-4.1715819-3.48771604h-6.08640647v6.63349917zm0 8.89025657h6.08640647c2.5986904 0 4.8554478-.820639 4.8554478-3.829649 0-2.3935306-1.7780513-3.5561026-4.8554478-3.5561026h-6.08640647v7.3857516zM78.781351 13.7457046h2.5986904l6.4283394 16.2760083 6.3599528-16.2760083h2.5986904v18.5327657h-1.7780513V16.2760084h-.0683866l-6.3599528 16.0024619h-1.6412782l-6.3599528-16.0024619h-.0683866v16.0024619h-1.7780513V13.7457046M104.5630952 13.7457046h8.7534834c3.5561027 0 5.9496333 1.162572 5.9496333 4.58190148 0 1.8464379-.8890256 3.07739652-2.5303038 3.8980356 2.2567575.6154793 3.4193295 2.39353062 3.4193295 4.71867462 0 3.7612625-3.2141697 5.4025406-6.5651126 5.4025406h-8.9586432V13.7457046h-.0683866zm4.0348088 7.52252482h4.1031953c1.4361184 0 2.4619173-.6154793 2.4619173-2.18837086 0-1.70966473-1.3677318-2.11998427-2.8038502-2.11998427h-3.829649v4.30835512h.0683866zm0 7.86445778h4.3767417c1.5728915 0 3.0090099-.5470927 3.0090099-2.4619172s-1.162572-2.667077-2.9406233-2.667077h-4.4451283v5.1289942zM121.8649023 13.7457046h3.6928758v18.5327657h-3.6928758M140.3292814 32.2784703h-3.5561026v-1.8464379h-.0683866c-.9574122 1.504505-2.5303038 2.2567575-4.1031954 2.2567575-3.8980355 0-4.9238344-2.1883709-4.9238344-5.5393138v-8.2747773h3.6928758v7.5909114c0 2.1883709.6154793 3.2825563 2.3935307 3.2825563 1.9832111 0 2.8722367-1.0941854 2.8722367-3.829649v-7.0438187h3.6928758v13.4037715zM145.731822 26.4656102c.1367732 2.3935306 1.2309586 3.4193295 3.2825563 3.4193295 1.504505 0 2.667077-.8890257 2.9406233-1.7096647h3.2141697c-1.0257988 3.2141697-3.2141697 4.5135149-6.2915662 4.5135149-4.2399685 0-6.8386589-2.9406234-6.8386589-7.0438188 0-4.03480873 2.8038501-7.11220525 6.8386589-7.11220525 4.5819015 0 6.7702724 3.829649 6.496726 8.00123095h-9.6425091v-.0683866zm5.9496333-2.325144c-.341933-1.84643794-1.162572-2.87223678-2.9406234-2.87223678-2.3935306 0-3.0090099 1.84643792-3.0773965 2.87223678h6.0180199zM183.754766 16.75471452h-3.692876V13.7457046h3.692876v3.00900992zm-3.692876 2.11998427h3.692876v13.4037715h-3.692876V18.8746988zM189.909559 25.2346516l-4.445129-6.3599528h4.171582l2.393531 3.48771605 2.325144-3.48771606h4.103195l-4.445128 6.2915662 4.923835 7.1122053h-4.171582l-2.803851-4.2399685-2.80385 4.2399685h-4.103195"/>
    </g>
    <path d="M14.5663435 23.2514404c0 1.7096647.341933 3.3509429 1.0257989 4.9238344.6154793 1.504505 1.5728915 2.8722368 2.7354636 4.0348088.2735463.2735464.5470927.4787061.820639.7522525V13.6089313c-.2735463.2051598-.5470927.4787061-.820639.7522525-1.1625721 1.162572-2.0515977 2.5303038-2.7354636 4.0348087-.6838659 1.504505-1.0257989 3.1457832-1.0257989 4.8554479z" fill="#1D3649"/>
    <path d="M36.1765058 14.2927972c-1.162572-1.162572-2.5303038-2.0515977-4.0348088-2.7354636-1.5728915-.6838659-3.2141697-1.0257988-4.9238344-1.0257988-1.504505 0-2.9406234.2735463-4.3083552.7522524l16.7547144 9.7792823c-.1367731-.9574122-.4103195-1.8464379-.820639-2.7354635-.6154793-1.504505-1.504505-2.8722368-2.667077-4.0348088zM21.3366159 12.0360397l6.154793 10.668308h12.3779727v-.4103196L21.6785488 11.83088c-.0683866.0683866-.2051597.1367731-.3419329.2051597z" fill="#00B29F"/>
    <path d="M39.8693816 23.7301465H27.4914089l-6.154793 10.7366946c.1367732.0683865.2735463.1367731.3419329.2051597L39.800995 24.2088526c.0683866-.2051597.0683866-.3419329.0683866-.4787061zM32.141697 34.8771606c1.504505-.6154793 2.8722368-1.5728916 4.0348088-2.7354636 1.162572-1.162572 2.0515977-2.5303038 2.7354636-4.0348088.3419329-.8890256.6154793-1.7780513.820639-2.7354635l-16.823101 9.7792822c1.3677318.4787062 2.8722368.7522525 4.3083552.7522525 1.7096647 0 3.3509429-.3419329 4.9238344-1.0257988z" fill="#5AAAFA"/>
    <path d="M26.6023833 23.2514404l-6.1547931-10.668308c-.0683866 0-.3419329.2051598-.3419329.2051598v20.9262964c.1367732.0683866.2051597.1367731.3419329.2051597l6.1547931-10.6683079z" fill="#1D3649"/>
    <path d="M27.2178626 9.5741225c6.9754321 0 12.7882922 5.2657674 13.5405447 12.0360397 0 .2051598.0683866.4103196.0683866.5470928l6.2231796-10.8050812L40.5532475.13677318H27.4914089L21.1998427 11.0102409c.2051598-.0683866.4103195-.2051598.5470927-.2735464 1.7096648-.75225245 3.5561027-1.162572 5.4709272-1.162572z" fill="#00B29F"/>
    <path fill="#90908F" d="M21.3366159 35.4926399h.1v.47870613h-.1z"/>
    <path d="M40.8267939 24.2088526c0 .2051598 0 .4103196-.0683866.6154793-.7522525 6.7702724-6.5651126 12.0360398-13.5405447 12.0360398-1.9148245 0-3.7612624-.4103196-5.4025406-1.0941854-.2051598-.0683866-.3419329-.1367732-.5470927-.2735464l6.2231796 10.8050811h13.0618386l6.496726-11.2837872-6.2231796-10.8050812z" fill="#5AAAFA"/>
    <path d="M19.6269512 11.8992666H7.0438187L.5470927 23.2514404l6.496726 11.2837872h12.5147459c-.1367732-.1367731-.341933-.2051597-.4787062-.3419329-3.3509428-2.4619172-5.4709271-6.4283394-5.4709271-10.9418543 0-4.4451283 2.1883708-8.4799371 5.4709271-10.9418543.1367732-.1367732.341933-.2735464.5470928-.4103195zM157.631089 13.7457045h5.744473l4.308355 12.7882922h.068387l4.103195-12.7882922h5.744474v18.5327657h-3.829649V19.148245h-.068387l-4.513515 13.1302252h-3.145783l-4.513515-12.993452h-.068386v12.993452h-3.829649V13.7457045" fill="#1D3649"/>
  </g>
</svg>