<svg width="200" height="68" viewBox="0 0 200 68" xmlns="http://www.w3.org/2000/svg">
  <title>
    logo-misusage-04
  </title>
  <g fill="none" fill-rule="evenodd">
    <g fill="#1D3649">
      <path d="M58.96907218 20h1.78694158v27.1h-1.78694158M62.95532647 20H70.790378c3.161512 0 5.9793815 1.6 5.9793815 6.6 0 2.8-1.305842 5.5-3.2302406 6.1v.1c2.4054983.5 3.9175258 3.1 3.9175258 6.6 0 2.6-.6185567 7.7-6.6666667 7.7h-7.83505153V20zm1.71821306 11.9H70.790378c2.8178694 0 4.1924399-2 4.1924399-4.6 0-3.4-1.3745705-5.1-4.1924399-5.1h-6.11683847v9.7zm0 13H70.790378c2.6116839 0 4.8797251-1.2 4.8797251-5.6 0-3.5-1.7869416-5.2-4.8797251-5.2h-6.11683847v10.8zM79.1752577 20h2.6116839l6.4604811 23.8L94.6391753 20h2.6116838v27.1h-1.7869416V23.7h-.0687285l-6.3917526 23.4h-1.6494845l-6.3917526-23.4h-.0687285v23.4h-1.7869416V20M105.0859107 20h8.7972508c3.5738832 0 5.9793815 1.7 5.9793815 6.7 0 2.7-.8934708 4.5-2.5429554 5.7 2.2680413.9 3.4364262 3.5 3.4364262 6.9 0 5.5-3.2302406 7.9-6.5979382 7.9h-9.0034364V20h-.0687285zm4.0549828 11h4.1237113c1.443299 0 2.4742268-.9 2.4742268-3.2 0-2.5-1.3745704-3.1-2.8178694-3.1h-3.8487972V31h.0687285zm0 11.5h4.3986254c1.580756 0 3.024055-.8 3.024055-3.6s-1.1683849-3.9-2.9553265-3.9h-4.4673539v7.5zM122.4742268 20h3.7113402v27.1h-3.7113402M141.0309278 47.1h-3.5738831v-2.7h-.0687285c-.9621993 2.2-2.5429554 3.3-4.1237114 3.3-3.9175257 0-4.9484536-3.2-4.9484536-8.1V27.5h3.7113402v11.1c0 3.2.6185567 4.8 2.4054983 4.8 1.9931272 0 2.8865979-1.6 2.8865979-5.6V27.5h3.7113402v19.6zM146.4604811 38.6c.1374571 3.5 1.2371134 5 3.2989691 5 1.5120275 0 2.6804124-1.3 2.9553264-2.5h3.2302406c-1.0309278 4.7-3.2302406 6.6-6.3230241 6.6-4.2611683 0-6.8728522-4.3-6.8728522-10.3 0-5.9 2.8178694-10.4 6.8728522-10.4 4.604811 0 6.8041238 5.6 6.5292097 11.7h-9.6907217v-.1zm5.9793815-3.4c-.3436427-2.7-1.1683849-4.2-2.9553265-4.2-2.4054983 0-3.024055 2.7-3.0927835 4.2h6.04811zM158.0756014 27.5h3.5051546v2.7h.068729c.962199-2 2.336769-3.2 4.123711-3.2 1.718213 0 3.23024.9 3.917526 3.3.824742-1.7 2.199312-3.3 4.054982-3.3 2.886598 0 4.948454 1.9 4.948454 7v13.1h-3.71134V36c0-2.6-.137457-4.8-2.268041-4.8-2.061856 0-2.474227 2.5-2.474227 5v10.9h-3.71134v-11c0-2.3.137457-4.9-2.268042-4.9-.756013 0-2.474226.7-2.474226 4.5v11.4h-3.7113406V27.5zM184.67354 24.4h-3.711341V20h3.711341v4.4zm-3.711341 3.1h3.711341v19.6h-3.711341V27.5zM190.859107 36.8l-4.467354-9.3h4.192439l2.405499 5.1 2.336769-5.1h4.123712l-4.467354 9.2 4.948453 10.4h-4.192439l-2.81787-6.2-2.817869 6.2h-4.123712"/>
    </g>
    <path d="M14.6391753 33.9c0 2.5.3436426 4.9 1.0309278 7.2.6185567 2.2 1.580756 4.2 2.7491409 5.9.2749141.4.5498282.7.8247423 1.1V19.8c-.2749141.3-.5498282.7-.8247423 1.1-1.1683849 1.7-2.0618557 3.7-2.7491409 5.9-.6872852 2.1-1.0309278 4.6-1.0309278 7.1z" fill="#1D3649"/>
    <path d="M36.3573883 20.8c-1.1683849-1.7-2.5429553-3-4.0549828-4-1.580756-1-3.2302406-1.5-4.9484536-1.5-1.5120275 0-2.9553265.4-4.3298969 1.1l16.838488 14.3c-.1374571-1.4-.4123712-2.7-.8247423-4-.6185567-2.2-1.5120275-4.2-2.6804124-5.9zM21.443299 17.5l6.185567 15.6h12.4398625v-.6L21.7869416 17.2c-.0687285.1-.2061856.2-.3436426.3z" fill="#00B29F"/>
    <path d="M40.0687285 34.6H27.628866l-6.185567 15.7c.137457.1.2749141.2.3436426.3L40 35.3c.0687285-.3.0687285-.5.0687285-.7zM32.3024055 50.9c1.5120275-.9 2.8865979-2.3 4.0549828-4 1.1683849-1.7 2.0618557-3.7 2.7491409-5.9.3436426-1.3.6185567-2.6.8247423-4L23.024055 51.3c1.3745704.7 2.8865979 1.1 4.3298969 1.1 1.718213 0 3.3676976-.5 4.9484536-1.5z" fill="#5AAAFA"/>
    <path d="M26.7353952 33.9l-6.185567-15.6c-.0687285 0-.3436426.3-.3436426.3v30.6c.137457.1.2061855.2.3436426.3l6.185567-15.6z" fill="#1D3649"/>
    <path d="M27.3539519 13.9c7.0103093 0 12.8522337 7.7 13.6082474 17.6 0 .3.0687285.6.0687285.8l6.2542956-15.8L40.7560137.1H27.628866L21.3058419 16c.2061856-.1.4123712-.3.5498282-.4 1.7182131-1.1 3.5738832-1.7 5.4982818-1.7z" fill="#00B29F"/>
    <path fill="#90908F" d="M21.443299 51.8h.1v.7h-.1z"/>
    <path d="M41.0309278 35.3c0 .3 0 .6-.0687285.9-.7560137 9.9-6.5979381 17.6-13.6082474 17.6-1.9243986 0-3.7800687-.6-5.4295533-1.6-.2061855-.1-.3436426-.2-.5498282-.4l6.2542956 15.8h13.1271477l6.5292097-16.5-6.2542956-15.8z" fill="#5AAAFA"/>
    <path d="M19.7250859 17.3H7.0790378L.54982818 33.8 7.0790378 50.3h12.5773196c-.1374571-.2-.3436426-.3-.4810997-.5-3.3676976-3.6-5.4982818-9.4-5.4982818-16 0-6.5 2.1993128-12.4 5.4982818-16 .1374571-.1.3436426-.3.5498282-.5z" fill="#1D3649"/>
  </g>
</svg>