<svg width="199" height="47" viewBox="0 0 199 47" xmlns="http://www.w3.org/2000/svg"><title>logo-misusage-01</title><g fill="none" fill-rule="evenodd"><path d="M58.676 13.746h1.778v18.532h-1.778m3.966-18.532h7.796c3.146 0 5.95 1.094 5.95 4.513 0 1.915-1.3 3.761-3.214 4.172v.068c2.393.342 3.898 2.12 3.898 4.514 0 1.778-.616 5.265-6.634 5.265h-7.796V13.746zm1.71 8.138h6.086c2.804 0 4.172-1.368 4.172-3.146 0-2.325-1.368-3.488-4.172-3.488h-6.086v6.634zm0 8.89h6.086c2.599 0 4.856-.82 4.856-3.83 0-2.393-1.778-3.556-4.856-3.556h-6.086v7.386zm14.43-17.028h2.598l6.428 16.276 6.36-16.276h2.599v18.532h-1.778V16.276h-.068l-6.36 16.002h-1.642l-6.36-16.002h-.068v16.002h-1.778V13.746m25.85 0h8.754c3.556 0 5.95 1.162 5.95 4.582 0 1.846-.89 3.077-2.531 3.898 2.257.615 3.42 2.393 3.42 4.718 0 3.762-3.215 5.403-6.566 5.403h-8.959V13.746h-.068zm4.035 7.522h4.103c1.436 0 2.462-.615 2.462-2.188 0-1.71-1.368-2.12-2.804-2.12h-3.83v4.308h.069zm0 7.865h4.377c1.573 0 3.009-.547 3.009-2.462s-1.163-2.667-2.941-2.667h-4.445v5.129zm13.267-15.387h3.693v18.532h-3.693m18.464 0h-3.556v-1.846h-.068a4.826 4.826 0 0 1-4.103 2.257c-3.898 0-4.924-2.189-4.924-5.54v-8.274h3.693v7.59c0 2.189.615 3.283 2.393 3.283 1.983 0 2.872-1.094 2.872-3.83v-7.043h3.693v13.403zm5.403-5.812c.137 2.393 1.23 3.419 3.282 3.419 1.505 0 2.667-.89 2.941-1.71h3.214c-1.026 3.214-3.214 4.514-6.291 4.514-4.24 0-6.84-2.94-6.84-7.044 0-4.035 2.805-7.112 6.84-7.112 4.582 0 6.77 3.83 6.496 8.001h-9.642v-.068zm5.95-2.326c-.342-1.846-1.163-2.872-2.941-2.872-2.394 0-3.01 1.847-3.078 2.872h6.018zm32.073-7.385h-3.693v-3.01h3.693v3.01zm-3.693 2.12h3.693v13.403h-3.693V18.875zm9.848 6.36l-4.446-6.36h4.172l2.394 3.487 2.325-3.487h4.103l-4.445 6.291 4.924 7.112h-4.172l-2.804-4.24-2.804 4.24h-4.103M14.566 23.251c0 1.71.342 3.351 1.026 4.924.616 1.505 1.573 2.873 2.736 4.035.273.274.547.479.82.752V13.61c-.273.205-.547.479-.82.752-1.163 1.163-2.052 2.53-2.736 4.035-.684 1.504-1.026 3.146-1.026 4.855z" fill="#1D3649"/><path d="M36.177 14.293c-1.163-1.163-2.53-2.052-4.035-2.736a12.222 12.222 0 0 0-4.924-1.025c-1.505 0-2.94.273-4.308.752l16.754 9.78a9.705 9.705 0 0 0-.82-2.736 12.211 12.211 0 0 0-2.667-4.035zm-14.84-2.257l6.154 10.668H39.87v-.41L21.68 11.831c-.069.068-.206.137-.342.205z" fill="#00B29F"/><path d="M39.87 23.73H27.49l-6.154 10.737c.136.068.273.137.342.205L39.8 24.209c.068-.205.068-.342.068-.479zm-7.728 11.147c1.504-.615 2.872-1.573 4.035-2.735 1.162-1.163 2.051-2.53 2.735-4.035.342-.89.615-1.778.82-2.736l-16.822 9.78c1.367.478 2.872.752 4.308.752 1.71 0 3.35-.342 4.924-1.026z" fill="#5AAAFA"/><path d="M26.602 23.251l-6.154-10.668c-.069 0-.342.205-.342.205v20.927c.136.068.205.136.342.205l6.154-10.669z" fill="#1D3649"/><path d="M27.218 9.574c6.975 0 12.788 5.266 13.54 12.036 0 .205.069.41.069.547l6.223-10.805L40.553.137H27.491L21.2 11.01c.205-.068.41-.205.547-.273a13.54 13.54 0 0 1 5.47-1.163z" fill="#00B29F"/><path fill="#90908F" d="M21.337 35.493h.1v.478h-.1z"/><path d="M40.827 24.209c0 .205 0 .41-.069.615-.752 6.77-6.565 12.036-13.54 12.036a14.11 14.11 0 0 1-5.403-1.094 2.048 2.048 0 0 1-.547-.273l6.223 10.805h13.062l6.497-11.284-6.223-10.805z" fill="#5AAAFA"/><path d="M19.627 11.9H7.044L.547 23.25l6.497 11.284h12.515c-.137-.137-.342-.205-.48-.342-3.35-2.462-5.47-6.428-5.47-10.942 0-4.445 2.188-8.48 5.47-10.941.138-.137.343-.274.548-.41zm138.004 1.846h5.745l4.308 12.788h.068l4.103-12.788h5.745v18.532h-3.83v-13.13h-.068l-4.514 13.13h-3.145l-4.514-12.993h-.068v12.993h-3.83V13.746" fill="#1D3649"/></g></svg>