<svg width="590" height="269" viewBox="0 0 590 269" xmlns="http://www.w3.org/2000/svg">
  <title>
    Logo-Spec_dark
  </title>
  <g fill="none" fill-rule="evenodd">
    <path fill="#1D3649" d="M0 0h590v269H0z"/>
    <path d="M31.44889267 42.5020492H152.649915M31.44889267 39.5020492v6M152.649915 39.5020492v6M183.174617 42.5020492h374.764888M183.174617 39.5020492v6M557.939505 39.5020492v6M31.3723519 224.702869H557.939505M31.3723519 221.702869v6M557.939505 221.702869v6" stroke="#FF71D4" stroke-linecap="square"/>
    <path d="M83.9378671 34h1.14v-8.568h-1.14V34zm7.98-4.212c-.156-1.476-1.26-2.136-2.676-2.136-1.968 0-2.928 1.464-2.928 3.324 0 1.86 1.008 3.168 2.904 3.168 1.572 0 2.508-.888 2.736-2.412h-1.044c-.132.948-.708 1.512-1.704 1.512-1.296 0-1.812-1.116-1.812-2.268 0-1.248.456-2.424 1.932-2.424.852 0 1.38.456 1.536 1.236h1.056zm1.86 1.116c0-1.5.864-2.352 1.932-2.352s1.932.852 1.932 2.352-.864 2.34-1.932 2.34-1.932-.84-1.932-2.34zm-1.08 0c0 1.812 1.044 3.24 3.012 3.24s3.012-1.428 3.012-3.24c0-1.824-1.044-3.252-3.012-3.252s-3.012 1.428-3.012 3.252zm7.032 3.096h1.02v-3.504c0-1.116.6-1.944 1.836-1.944.78 0 1.26.48 1.26 1.248V34h1.02v-4.08c0-1.332-.504-2.268-2.136-2.268-.9 0-1.584.36-2.016 1.128h-.024v-.984h-.96V34zM362.061329 25.432h-1.14l-1.74 7.128h-.024l-1.896-7.128h-1.236l-1.92 7.128h-.024l-1.68-7.128h-1.164l2.196 8.568h1.188l1.98-7.2h.024l1.956 7.2h1.188l2.292-8.568zm1.464 5.472c0-1.5.864-2.352 1.932-2.352s1.932.852 1.932 2.352-.864 2.34-1.932 2.34-1.932-.84-1.932-2.34zm-1.08 0c0 1.812 1.044 3.24 3.012 3.24s3.012-1.428 3.012-3.24c0-1.824-1.044-3.252-3.012-3.252s-3.012 1.428-3.012 3.252zm7.032 3.096h1.02v-2.76c0-1.584.6-2.508 2.244-2.508v-1.08c-1.104-.036-1.788.444-2.28 1.452h-.024v-1.308h-.96V34zm4.692-3.048c0-1.212.468-2.4 1.86-2.4 1.404 0 1.956 1.14 1.956 2.352 0 1.152-.516 2.34-1.896 2.34-1.32 0-1.92-1.128-1.92-2.292zm4.8-5.52h-1.02v3.192h-.024c-.444-.732-1.38-.972-2.004-.972-1.896 0-2.832 1.476-2.832 3.228 0 1.752.948 3.264 2.856 3.264.864 0 1.644-.3 1.98-.984h.024V34h1.02v-8.568zm1.308 8.568h1.02v-3.864c0-.48.456-1.584 1.656-1.584.912 0 1.164.576 1.164 1.38V34h1.02v-3.864c0-.96.624-1.584 1.62-1.584.996 0 1.2.612 1.2 1.38V34h1.02v-4.548c0-1.284-.828-1.8-2.064-1.8-.804 0-1.524.384-1.944 1.056-.252-.768-.936-1.056-1.704-1.056-.876 0-1.536.348-2.004 1.056h-.024v-.912h-.96V34zm15.528-.816c-.108.036-.216.06-.312.06-.324 0-.324-.216-.324-.696v-3.192c0-1.452-1.212-1.704-2.328-1.704-1.392 0-2.568.54-2.628 2.076h1.02c.048-.912.684-1.176 1.548-1.176.636 0 1.38.132 1.38 1.032 0 .78-.972.684-2.088.912-1.056.192-2.1.504-2.1 1.908 0 1.248.924 1.74 2.052 1.74.864 0 1.62-.288 2.184-.96 0 .672.336.96.864.96.3 0 .552-.06.732-.168v-.792zm-1.656-1.344c0 .576-.552 1.404-1.896 1.404-.624 0-1.2-.24-1.2-.912 0-1.524 2.304-.948 3.096-1.536v1.044zm2.484 2.16h1.02v-2.76c0-1.584.6-2.508 2.244-2.508v-1.08c-1.104-.036-1.788.444-2.28 1.452h-.024v-1.308h-.96V34zm3.948 0h1.02v-2.352l.96-.888 2.124 3.24h1.296l-2.64-3.948 2.46-2.256h-1.368l-2.832 2.712v-5.076h-1.02V34zM289.505949 242.229508h5.676v-.96h-4.536v-7.608h-1.14v8.568zm7.404-3.096c0-1.5.864-2.352 1.932-2.352s1.932.852 1.932 2.352-.864 2.34-1.932 2.34-1.932-.84-1.932-2.34zm-1.08 0c0 1.812 1.044 3.24 3.012 3.24s3.012-1.428 3.012-3.24c0-1.824-1.044-3.252-3.012-3.252s-3.012 1.428-3.012 3.252zm12.444-3.108h-.96v.888h-.012c-.372-.684-1.068-1.032-1.848-1.032-2.16 0-2.868 1.812-2.868 3.276 0 1.692.924 3.144 2.772 3.144.792 0 1.584-.372 1.932-1.128h.024v.408c0 1.392-.528 2.352-1.86 2.352-.66 0-1.572-.276-1.608-1.008h-1.02c.06 1.344 1.404 1.824 2.568 1.824 1.968 0 2.88-1.02 2.88-3.048v-5.676zm-2.856 5.376c-1.344 0-1.752-1.248-1.752-2.364 0-1.188.528-2.256 1.836-2.256 1.284 0 1.764 1.128 1.764 2.22 0 1.164-.504 2.4-1.848 2.4zm4.956-2.268c0-1.5.864-2.352 1.932-2.352s1.932.852 1.932 2.352-.864 2.34-1.932 2.34-1.932-.84-1.932-2.34zm-1.08 0c0 1.812 1.044 3.24 3.012 3.24s3.012-1.428 3.012-3.24c0-1.824-1.044-3.252-3.012-3.252s-3.012 1.428-3.012 3.252z" fill="#FF71D4"/>
    <g fill="#FFF">
      <path d="M197.4256 153.8627931h15.8306824c6.8339764 0 12.7196235-2.0954028 12.7196235-9.9350637 0-6.2179474-4.6008471-9.3269211-12.7196235-9.3269211H197.4256v19.2619848zm0-23.1818153h15.8306824c7.3071058 0 10.8933647-3.6498896 10.8933647-8.1788969 0-6.01523318-3.653553-9.05594598-10.8933647-9.05594598H197.4256v17.23484288zm-4.6008471-21.15467333h20.4315295c8.1187764 0 15.4931764 2.83799862 15.4931764 11.82775223 0 5.0688889-3.3823059 9.7323495-8.3889882 10.8131471v.1354875c6.2241882.8108568 10.2162823 5.4743173 10.2162823 11.7605256 0 4.5951997-1.6243764 13.7194066-17.3204705 13.7194066h-20.4315295v-48.25631903zM234.9737506 109.52589077h6.765647L258.45008 151.8352375l16.6423529-42.30934673h6.7656471v48.25735333h-4.5998118v-41.7012042h-.1356235L260.61488 157.7832441h-4.3296l-16.5760941-41.7012042h-.1345883v41.7012042h-4.600847M312.708809 149.5016455h11.365459c4.127718 0 7.848565-1.3517726 7.848565-6.3534349 0-4.9334014-3.0448-6.8933166-7.644612-6.8933166h-11.569412v13.2467515zm0-20.4782699h10.756706c3.789177 0 6.495436-1.6899743 6.495436-5.7452923 0-4.52797305-3.51793-5.54257824-7.307106-5.54257824h-9.945036v11.28787054zm-10.622117-19.5329598h22.731953c9.201694 0 15.425882 2.97348614 15.425882 11.9632398 0 4.7979138-2.300423 7.9751484-6.562729 10.0695169 5.953976 1.6899744 8.863153 6.2179474 8.863153 12.2331807 0 9.8006103-8.321695 13.9903816-17.049224 13.9903816h-23.409035v-48.256319zM347.222306 157.7479759h9.606494v-48.25735326h-9.606494M395.299915 157.7472519h-9.133364v-4.8661747h-.202918c-2.436047 3.9870571-6.630024 5.812519-10.689412 5.812519-10.216282 0-12.786917-5.7452924-12.786917-14.39581v-21.4928751h9.607529v19.7356741c0 5.7442581 1.623341 8.583291 6.155859 8.583291 5.2096 0 7.442729-2.9062595 7.442729-10.0033246v-18.3156405h9.606494v34.9423408zM425.043087 136.5250417c-.88-4.8661748-2.976471-7.4342326-7.644612-7.4342326-6.224188 0-7.780235 4.7306872-7.983153 7.4342326h15.627765zm-15.627765 6.0824598c.270212 6.1507208 3.179389 8.8542661 8.591906 8.8542661 3.856471 0 6.968565-2.3653436 7.577318-4.527973h8.456282c-2.706259 8.3123159-8.456282 11.7594914-16.372141 11.7594914-11.027953 0-17.860894-7.5697201-17.860894-18.3828672 0-10.4759796 7.238776-18.4521623 17.860894-18.4521623 11.906918 0 17.725271 10.0033246 16.980894 20.749245h-25.234259zM439.622616 122.8049111h9.066071v4.7306872h.134588c2.503341-3.5816287 6.0896-5.6770315 10.689412-5.6770315 4.397929 0 8.321694 1.5544869 10.216282 5.8125191 2.097506-3.0417471 5.68273-5.8125191 10.553789-5.8125191 7.442729 0 12.786917 3.4471755 12.786917 12.5041557v23.3845294h-9.606494v-19.8029006c0-4.6634606-.405835-8.5160644-5.886682-8.5160644-5.412518 0-6.427106 4.527973-6.427106 8.8542661v19.4646989h-9.606494v-19.6001865c0-4.055318.270212-8.7187785-5.818353-8.7187785-1.894588 0-6.495435 1.2162851-6.495435 8.0434093v20.2755557h-9.606495v-34.9423408zM498.923953 157.7469417h9.606494v-34.9423409h-9.606494v34.9423409zm.001035-40.34943152h9.606494v-7.9079218h-9.606494v7.9079218zM524.563426 139.3636608l-11.501082-16.5584394h10.959623l6.156894 9.1242069 6.088565-9.1242069h10.622118l-11.501083 16.3557253 12.921506 18.5866155h-10.959623l-7.307106-11.0168955-7.306071 11.0168955h-10.757741M548.880311 123.2355753h4.186729v.7818976h-1.644047v4.3852457h-.905882v-4.3852457h-1.6368M553.632104 123.2355753h1.275482l1.426635 4.0449755h.014494l1.3904-4.0449755h1.260989v5.1671433h-.8624v-3.9870571h-.014495l-1.433882 3.9870571h-.746447l-1.433882-3.9870571h-.014494v3.9870571h-.8624M286.150824 113.8341878h1.141929c.445176 0 .679153-.21098824.679153-.63399897 0-.51195675-.329224-.60607405-.690541-.60607405h-1.130541v1.240073zm-.695718-1.8078796h1.898729c.873789 0 1.313789.4002571 1.313789 1.0735578 0 .7622467-.522824.95668684-.657412 1.00115985v.01137682c.240188.0279249.591153.21719377.591153.83981592 0 .46748373.066259.88428892.216376 1.04563286h-.745412c-.106635-.1716865-.106635-.38888028-.106635-.58332042 0-.7291505-.150118-1.0518384-.789929-1.0518384h-1.024941v1.63515882h-.695718v-3.97154325z"/>
      <path d="M287.058052 110.5750401c-1.896659 0-3.440283 1.5420758-3.440283 3.43683288 0 1.89579135 1.543624 3.43786713 3.440283 3.43786713 1.896659 0 3.440282-1.54207577 3.440282-3.43786712 0-1.8947571-1.543623-3.43683287-3.440282-3.43683287m0 7.42182146c-2.2 0-3.988988-1.78719446-3.988988-3.98498858 0-2.19675986 1.788988-3.98498858 3.988988-3.98498858s3.988988 1.78822872 3.988988 3.98498858c0 2.19779412-1.788988 3.98498858-3.988988 3.98498858M182.50597647 157.7831406h4.60084706v-48.25735326h-4.60084706"/>
    </g>
    <g>
      <path d="M136.677441 134.7340069l17.713132-30.6289562-18.266667-31.5515152H99.5905725l-17.7131313 30.6289562H46.4511786l-18.45117845 31.5515152 17.71313135 30.813468.7380471 1.1070707H81.8774412s.1845118.3690236 1.1070707 2.0296296l15.8680135 27.4922558.7380471 1.107071h36.5333335l.738047-1.107071 17.713131-30.6289561-17.897643-30.813468z" stroke="#FFF" stroke-width=".07391647" fill="#FFF"/>
      <path d="M67.3010103 134.7340069c0 4.4282828.9225589 8.6720539 2.5831649 12.7313131 1.6606061 3.8747475 4.0592593 7.3804714 7.0114479 10.5171717.7380471.7380472 1.2915824 1.2915825 2.0296296 1.8451179v-50.3717172c-.7380472.5535354-1.4760943 1.2915825-2.0296296 1.8451179-2.9521886 2.9521885-5.3508418 6.4579124-7.0114479 10.5171717-1.8451178 4.243771-2.5831649 8.4875421-2.5831649 12.9158249z" fill="#1D3649"/>
      <path d="M123.3925927 111.485522c-2.9521885-2.9521885-6.4579124-5.3508417-10.5171717-7.0114478-4.0592592-1.660606-8.3030303-2.583165-12.7313131-2.583165-3.8747475 0-7.5649832.7380472-11.2552189 2.0296297l43.729293 25.2781145c-.369024-2.3986532-1.107071-4.7973064-2.02963-7.0114479-1.660606-4.0592592-4.0592589-7.7494949-7.1959593-10.7016835zM84.8296298 105.5811449l16.0525252 27.8612795h32.289562v-1.1070707l-47.2350165-27.3077441c-.3690236.1845118-.7380471.3690236-1.1070707.5535353z" fill="#00B4A0"/>
      <path d="M133.171717 136.0255894h-32.1050502l-16.0525252 27.8612794c.3690235.1845118.5535353.3690236.9225589.5535354l47.0505055-27.3077441c0-.3690236.184511-.7380472.184511-1.1070707zM113.0599328 165.1784513c3.8747475-1.660606 7.3804714-4.0592592 10.5171717-7.0114478 2.9521886-2.9521885 5.3508415-6.4579124 7.0114475-10.5171717.922559-2.2141414 1.660606-4.6127946 2.02963-7.1959596l-43.729293 25.2781145c3.6902357 1.2915825 7.3804714 2.0296296 11.2552189 2.0296296 4.4282828 0 8.8565657-.9225589 12.9158249-2.583165z" fill="#5AAAFA"/>
      <path d="M98.6680136 134.7340069l-16.0525252-27.8612795c-.1845118 0-.922559.5535354-.922559.5535354v54.4309764c.3690236.1845118.5535354.3690236.922559.5535354l16.0525252-27.6767677z" fill="#1D3649"/>
      <path d="M100.1441079 99.3077443c18.2666667 0 33.2121211 13.653872 35.2417511 31.3670033 0 .5535354.184512.922559.184512 1.4760943l16.237037-28.0457912-16.975085-29.52188556h-33.950168L84.645118 102.8134682c.5535354-.1845118.9225589-.5535354 1.4760943-.7380472 4.243771-1.660606 9.0410774-2.7676767 14.0228956-2.7676767z" fill="#00B4A0"/>
      <path fill="#5A6464" d="M84.8296298 166.6545456h.1845118v1.2915825h-.1845118z"/>
      <path d="M135.570371 137.3171719c0 .5535353 0 1.1070707-.184512 1.4760942-2.02963 17.7131314-16.9750844 31.3670034-35.2417511 31.3670034-4.9818182 0-9.7791246-1.1070707-14.0228956-2.9521885-.5535354-.1845118-.9225589-.3690236-1.4760943-.7380472l16.237037 28.2303032h33.950168l16.975085-29.3373739-16.237037-28.0457912z" fill="#5AAAFA"/>
      <path d="M80.401347 105.3966332H47.7427611l-16.97508418 29.3373737 16.97508418 29.3373737h32.4740741c-.3690236-.3690235-.922559-.5535353-1.2915825-.9225589-8.6720539-6.4579125-14.2074074-16.7905724-14.2074074-28.4148148s5.5353535-21.9569024 14.2074074-28.4148148c.5535353-.3690236.9225589-.7380472 1.4760943-.9225589z" fill="#1D3649"/>
    </g>
  </g>
</svg>