<svg width="177" height="68" viewBox="0 0 177 68" xmlns="http://www.w3.org/2000/svg"><title>logo-misusage-05</title><g fill="none" fill-rule="evenodd"><path d="M70.4 26.7h1.3v14.1h-1.3m3-14.1h6c2.4 0 4.5.8 4.5 3.4 0 1.5-1 2.8-2.4 3.2 1.8.2 3 1.6 3 3.4 0 1.3-.5 4-5 4h-6v-14h-.1zm1.4 6.2h4.6c2.1 0 3.2-1.1 3.2-2.4 0-1.8-1.1-2.6-3.2-2.6h-4.6v5zm0 6.7h4.6c2 0 3.7-.6 3.7-2.9 0-1.8-1.3-2.7-3.7-2.7h-4.6v5.6zm10.9-12.9h2L92.5 39l4.8-12.3h2v14.1H98V28.6l-4.8 12.2h-1.3l-4.8-12.2v12.2h-1.3V26.7m19.4 0h6.6c2.7 0 4.5.9 4.5 3.5 0 1.4-.7 2.3-1.9 2.9 1.7.5 2.6 1.8 2.6 3.6 0 2.9-2.4 4.1-5 4.1h-6.8V26.7zm3.1 5.7h3.1c1.1 0 1.9-.5 1.9-1.7 0-1.3-1-1.6-2.1-1.6h-2.9v3.3zm0 5.9h3.3c1.2 0 2.3-.4 2.3-1.9 0-1.4-.9-2-2.2-2h-3.4v3.9zm10.1-11.6h2.8v14.1h-2.8m14-.1h-2.7v-1.4h-.1c-.7 1.2-1.9 1.7-3.1 1.7-3 0-3.7-1.7-3.7-4.2v-6.3h2.8v5.8c0 1.7.5 2.5 1.8 2.5 1.5 0 2.2-.8 2.2-2.9v-5.3h2.8v10.1zm4.1-4.4c.1 1.8.9 2.6 2.5 2.6 1.1 0 2-.7 2.2-1.3h2.5c-.8 2.4-2.5 3.4-4.8 3.4-3.2 0-5.2-2.2-5.2-5.4 0-3.1 2.1-5.4 5.2-5.4 3.5 0 5.2 2.9 4.9 6.1h-7.3zm4.6-1.7c-.3-1.4-.9-2.2-2.2-2.2-1.8 0-2.3 1.4-2.3 2.2h4.5zm4.2-4h2.6V32c.7-1 1.8-1.7 3.1-1.7s2.4.5 3 1.7c.6-.9 1.7-1.7 3.1-1.7 2.2 0 3.7 1 3.7 3.6v6.8H158V35c0-1.4-.1-2.5-1.7-2.5-1.6 0-1.9 1.3-1.9 2.6v5.7h-2.8V35c0-1.2.1-2.5-1.7-2.5-.6 0-1.9.4-1.9 2.3v5.9h-2.8V30.6h.1zm20.1-1.6h-2.8v-2.3h2.8V29zm-2.8 1.6h2.8v10.2h-2.8V30.6zm7.5 4.8l-3.4-4.8h3.2l1.8 2.7 1.8-2.7h3.1l-3.4 4.8 3.8 5.4h-3.2l-2.1-3.2-2.1 3.2h-3.1M21.3 33.9c0 2.5.5 4.9 1.5 7.2.9 2.2 2.3 4.2 4 5.9.4.4.8.7 1.2 1.1V19.8c-.4.3-.8.7-1.2 1.1-1.7 1.7-3 3.7-4 5.9-1 2.1-1.5 4.6-1.5 7.1z" fill="#1D3649"/><path d="M52.9 20.8c-1.7-1.7-3.7-3-5.9-4-2.3-1-4.7-1.5-7.2-1.5-2.2 0-4.3.4-6.3 1.1L58 30.7c-.2-1.4-.6-2.7-1.2-4-.9-2.2-2.2-4.2-3.9-5.9zm-21.7-3.3l9 15.6h18.1v-.6L31.7 17.2c-.1.1-.3.2-.5.3z" fill="#00B29F"/><path d="M58.3 34.6H40.2l-9 15.7c.2.1.4.2.5.3l26.5-15.3c.1-.3.1-.5.1-.7zM47 50.9c2.2-.9 4.2-2.3 5.9-4 1.7-1.7 3-3.7 4-5.9.5-1.3.9-2.6 1.2-4L33.5 51.3c2 .7 4.2 1.1 6.3 1.1 2.5 0 4.9-.5 7.2-1.5z" fill="#5AAAFA"/><path d="M38.9 33.9l-9-15.6c-.1 0-.5.3-.5.3v30.6c.2.1.3.2.5.3l9-15.6z" fill="#1D3649"/><path d="M39.8 13.9c10.2 0 18.7 7.7 19.8 17.6 0 .3.1.6.1.8l9.1-15.8L59.3.1H40.2L31 16c.3-.1.6-.3.8-.4 2.5-1.1 5.2-1.7 8-1.7z" fill="#00B29F"/><path fill="#90908F" d="M31.3 51.8h-.1v.7h.1z"/><path d="M59.7 35.3c0 .3 0 .6-.1.9-1.1 9.9-9.6 17.6-19.8 17.6-2.8 0-5.5-.6-7.9-1.6-.3-.1-.5-.2-.8-.4l9.1 15.8h19.1l9.5-16.5-9.1-15.8z" fill="#5AAAFA"/><path d="M28.7 17.3H10.3L.8 33.8l9.5 16.5h18.3c-.2-.2-.5-.3-.7-.5-4.9-3.6-8-9.4-8-16 0-6.5 3.2-12.4 8-16 .2-.1.5-.3.8-.5z" fill="#1D3649"/></g></svg>