<svg width="200" height="47" viewBox="0 0 200 47" xmlns="http://www.w3.org/2000/svg">
  <title>
    logo-misusage-03
  </title>
  <g fill="none" fill-rule="evenodd">
    <path d="M14.6391753 23.2989691c0 1.718213.3436426 3.3676976 1.0309278 4.9484536.6185567 1.5120275 1.580756 2.8865979 2.7491409 4.0549828.2749141.2749141.5498282.4810997.8247423.7560137V13.6082474c-.2749141.2061856-.5498282.4810997-.8247423.7560138-1.1683849 1.1683848-2.0618557 2.5429553-2.7491409 4.0549828-.6872852 1.443299-1.0309278 3.161512-1.0309278 4.8797251z" fill="#1D3649"/>
    <path d="M36.3573883 14.2955326c-1.1683849-1.1683848-2.5429553-2.0618556-4.0549828-2.7491408-1.580756-.6872853-3.2302406-1.0309279-4.9484536-1.0309279-1.5120275 0-2.9553265.2749141-4.3298969.7560138l16.838488 9.8281787c-.1374571-.9621994-.4123712-1.8556701-.8247423-2.7491409-.6185567-1.5120275-1.5120275-2.886598-2.6804124-4.0549829zM21.443299 12.0274914l6.185567 10.7216495h12.4398625v-.4123711l-18.2817869-10.515464c-.0687285.0687286-.2061856.1374571-.3436426.2061856z" fill="#00B29F"/>
    <path d="M40.0687285 23.7800687H27.628866l-6.185567 10.790378c.137457.0687286.2749141.1374571.3436426.2061856L40 24.2611684c.0687285-.2061856.0687285-.3436426.0687285-.4810997zM32.3024055 34.9828179c1.5120275-.6185567 2.8865979-1.580756 4.0549828-2.7491409 1.1683849-1.1683849 2.0618557-2.5429554 2.7491409-4.0549828.3436426-.8934708.6185567-1.7869416.8247423-2.7491409L23.024055 35.257732c1.3745704.4810996 2.8865979.7560137 4.3298969.7560137 1.718213 0 3.3676976-.3436426 4.9484536-1.0309278z" fill="#5AAAFA"/>
    <path d="M26.7353952 23.2989691l-6.185567-10.7216495c-.0687285 0-.3436426.2061856-.3436426.2061856V33.814433c.137457.0687285.2061855.137457.3436426.2061856l6.185567-10.7216495z" fill="#1D3649"/>
    <path d="M27.3539519 9.5532646c7.0103093 0 12.8522337 5.2920962 13.6082474 12.0962199 0 .2061856.0687285.4123712.0687285.5498282l6.2542956-10.8591065L40.7560137.06872852H27.628866L21.3058419 10.9965636c.2061856-.0687285.4123712-.2061856.5498282-.2749141 1.7182131-.75601376 3.5738832-1.1683849 5.4982818-1.1683849z" fill="#00B29F"/>
    <path fill="#90908F" d="M21.443299 35.6013746h.1v.48109966h-.1z"/>
    <path d="M41.0309278 24.2611684c0 .2061856 0 .4123711-.0687285.6185567-.7560137 6.8041237-6.5979381 12.0962199-13.6082474 12.0962199-1.9243986 0-3.7800687-.4123711-5.4295533-1.0996563-.2061855-.0687286-.3436426-.1374571-.5498282-.2749141l6.2542956 10.8591065h13.1271477l6.5292097-11.3402062-6.2542956-10.8591065z" fill="#5AAAFA"/>
    <path d="M19.7250859 11.8900344H7.0790378L.54982818 23.2302405 7.0790378 34.5704467h12.5773196c-.1374571-.137457-.3436426-.2061855-.4810997-.3436426-3.3676976-2.4742268-5.4982818-6.4604811-5.4982818-10.9965636 0-4.4673539 2.1993128-8.5223367 5.4982818-10.9965635.1374571-.0687285.3436426-.2061856.5498282-.3436426z" fill="#1D3649"/>
    <g fill="#1D3649">
      <path d="M60.75601343 30.1718216h2.1305842v1.5120275H56.9759447v-1.5120275h2.1305842V16.5635742h-2.1305842v-1.5120275h5.91065292v1.5120275h-2.1305842M71.1340203 14.98281818c1.1683849 0 2.2680412.06872852 3.2302406.82474227 1.0996563.82474226 1.6494845 1.99312714 1.6494845 3.29896907 0 1.580756-.8934708 2.95532646-2.3367698 3.64261168 1.9243987.68728523 3.0927835 2.3367698 3.0927835 4.3986254 0 1.2371134-.4810996 2.5429554-1.4432989 3.3676976-1.0996564 1.0309279-2.3367698 1.0996564-3.7800688 1.0996564h-7.28522333v-1.5120275h2.13058423V16.5635742h-2.13058423v-1.5120275h6.87285223v-.06872852zm-.4810997 7.21649484c1.0309279 0 1.8556701 0 2.6804124-.68728522.6872852-.54982818.9621993-1.30584192.9621993-2.1993127 0-.8934708-.3436426-1.71821307-1.0996563-2.26804125-.7560138-.54982818-1.580756-.48109966-2.4742268-.48109966h-2.6116839V22.199313h2.5429553zm.2749141 7.97250858c1.0996564 0 2.1305842 0 3.024055-.5498282.8247423-.5498281 1.1683849-1.6494845 1.1683849-2.6116838 0-1.0309278-.4810997-2.0618557-1.3058419-2.68041238-.8934708-.6185567-1.9243987-.6185567-3.024055-.6185567h-2.6804124v6.46048108h2.8178694zM81.9931268 30.1718216h2.1993127v1.5120275h-5.9793814v-1.5120275h2.1305842V16.5635742h-2.1305842v-1.5120275h4.6735395l6.04811 14.1580756 6.6666667-14.1580756h4.604811v1.5120275h-2.1305842v13.6082474h2.1305842v1.5120275h-6.04811v-1.5120275h2.1305842V17.1821309l-6.8041237 14.5017182h-1.305842l-6.185567-14.5017182v12.9896907M114.914089 14.98281818c1.1683849 0 2.2680413.06872852 3.2302406.82474227 1.0996563.82474226 1.6494845 1.99312714 1.6494845 3.29896907 0 1.580756-.8934708 2.95532646-2.3367697 3.64261168 1.9243986.68728523 3.0927835 2.3367698 3.0927835 4.3986254 0 1.2371134-.4810997 2.5429554-1.443299 3.3676976-1.0996564 1.0309279-2.3367698 1.0996564-3.7800687 1.0996564h-7.2852234v-1.5120275h2.1305842V16.5635742h-2.1305842v-1.5120275h6.8728522v-.06872852zm-.4810996 7.21649484c1.0309278 0 1.8556701 0 2.6804123-.68728522.6872853-.54982818.9621994-1.30584192.9621994-2.1993127 0-.8934708-.3436427-1.71821307-1.0996564-2.26804125s-1.580756-.48109966-2.4742268-.48109966h-2.6116839V22.199313h2.5429554zm.2749141 7.97250858c1.0996563 0 2.1305842 0 3.0240549-.5498282.8247423-.5498281 1.1683849-1.6494845 1.1683849-2.6116838 0-1.0309278-.4810996-2.0618557-1.3058419-2.68041238-.8934708-.6185567-1.9243986-.6185567-3.024055-.6185567h-2.6804124v6.46048108h2.8178695zM125.56701 30.2405501h2.0618557v1.443299h-5.7731959v-1.443299h2.1993127V16.49484567h-2.0618557V15.0515467h3.5738832v15.1890034M138.5567007 29.6219934c-.8247423 1.5120275-2.3367697 2.4054983-4.0549828 2.4054983-1.7869416 0-3.4364261-1.1683849-4.1924399-2.4054983-.4123711-.6872852-.6185567-1.580756-.6185567-3.0240549v-5.77319592h-2.0618556V19.3814436h3.5738831v6.5979382c0 1.1683848 0 2.2680412.7560138 3.2302405.7560137.9621993 1.718213 1.3745704 2.9553264 1.3058419 1.2371134-.0687285 2.1305842-.6185567 2.7491409-1.3058419.8247423-1.0309278.8934708-1.9243986.8934708-3.161512v-5.22336772h-2.0618557V19.3814436h3.5738832v10.8591065h2.0618557v1.443299h-3.6426117v-2.0618557h.0687285zM154.914089 28.247423c-1.0309278 2.2680412-3.298969 3.7800687-5.8419244 3.7800687-3.5051546 0-6.3917525-2.8178694-6.3917525-6.323024 0-3.50515468 2.7491408-6.46048114 6.323024-6.46048114 3.6426117 0 6.4604811 2.81786942 6.4604811 6.46048114v.4123711h-11.2027491c.137457 2.5429553 2.2680412 4.5360825 4.8109965 4.5360825 1.7869416 0 3.3676976-.8247423 4.2611684-2.4054983h1.580756zm-.8934708-3.3676976c-.3436426-2.4742268-2.5429553-4.2611684-5.0171821-4.2611684-2.3367697 0-4.4673539 1.92439864-4.742268 4.2611684h9.7594501zM160 21.5120278c.687285-1.44329897 2.061855-2.33676976 3.71134-2.33676976 1.718213 0 3.092783.82474227 3.848797 2.33676976l.274914.48109966c.687285-1.71821306 2.405499-2.81786942 4.123712-2.81786942 2.336769 0 3.642611 1.03092784 4.329896 2.81786942.274915.75601374.343643 1.37457044.343643 2.74914094v5.4982817h2.061856v1.443299h-5.635739v-1.443299h2.061856V25.085911c0-1.0996564-.137457-2.54295536-.756014-3.2302406-.687285-.82474226-1.649485-1.16838487-2.611684-1.16838487-.893471 0-1.924399.41237114-2.611684 1.16838488-.824742.8934708-.893471 1.71821307-.893471 2.886598v5.4982817h2.061856v1.443299h-5.635739v-1.443299h2.061856V25.085911c0-1.443299-.412371-2.6804124-.756014-3.16151207-.618557-.9621993-1.649484-1.16838488-2.611684-1.16838488-1.168385 0-1.924398.41237114-2.542955 1.16838488-.756014.8934708-.893471 1.92439863-.893471 3.02405497v5.2920962h2.061856v1.443299h-5.635739v-1.443299h2.061856v-9.347079h-2.061856v-1.44329897h3.573883v2.06185567H160zM183.505154 30.2405501h2.061856v1.443299h-5.704467v-1.443299h2.130584v-9.347079h-2.061856v-1.44329897h3.573883V30.2405501zm0-12.85223364h-1.512027v-2.40549828h1.512027v2.40549828zM197.525773 30.2405501h2.061856v1.443299h-5.567011v-1.443299h1.649485l-2.611684-3.5738831-2.680412 3.5738831h1.649484v1.443299h-5.56701v-1.443299h1.993127l3.505155-4.6735395-3.505155-4.6735395h-1.924399v-1.44329897h5.498282v1.44329897h-1.649484l2.680412 3.5738832 2.611684-3.5738832h-1.786942v-1.44329897h5.498282v1.44329897h-1.924399l-3.436426 4.6735395"/>
    </g>
  </g>
</svg>