<svg width="590" height="269" viewBox="0 0 590 269" xmlns="http://www.w3.org/2000/svg"><title>Logo-Spec_dark</title><g fill="none" fill-rule="evenodd"><path fill="#1D3649" d="M0 0h590v269H0z"/><path d="M31.449 42.502h121.2m-121.2-3v6m121.2-6v6m30.526-3H557.94m-374.765-3v6m374.765-6v6m-526.568 179.2H557.94m-526.568-3v6m526.568-6v6" stroke="#FF71D4" stroke-linecap="square"/><path d="M83.938 34h1.14v-8.568h-1.14V34zm7.98-4.212c-.156-1.476-1.26-2.136-2.676-2.136-1.968 0-2.928 1.464-2.928 3.324 0 1.86 1.008 3.168 2.904 3.168 1.572 0 2.508-.888 2.736-2.412H90.91c-.132.948-.708 1.512-1.704 1.512-1.296 0-1.812-1.116-1.812-2.268 0-1.248.456-2.424 1.932-2.424.852 0 1.38.456 1.536 1.236h1.056zm1.86 1.116c0-1.5.864-2.352 1.932-2.352s1.932.852 1.932 2.352-.864 2.34-1.932 2.34-1.932-.84-1.932-2.34zm-1.08 0c0 1.812 1.044 3.24 3.012 3.24s3.012-1.428 3.012-3.24c0-1.824-1.044-3.252-3.012-3.252s-3.012 1.428-3.012 3.252zM99.73 34h1.02v-3.504c0-1.116.6-1.944 1.836-1.944.78 0 1.26.48 1.26 1.248V34h1.02v-4.08c0-1.332-.504-2.268-2.136-2.268-.9 0-1.584.36-2.016 1.128h-.024v-.984h-.96V34zm262.331-8.568h-1.14l-1.74 7.128h-.024l-1.896-7.128h-1.236l-1.92 7.128h-.024l-1.68-7.128h-1.164L353.433 34h1.188l1.98-7.2h.024l1.956 7.2h1.188l2.292-8.568zm1.464 5.472c0-1.5.864-2.352 1.932-2.352s1.932.852 1.932 2.352-.864 2.34-1.932 2.34-1.932-.84-1.932-2.34zm-1.08 0c0 1.812 1.044 3.24 3.012 3.24s3.012-1.428 3.012-3.24c0-1.824-1.044-3.252-3.012-3.252s-3.012 1.428-3.012 3.252zM369.477 34h1.02v-2.76c0-1.584.6-2.508 2.244-2.508v-1.08c-1.104-.036-1.788.444-2.28 1.452h-.024v-1.308h-.96V34zm4.692-3.048c0-1.212.468-2.4 1.86-2.4 1.404 0 1.956 1.14 1.956 2.352 0 1.152-.516 2.34-1.896 2.34-1.32 0-1.92-1.128-1.92-2.292zm4.8-5.52h-1.02v3.192h-.024c-.444-.732-1.38-.972-2.004-.972-1.896 0-2.832 1.476-2.832 3.228 0 1.752.948 3.264 2.856 3.264.864 0 1.644-.3 1.98-.984h.024V34h1.02v-8.568zM380.277 34h1.02v-3.864c0-.48.456-1.584 1.656-1.584.912 0 1.164.576 1.164 1.38V34h1.02v-3.864c0-.96.624-1.584 1.62-1.584.996 0 1.2.612 1.2 1.38V34h1.02v-4.548c0-1.284-.828-1.8-2.064-1.8-.804 0-1.524.384-1.944 1.056-.252-.768-.936-1.056-1.704-1.056-.876 0-1.536.348-2.004 1.056h-.024v-.912h-.96V34zm15.528-.816c-.108.036-.216.06-.312.06-.324 0-.324-.216-.324-.696v-3.192c0-1.452-1.212-1.704-2.328-1.704-1.392 0-2.568.54-2.628 2.076h1.02c.048-.912.684-1.176 1.548-1.176.636 0 1.38.132 1.38 1.032 0 .78-.972.684-2.088.912-1.056.192-2.1.504-2.1 1.908 0 1.248.924 1.74 2.052 1.74.864 0 1.62-.288 2.184-.96 0 .672.336.96.864.96.3 0 .552-.06.732-.168v-.792zm-1.656-1.344c0 .576-.552 1.404-1.896 1.404-.624 0-1.2-.24-1.2-.912 0-1.524 2.304-.948 3.096-1.536v1.044zm2.484 2.16h1.02v-2.76c0-1.584.6-2.508 2.244-2.508v-1.08c-1.104-.036-1.788.444-2.28 1.452h-.024v-1.308h-.96V34zm3.948 0h1.02v-2.352l.96-.888 2.124 3.24h1.296l-2.64-3.948 2.46-2.256h-1.368l-2.832 2.712v-5.076h-1.02V34zM289.506 242.23h5.676v-.96h-4.536v-7.608h-1.14v8.568zm7.404-3.096c0-1.5.864-2.352 1.932-2.352s1.932.852 1.932 2.352-.864 2.34-1.932 2.34-1.932-.84-1.932-2.34zm-1.08 0c0 1.812 1.044 3.24 3.012 3.24s3.012-1.428 3.012-3.24c0-1.824-1.044-3.252-3.012-3.252s-3.012 1.428-3.012 3.252zm12.444-3.108h-.96v.888h-.012c-.372-.684-1.068-1.032-1.848-1.032-2.16 0-2.868 1.812-2.868 3.276 0 1.692.924 3.144 2.772 3.144.792 0 1.584-.372 1.932-1.128h.024v.408c0 1.392-.528 2.352-1.86 2.352-.66 0-1.572-.276-1.608-1.008h-1.02c.06 1.344 1.404 1.824 2.568 1.824 1.968 0 2.88-1.02 2.88-3.048v-5.676zm-2.856 5.376c-1.344 0-1.752-1.248-1.752-2.364 0-1.188.528-2.256 1.836-2.256 1.284 0 1.764 1.128 1.764 2.22 0 1.164-.504 2.4-1.848 2.4zm4.956-2.268c0-1.5.864-2.352 1.932-2.352s1.932.852 1.932 2.352-.864 2.34-1.932 2.34-1.932-.84-1.932-2.34zm-1.08 0c0 1.812 1.044 3.24 3.012 3.24s3.012-1.428 3.012-3.24c0-1.824-1.044-3.252-3.012-3.252s-3.012 1.428-3.012 3.252z" fill="#FF71D4"/><g fill="#FFF"><path d="M197.426 153.863h15.83c6.834 0 12.72-2.096 12.72-9.935 0-6.218-4.6-9.327-12.72-9.327h-15.83v19.262zm0-23.182h15.83c7.307 0 10.894-3.65 10.894-8.179 0-6.015-3.654-9.056-10.894-9.056h-15.83v17.235zm-4.601-21.155h20.431c8.12 0 15.493 2.838 15.493 11.828 0 5.069-3.382 9.732-8.389 10.813v.136c6.225.81 10.217 5.474 10.217 11.76 0 4.595-1.625 13.72-17.32 13.72h-20.432v-48.257zm42.149 0h6.765l16.711 42.31 16.642-42.31h6.766v48.257h-4.6v-41.701h-.135l-16.508 41.701h-4.33l-16.576-41.701h-.134v41.701h-4.601m77.735-8.281h11.365c4.128 0 7.849-1.352 7.849-6.354 0-4.933-3.045-6.893-7.645-6.893h-11.57v13.247zm0-20.479h10.757c3.789 0 6.495-1.69 6.495-5.745 0-4.528-3.518-5.542-7.307-5.542h-9.945v11.287zm-10.622-19.533h22.732c9.201 0 15.426 2.974 15.426 11.964 0 4.798-2.3 7.975-6.563 10.07 5.954 1.69 8.863 6.217 8.863 12.232 0 9.801-8.322 13.99-17.05 13.99h-23.408V109.49zm45.135 48.258h9.607v-48.257h-9.607m48.078 48.256h-9.133v-4.866h-.203c-2.436 3.987-6.63 5.813-10.69 5.813-10.216 0-12.787-5.746-12.787-14.396v-21.493h9.608v19.736c0 5.744 1.623 8.583 6.156 8.583 5.21 0 7.442-2.906 7.442-10.003v-18.316h9.607v34.942zm29.743-21.222c-.88-4.866-2.976-7.434-7.645-7.434-6.224 0-7.78 4.73-7.983 7.434h15.628zm-15.628 6.083c.27 6.15 3.18 8.854 8.592 8.854 3.857 0 6.969-2.366 7.578-4.528h8.456c-2.706 8.312-8.456 11.76-16.372 11.76-11.028 0-17.861-7.57-17.861-18.384 0-10.476 7.239-18.452 17.86-18.452 11.908 0 17.726 10.004 16.982 20.75h-25.235zm30.208-19.803h9.066v4.73h.134c2.504-3.581 6.09-5.676 10.69-5.676 4.398 0 8.321 1.554 10.216 5.812 2.097-3.042 5.683-5.812 10.554-5.812 7.442 0 12.787 3.447 12.787 12.504v23.384h-9.607v-19.803c0-4.663-.406-8.516-5.887-8.516-5.412 0-6.427 4.528-6.427 8.855v19.464h-9.606v-19.6c0-4.055.27-8.719-5.818-8.719-1.895 0-6.496 1.217-6.496 8.044v20.275h-9.606v-34.942zm59.301 34.942h9.606v-34.942h-9.606v34.942zm.001-40.35h9.606v-7.907h-9.606v7.908zm25.638 21.967l-11.5-16.559h10.959l6.157 9.124 6.088-9.124h10.623l-11.502 16.356 12.922 18.587h-10.96l-7.307-11.017-7.306 11.017H511.98m36.901-34.512h4.187v.781h-1.644v4.386h-.906v-4.386h-1.637m4.752-.781h1.276l1.426 4.045h.015l1.39-4.045H559v5.167h-.862v-3.987h-.015l-1.434 3.987h-.746l-1.434-3.987h-.014v3.987h-.863m-267.481-14.569h1.142c.445 0 .679-.21.679-.634 0-.512-.33-.606-.69-.606h-1.131v1.24zm-.696-1.808h1.899c.874 0 1.314.4 1.314 1.074 0 .762-.523.957-.658 1.001v.011c.24.028.591.218.591.84 0 .468.067.885.217 1.046h-.746c-.106-.172-.106-.389-.106-.583 0-.73-.15-1.052-.79-1.052h-1.025v1.635h-.696v-3.972z"/><path d="M287.058 110.575a3.443 3.443 0 0 0-3.44 3.437 3.443 3.443 0 0 0 3.44 3.438 3.443 3.443 0 0 0 3.44-3.438 3.443 3.443 0 0 0-3.44-3.437m0 7.422a3.99 3.99 0 0 1-3.989-3.985c0-2.197 1.79-3.985 3.99-3.985s3.988 1.788 3.988 3.985a3.99 3.99 0 0 1-3.989 3.985m-104.552 39.786h4.6v-48.257h-4.6"/></g><path d="M136.677 134.734l17.714-30.629-18.267-31.551H99.59l-17.714 30.628H46.451L28 134.734l17.713 30.813.738 1.108h35.426s.185.369 1.108 2.03l15.868 27.491.738 1.108h36.533l.738-1.108 17.713-30.629-17.898-30.813z" stroke="#FFF" stroke-width=".074" fill="#FFF"/><path d="M67.301 134.734c0 4.428.923 8.672 2.583 12.731 1.66 3.875 4.06 7.38 7.012 10.517.738.739 1.291 1.292 2.03 1.846v-50.372c-.739.553-1.477 1.291-2.03 1.845a31.848 31.848 0 0 0-7.012 10.517c-1.845 4.244-2.583 8.488-2.583 12.916z" fill="#1D3649"/><path d="M123.393 111.486a31.848 31.848 0 0 0-10.518-7.012c-4.059-1.66-8.303-2.583-12.73-2.583-3.876 0-7.566.738-11.256 2.03l43.73 25.278c-.37-2.399-1.108-4.798-2.03-7.012-1.661-4.06-4.06-7.75-7.196-10.701zM84.83 105.58l16.052 27.861h32.29v-1.107l-47.235-27.307-1.107.553z" fill="#00B4A0"/><path d="M133.172 136.026h-32.105l-16.053 27.86c.37.185.554.37.923.554l47.05-27.307c0-.37.185-.738.185-1.107zm-20.112 29.152c3.875-1.66 7.38-4.059 10.517-7.011a31.848 31.848 0 0 0 7.012-10.517c.922-2.214 1.66-4.613 2.03-7.196l-43.73 25.278c3.69 1.292 7.38 2.03 11.255 2.03 4.428 0 8.857-.923 12.916-2.584z" fill="#5AAAFA"/><path d="M98.668 134.734l-16.053-27.861c-.184 0-.922.553-.922.553v54.431c.369.185.553.37.922.554l16.053-27.677z" fill="#1D3649"/><path d="M100.144 99.308a35.385 35.385 0 0 1 35.242 31.367c0 .553.184.922.184 1.476l16.237-28.046-16.975-29.522h-33.95l-16.237 28.23c.554-.184.923-.553 1.476-.738 4.244-1.66 9.041-2.767 14.023-2.767z" fill="#00B4A0"/><path fill="#5A6464" d="M84.83 166.655h.184v1.291h-.184z"/><path d="M135.57 137.317c0 .554 0 1.107-.184 1.476a35.385 35.385 0 0 1-35.242 31.367c-4.982 0-9.779-1.107-14.023-2.952-.553-.184-.922-.369-1.476-.738l16.237 28.23h33.95l16.975-29.337-16.237-28.046z" fill="#5AAAFA"/><path d="M80.401 105.397H47.743l-16.975 29.337 16.975 29.337h32.474c-.37-.369-.923-.553-1.292-.922-8.672-6.458-14.207-16.79-14.207-28.415s5.535-21.957 14.207-28.415c.554-.369.923-.738 1.476-.922z" fill="#1D3649"/></g></svg>