<svg xmlns="http://www.w3.org/2000/svg" width="340" height="340" viewBox="0 0 340 340"><path fill="none" d="M101.3 169.3zm0 0z"/><path fill="#172B3A" d="M108.8 156.2c-.6 4.3-1 8.7-1 13.1 0 .1 0-.1 0 0h30.5V105l-29.5 51.2z"/><path fill="#1A3041" d="M108.9 182.6l29.5 51.1v-64.3h-30.5c0 4.4.3 8.8 1 13.2z"/><path fill="#1D3649" d="M114.6 202.6c4.3 10.2 10.5 19.4 18.4 27.3 1.7 1.7 3.5 3.4 5.4 4.9v-1.2l-29.5-51.1c1.1 6.9 3 13.6 5.7 20.1z"/><path fill="#142532" d="M138.4 103.5c-1.9 1.6-3.7 3.2-5.4 5-7.9 7.9-14.1 17.1-18.4 27.3-2.8 6.6-4.7 13.4-5.8 20.4l29.6-51.2v-1.5z"/><path fill="#3AC0AF" d="M221.3 121.3l55.9 32.3-29.6-51.3c-3.5-2.8-7.1-5.3-11-7.6l-15.3 26.6z"/><path fill="#3ECBB9" d="M236.6 94.8c-3.1-1.8-11.2-5.4-12.1-5.8l-59.4-.1 56.2 32.4 15.3-26.5z"/><path fill="#38B6A6" d="M278.3 154.2c-1.1-6.3-2.9-12.5-5.5-18.5-4.3-10.2-10.5-19.4-18.4-27.3-2.2-2.2-4.4-4.2-6.8-6.1l29.6 51.3 1.1.6z"/><path fill="#41D6C3" d="M193.7 83.3c-10.1 0-20 1.7-29.3 5.1l.7.4 59.4.1c-9.8-3.7-20.1-5.6-30.8-5.6z"/><path fill="#3AC0AF" d="M279.5 165.6c0-.9-.1-1.8-.2-2.7l-61.5-35.5-22.2 38.3h83.9z"/><path fill="#3ECBB9" d="M153.8 93.2l41.8 72.5 22.2-38.3-61.5-35.5c-.8.4-2.5 1.2-2.5 1.3z"/><path fill="#437FBB" d="M279.5 172.7h-83.9l22.2 38.4 61.6-35.6c0-1 .1-1.9.1-2.8z"/><path fill="#5AAAFA" d="M195.6 172.6l-41.7 72.6c.8.4 1.6.8 2.5 1.3l61.4-35.5-22.2-38.4zm41 71L221.2 217l-55.6 32.1 59.1.1c.8-.3 1.7-.7 2.5-1 3.2-1.3 6.3-2.9 9.4-4.6z"/><path fill="#4888C8" d="M254.4 229.9c7.9-7.9 14.1-17.1 18.4-27.3 2.5-6 4.4-12.2 5.5-18.5l-1.1.7-29.7 51.4c2.4-2 4.7-4.1 6.9-6.3z"/><path fill="#55A0ED" d="M164.4 249.9c9.4 3.4 19.2 5.2 29.4 5.2 10.7 0 21.1-1.9 30.9-5.7l-59.1-.1-1.2.6z"/><path fill="#437FBB" d="M247.5 236.1l29.7-51.4-56 32.3 15.3 26.6c3.9-2.2 7.5-4.7 11-7.5z"/><path fill="#172B3A" d="M189.5 169.3l-41.7-72.7-2.4 1.6v71.1h44.1z"/><path fill="#1A3041" d="M145.4 169.3v70.8c.8.5 1.5 1 2.3 1.5l41.9-72.3h-44.2z"/><path fill="#41D6C3" d="M195.6 12.5L153.2 86l3.9-1.8c11.2-4.9 23.6-7.6 36.6-7.5 30.8 0 46.2 12.4 46.2 12.4l-44.3-76.6z"/><path fill="#00ABCD" d="M240 89.1s-.1 0 0 0zm0 0s-.1 0 0 0z"/><path fill="#34AB9C" d="M328.2 89.1h.1L284 12.5l-44 76.6"/><path fill="#38B6A6" d="M240 89.1c24.7 14.3 42.2 39.7 45.6 69.4.1 1.3.3 2.6.4 3.9l42.3-73.3H240z"/><path fill="#30A192" d="M284 12.5h-88.4L240 89.1"/><path fill="#5299E1" d="M239.8 249.3l-44.1 76.4h88.4l-44.3-76.4c.1 0 .1 0 0 0z"/><path fill="#4888C8" d="M328.4 249.2L286 175.8c-.1 1.4-.2 2.7-.4 4.1-3.4 29.7-20.9 55.2-45.7 69.5l88.5-.2z"/><path fill="#4D91D5" d="M328.4 249.2l-88.5.1 44.3 76.5 44.2-76.6z"/><path fill="#55A0ED" d="M193.7 261.6c-13 0-25.4-2.7-36.7-7.6-1.3-.5-2.5-1.1-3.7-1.7l42.4 73.4 44.1-76.4c-13.5 7.9-29.3 12.3-46.1 12.3z"/><path fill="#1D3649" d="M141.7 245.6l-3.3-2.4c-22.5-16.8-37.1-43.7-37.1-74L57 245.5h84.7z"/><path fill="#142532" d="M101.3 169.3c0-30.3 14.6-57.4 37.2-74.3 1.2-.9 2.4-1.7 3.6-2.6H56.9l44.4 76.9z"/><path fill="#263E50" d="M12.7 169.3l44.2 76.3 44.3-76.3H12.7z"/><path fill="#2F4657" d="M101.3 169.3L56.9 92.5l-44.2 76.8h88.6z"/></svg>