<svg xmlns="http://www.w3.org/2000/svg" id="lowercase-a" viewBox="0 0 26 26">
  <defs>
    <style>
      .cls-1{fill:#152934;}
    </style>
  </defs>
  <path id="circle" d="M13 2A11 11 0 1 1 2 13 11 11 0 0 1 13 2m0-2a13 13 0 1 0 13 13A13 13 0 0 0 13 0z" class="cls-1"/>
  <path id="a" d="M17.38 17.62a2.16 2.16 0 0 1-1.1.25A1.22 1.22 0 0 1 15 16.43a4.07 4.07 0 0 1-3.28 1.44c-1.69 0-3.08-.74-3.08-2.61 0-2.11 1.57-2.58 3.15-2.86s3.13-.2 3.13-1.37c0-1.35-1.12-1.55-2.07-1.55-1.3 0-2.25.4-2.32 1.76H9c.09-2.3 1.85-3.11 3.94-3.11 1.67 0 3.49.38 3.49 2.56v4.79c0 .72 0 1 .49 1a1.51 1.51 0 0 0 .47-.09v1.19zm-2.49-4.77c-1.19.88-4.64 0-4.64 2.3 0 1 .86 1.37 1.8 1.37 2 0 2.84-1.24 2.84-2.11v-1.56z" class="cls-1"/>
</svg>
