<svg xmlns="http://www.w3.org/2000/svg" id="bg-color-ui-02" width="100px"  viewBox="0 0 100 208">
  <defs>
    <style>
      .cls-1{fill:#f5f7fa;}.cls-2{fill:#152935;}.cls-3{fill:#5a6872;}.cls-4{fill:#3d70b2;}
    </style>
  </defs>
  <path d="M0 0h100v208H0z" class="cls-1"/>
  <g id="uppercase-A">
    <path id="A" d="M68.9 168.48l4.81 12.85h-2.94l-1-2.86H65l-1 2.86h-2.86L66 168.48h2.9zm.16 7.93l-1.64-4.76-1.69 4.76h3.33z" class="cls-2"/>
    <path id="circle" d="M67.42 164.41a11 11 0 1 1-11 11 11 11 0 0 1 11-11m0-2a13 13 0 1 0 13 13 13 13 0 0 0-13-13z" class="cls-2"/>
  </g>
  <g id="lowercase-a">
    <path id="circle-2" d="M32.58 164.37a11 11 0 1 1-11 11 11 11 0 0 1 11-11m0-2a13 13 0 1 0 13 13 13 13 0 0 0-13-13z" data-name="circle" class="cls-2"/>
    <path id="a-2" d="M37 180a2.16 2.16 0 0 1-1.1.25 1.22 1.22 0 0 1-1.28-1.44 4.07 4.07 0 0 1-3.28 1.44c-1.69 0-3.08-.74-3.08-2.61 0-2.11 1.57-2.58 3.15-2.86s3.13-.2 3.13-1.37c0-1.35-1.12-1.55-2.07-1.55-1.3 0-2.25.4-2.32 1.76h-1.57c.09-2.3 1.85-3.11 3.94-3.11 1.67 0 3.49.38 3.49 2.56v4.79c0 .72 0 1 .49 1a1.51 1.51 0 0 0 .47-.09V180zm-2.49-4.77c-1.19.88-4.64 0-4.64 2.3 0 1 .86 1.37 1.8 1.37 2 0 2.84-1.24 2.84-2.11v-1.56z" data-name="a" class="cls-2"/>
  </g>
  <g id="uppercase-A-2" data-name="uppercase-A">
    <path id="A-3" d="M68.9 120.48l4.81 12.85h-2.94l-1-2.86H65l-1 2.86h-2.86L66 120.48h2.9zm.16 7.93l-1.64-4.76-1.69 4.76h3.33z" data-name="A" class="cls-3"/>
    <path id="circle-3" d="M67.42 116.41a11 11 0 1 1-11 11 11 11 0 0 1 11-11m0-2a13 13 0 1 0 13 13 13 13 0 0 0-13-13z" data-name="circle" class="cls-3"/>
  </g>
  <g id="lowercase-a-2" data-name="lowercase-a">
    <path id="circle-4" d="M32.58 116.37a11 11 0 1 1-11 11 11 11 0 0 1 11-11m0-2a13 13 0 1 0 13 13 13 13 0 0 0-13-13z" data-name="circle" class="cls-3"/>
    <path id="a-4" d="M37 132a2.16 2.16 0 0 1-1.1.25 1.22 1.22 0 0 1-1.28-1.44 4.07 4.07 0 0 1-3.28 1.44c-1.69 0-3.08-.74-3.08-2.61 0-2.11 1.57-2.58 3.15-2.86s3.13-.2 3.13-1.37c0-1.35-1.12-1.55-2.07-1.55-1.3 0-2.25.4-2.32 1.76h-1.57c.09-2.3 1.85-3.11 3.94-3.11 1.67 0 3.49.38 3.49 2.56v4.79c0 .72 0 1 .49 1a1.51 1.51 0 0 0 .47-.09V132zm-2.49-4.77c-1.19.88-4.64 0-4.64 2.3 0 1 .86 1.37 1.8 1.37 2 0 2.84-1.24 2.84-2.11v-1.56z" data-name="a" class="cls-3"/>
  </g>
  <g id="uppercase-A-3" data-name="uppercase-A">
    <path id="A-5" d="M68.9 73.23l4.81 12.85h-2.94l-1-2.86H65l-1 2.86h-2.86L66 73.23h2.9zm.16 7.93l-1.64-4.76-1.69 4.76h3.33z" data-name="A" class="cls-4"/>
    <path id="circle-5" d="M67.42 69.16a11 11 0 1 1-11 11 11 11 0 0 1 11-11m0-2a13 13 0 1 0 13 13 13 13 0 0 0-13-13z" data-name="circle" class="cls-4"/>
  </g>
  <g id="lowercase-a-3" data-name="lowercase-a">
    <path id="circle-6" d="M32.58 69.12a11 11 0 1 1-11 11 11 11 0 0 1 11-11m0-2a13 13 0 1 0 13 13 13 13 0 0 0-13-13z" data-name="circle" class="cls-4"/>
    <path id="a-6" d="M37 84.74a2.16 2.16 0 0 1-1.1.25 1.22 1.22 0 0 1-1.28-1.44A4.07 4.07 0 0 1 31.3 85c-1.69 0-3.08-.74-3.08-2.61 0-2.11 1.57-2.58 3.15-2.86s3.13-.2 3.13-1.37c0-1.35-1.12-1.55-2.07-1.55-1.3 0-2.25.4-2.32 1.76h-1.53c.09-2.3 1.85-3.11 3.94-3.11 1.67 0 3.49.38 3.49 2.56v4.78c0 .72 0 1 .49 1a1.51 1.51 0 0 0 .5-.09v1.23zM34.47 80c-1.19.88-4.64 0-4.64 2.3 0 1 .86 1.37 1.8 1.37 2 0 2.84-1.24 2.84-2.11V80z" data-name="a" class="cls-4"/>
  </g>
</svg>
