<?xml version="1.0" encoding="UTF-8"?>
<svg width="258px" height="165px" viewBox="0 0 258 165" version="1.1" xmlns="http://www.w3.org/2000/svg" xmlns:xlink="http://www.w3.org/1999/xlink" style="background: #F5F7FA;">
    <!-- Generator: Sketch 46.2 (44496) - http://www.bohemiancoding.com/sketch -->
    <title>data-vis</title>
    <desc>Created with Sketch.</desc>
    <defs></defs>
    <g id="Page-1" stroke="none" stroke-width="1" fill="none" fill-rule="evenodd">
        <g id="data-vis">
            <rect id="Rectangle" fill="#FFFFFF" x="24.3378906" y="26.1635587" width="209.324219" height="112.672883"></rect>
            <g id="Group" transform="translate(38.000000, 44.000000)">
                <polyline id="Path-2" stroke="#DFE3E6" points="13.6203613 0.302129065 13.6203613 63.5404103 115.941355 63.5404103"></polyline>
                <path d="M128.218018,0.302129065 L128.218018,63.5404103" id="Path-2" stroke="#DFE3E6"></path>
                <rect id="Rectangle-19" fill="#F0F3F6" x="28.024292" y="9.55957535" width="10" height="53.4833984"></rect>
                <rect id="Rectangle-19" fill="#F0F3F6" x="48.6828613" y="29.125" width="10" height="33.9179738"></rect>
                <rect id="Rectangle-19" fill="#F0F3F6" x="69.3414307" y="17.4316406" width="10" height="45.6113332"></rect>
                <rect id="Rectangle-19" fill="#F0F3F6" x="90" y="40.2373072" width="10" height="22.8056666"></rect>
                <rect id="Rectangle" fill-opacity="0.4" fill="#8C9BA5" x="44.815526" y="72.2705078" width="39.9306641" height="4"></rect>
                <rect id="Rectangle" fill-opacity="0.4" fill="#8C9BA5" x="141.069432" y="0.302129065" width="39.9306641" height="4"></rect>
                <rect id="Rectangle" fill-opacity="0.4" fill="#8C9BA5" x="148.014404" y="14.9918213" width="19.9938965" height="4"></rect>
                <rect id="Rectangle" fill="#F0F3F6" x="141.069432" y="14.9918213" width="3.85488413" height="4"></rect>
                <rect id="Rectangle" fill-opacity="0.4" fill="#8C9BA5" x="148.014404" y="24.9918213" width="19.9938965" height="4"></rect>
                <rect id="Rectangle" fill="#F0F3F6" x="141.069432" y="24.9918213" width="3.85488413" height="4"></rect>
                <rect id="Rectangle" fill-opacity="0.4" fill="#8C9BA5" x="148.014404" y="34.9918213" width="19.9938965" height="4"></rect>
                <rect id="Rectangle" fill="#F0F3F6" x="141.069432" y="34.9918213" width="3.85488413" height="4"></rect>
                <rect id="Rectangle" fill-opacity="0.4" fill="#8C9BA5" transform="translate(2.444554, 31.921270) rotate(90.000000) translate(-2.444554, -31.921270) " x="-7.93936965" y="29.9212697" width="20.767848" height="4"></rect>
            </g>
        </g>
    </g>
</svg>