<?xml version="1.0" encoding="UTF-8"?>
<svg width="258px" height="165px" viewBox="0 0 258 165" version="1.1" xmlns="http://www.w3.org/2000/svg" xmlns:xlink="http://www.w3.org/1999/xlink" style="background: #F5F7FA;">
    <!-- Generator: Sketch 45.2 (43514) - http://www.bohemiancoding.com/sketch -->
    <title>Notification</title>
    <desc>Created with Sketch.</desc>
    <defs></defs>
    <g id="Page-1" stroke="none" stroke-width="1" fill="none" fill-rule="evenodd">
        <g id="Notification">
            <g id="Group" transform="translate(26.000000, 62.000000)">
                <g id="Inline-Informational-Notification---one-line" transform="translate(0.500000, 0.500000)">
                    <g id="Notification-outline">
                        <rect id="Rectangle-157-Copy-13" stroke="#5AAAFA" x="-0.5" y="-0.5" width="206" height="41"></rect>
                        <rect id="Rectangle-157-Copy-14" fill="#5AAAFA" x="0" y="0" width="5" height="40"></rect>
                    </g>
                    <g id="close" transform="translate(184.000000, 15.000000)" fill="#5A6872">
                        <polygon id="Shape" points="9.8 8.6 8.4 10 5 6.4 1.4 10 0 8.6 3.6 5 0.1 1.4 1.5 0 5 3.6 8.6 0 10 1.4 6.4 5"></polygon>
                    </g>
                    <rect id="Rectangle-5" fill-opacity="0.1" fill="#152935" x="45.0332031" y="16.5" width="125" height="6"></rect>
                    <g id="info--glyph" transform="translate(21.033203, 12.852491)" fill="#5AAAFA">
                        <path d="M8,0 C3.6,0 0,3.6 0,8 C0,12.4 3.6,16 8,16 C12.4,16 16,12.4 16,8 C16,3.6 12.4,0 8,0 L8,0 Z M8,4 C8.6,4 9,4.4 9,5 C9,5.6 8.6,6 8,6 C7.4,6 7,5.6 7,5 C7,4.4 7.4,4 8,4 L8,4 Z M10,12 L6,12 L6,11 L7,11 L7,8 L6,8 L6,7 L9,7 L9,11 L10,11 L10,12 L10,12 Z" id="Shape"></path>
                    </g>
                </g>
            </g>
        </g>
    </g>
</svg>