<?xml version="1.0" encoding="UTF-8"?>
<svg width="258px" height="165px" viewBox="0 0 258 165" version="1.1" xmlns="http://www.w3.org/2000/svg" xmlns:xlink="http://www.w3.org/1999/xlink" style="background: #F5F7FA;">
    <!-- Generator: Sketch 45.2 (43514) - http://www.bohemiancoding.com/sketch -->
    <title>Breadcrumb</title>
    <desc>Created with Sketch.</desc>
    <defs></defs>
    <g id="Page-1" stroke="none" stroke-width="1" fill="none" fill-rule="evenodd">
        <g id="Breadcrumb" fill="#3D70B2">
            <path d="M31.6954062,79.692 C31.4434062,77.868 29.9554062,76.908 28.1674062,76.908 C25.5274062,76.908 24.1114063,78.924 24.1114063,81.42 C24.1114063,83.916 25.4194063,85.884 28.0714062,85.884 C30.2434062,85.884 31.5514062,84.6 31.7794063,82.452 L30.6394063,82.452 C30.5434063,83.868 29.6554062,84.924 28.1674062,84.924 C26.1154062,84.924 25.2514062,83.292 25.2514062,81.336 C25.2514062,79.548 26.1154062,77.868 28.1554062,77.868 C29.3554063,77.868 30.3034063,78.48 30.5554063,79.692 L31.6954062,79.692 Z M32.7634063,85.68 L33.7834062,85.68 L33.7834062,82.92 C33.7834062,81.336 34.3834063,80.412 36.0274062,80.412 L36.0274062,79.332 C34.9234062,79.296 34.2394063,79.776 33.7474062,80.784 L33.7234062,80.784 L33.7234062,79.476 L32.7634063,79.476 L32.7634063,85.68 Z M41.7754063,79.476 L40.7554063,79.476 L40.7554063,82.98 C40.7554063,84.096 40.1554062,84.924 38.9194063,84.924 C38.1394063,84.924 37.6594063,84.444 37.6594063,83.676 L37.6594063,79.476 L36.6394063,79.476 L36.6394063,83.556 C36.6394063,84.888 37.1434062,85.824 38.7754063,85.824 C39.6754063,85.824 40.3594062,85.464 40.7914063,84.696 L40.8154062,84.696 L40.8154062,85.68 L41.7754063,85.68 L41.7754063,79.476 Z M43.0714062,85.68 L44.0914062,85.68 L44.0914062,81.816 C44.0914062,81.336 44.5474062,80.232 45.7474062,80.232 C46.6594063,80.232 46.9114062,80.808 46.9114062,81.612 L46.9114062,85.68 L47.9314062,85.68 L47.9314062,81.816 C47.9314062,80.856 48.5554062,80.232 49.5514062,80.232 C50.5474062,80.232 50.7514063,80.844 50.7514063,81.612 L50.7514063,85.68 L51.7714062,85.68 L51.7714062,81.132 C51.7714062,79.848 50.9434062,79.332 49.7074062,79.332 C48.9034063,79.332 48.1834062,79.716 47.7634063,80.388 C47.5114062,79.62 46.8274062,79.332 46.0594062,79.332 C45.1834062,79.332 44.5234062,79.68 44.0554062,80.388 L44.0314063,80.388 L44.0314063,79.476 L43.0714062,79.476 L43.0714062,85.68 Z M53.0794063,85.68 L53.0794063,77.112 L54.0994063,77.112 L54.0994063,80.316 L54.1234063,80.316 C54.4594063,79.632 55.2394063,79.332 56.1034063,79.332 C58.0114063,79.332 58.9594063,80.844 58.9594063,82.596 C58.9594063,84.36 58.0234063,85.824 56.1274063,85.824 C55.5034063,85.824 54.5674063,85.584 54.1234063,84.852 L54.0994063,84.852 L54.0994063,85.68 L53.0794063,85.68 Z M57.8794063,82.524 C57.8794063,81.36 57.2794063,80.232 55.9594063,80.232 C54.5794063,80.232 54.0634062,81.42 54.0634062,82.572 C54.0634062,83.784 54.6154063,84.924 56.0194063,84.924 C57.4114063,84.924 57.8794063,83.736 57.8794063,82.524 Z M65.9794063,77.172 L65.1994063,77.172 C64.9714063,78.468 63.9154063,78.768 62.7514063,78.768 L62.7514063,79.584 L64.9594063,79.584 L64.9594063,85.68 L65.9794063,85.68 L65.9794063,77.172 Z M81.0514063,85.884 L81.9274063,85.884 L85.4794063,76.908 L84.6034063,76.908 L81.0514063,85.884 Z M107.583406,79.692 C107.331406,77.868 105.843406,76.908 104.055406,76.908 C101.415406,76.908 99.9994063,78.924 99.9994063,81.42 C99.9994063,83.916 101.307406,85.884 103.959406,85.884 C106.131406,85.884 107.439406,84.6 107.667406,82.452 L106.527406,82.452 C106.431406,83.868 105.543406,84.924 104.055406,84.924 C102.003406,84.924 101.139406,83.292 101.139406,81.336 C101.139406,79.548 102.003406,77.868 104.043406,77.868 C105.243406,77.868 106.191406,78.48 106.443406,79.692 L107.583406,79.692 Z M108.651406,85.68 L109.671406,85.68 L109.671406,82.92 C109.671406,81.336 110.271406,80.412 111.915406,80.412 L111.915406,79.332 C110.811406,79.296 110.127406,79.776 109.635406,80.784 L109.611406,80.784 L109.611406,79.476 L108.651406,79.476 L108.651406,85.68 Z M117.663406,79.476 L116.643406,79.476 L116.643406,82.98 C116.643406,84.096 116.043406,84.924 114.807406,84.924 C114.027406,84.924 113.547406,84.444 113.547406,83.676 L113.547406,79.476 L112.527406,79.476 L112.527406,83.556 C112.527406,84.888 113.031406,85.824 114.663406,85.824 C115.563406,85.824 116.247406,85.464 116.679406,84.696 L116.703406,84.696 L116.703406,85.68 L117.663406,85.68 L117.663406,79.476 Z M118.959406,85.68 L119.979406,85.68 L119.979406,81.816 C119.979406,81.336 120.435406,80.232 121.635406,80.232 C122.547406,80.232 122.799406,80.808 122.799406,81.612 L122.799406,85.68 L123.819406,85.68 L123.819406,81.816 C123.819406,80.856 124.443406,80.232 125.439406,80.232 C126.435406,80.232 126.639406,80.844 126.639406,81.612 L126.639406,85.68 L127.659406,85.68 L127.659406,81.132 C127.659406,79.848 126.831406,79.332 125.595406,79.332 C124.791406,79.332 124.071406,79.716 123.651406,80.388 C123.399406,79.62 122.715406,79.332 121.947406,79.332 C121.071406,79.332 120.411406,79.68 119.943406,80.388 L119.919406,80.388 L119.919406,79.476 L118.959406,79.476 L118.959406,85.68 Z M128.967406,85.68 L128.967406,77.112 L129.987406,77.112 L129.987406,80.316 L130.011406,80.316 C130.347406,79.632 131.127406,79.332 131.991406,79.332 C133.899406,79.332 134.847406,80.844 134.847406,82.596 C134.847406,84.36 133.911406,85.824 132.015406,85.824 C131.391406,85.824 130.455406,85.584 130.011406,84.852 L129.987406,84.852 L129.987406,85.68 L128.967406,85.68 Z M133.767406,82.524 C133.767406,81.36 133.167406,80.232 131.847406,80.232 C130.467406,80.232 129.951406,81.42 129.951406,82.572 C129.951406,83.784 130.503406,84.924 131.907406,84.924 C133.299406,84.924 133.767406,83.736 133.767406,82.524 Z M139.719406,80.184 C139.683406,79.164 140.187406,78.072 141.375406,78.072 C142.275406,78.072 143.019406,78.684 143.019406,79.608 C143.019406,80.796 142.287406,81.3 140.847406,82.2 C139.647406,82.92 138.615406,83.676 138.459406,85.68 L144.015406,85.68 L144.015406,84.78 L139.647406,84.78 C139.839406,83.736 140.979406,83.172 142.035406,82.536 C143.091406,81.864 144.099406,81.12 144.099406,79.62 C144.099406,78.036 142.911406,77.172 141.435406,77.172 C139.635406,77.172 138.603406,78.456 138.699406,80.184 L139.719406,80.184 Z M155.703406,85.884 L156.579406,85.884 L160.131406,76.908 L159.255406,76.908 L155.703406,85.884 Z M182.235406,79.692 C181.983406,77.868 180.495406,76.908 178.707406,76.908 C176.067406,76.908 174.651406,78.924 174.651406,81.42 C174.651406,83.916 175.959406,85.884 178.611406,85.884 C180.783406,85.884 182.091406,84.6 182.319406,82.452 L181.179406,82.452 C181.083406,83.868 180.195406,84.924 178.707406,84.924 C176.655406,84.924 175.791406,83.292 175.791406,81.336 C175.791406,79.548 176.655406,77.868 178.695406,77.868 C179.895406,77.868 180.843406,78.48 181.095406,79.692 L182.235406,79.692 Z M183.303406,85.68 L184.323406,85.68 L184.323406,82.92 C184.323406,81.336 184.923406,80.412 186.567406,80.412 L186.567406,79.332 C185.463406,79.296 184.779406,79.776 184.287406,80.784 L184.263406,80.784 L184.263406,79.476 L183.303406,79.476 L183.303406,85.68 Z M192.315406,79.476 L191.295406,79.476 L191.295406,82.98 C191.295406,84.096 190.695406,84.924 189.459406,84.924 C188.679406,84.924 188.199406,84.444 188.199406,83.676 L188.199406,79.476 L187.179406,79.476 L187.179406,83.556 C187.179406,84.888 187.683406,85.824 189.315406,85.824 C190.215406,85.824 190.899406,85.464 191.331406,84.696 L191.355406,84.696 L191.355406,85.68 L192.315406,85.68 L192.315406,79.476 Z M193.611406,85.68 L194.631406,85.68 L194.631406,81.816 C194.631406,81.336 195.087406,80.232 196.287406,80.232 C197.199406,80.232 197.451406,80.808 197.451406,81.612 L197.451406,85.68 L198.471406,85.68 L198.471406,81.816 C198.471406,80.856 199.095406,80.232 200.091406,80.232 C201.087406,80.232 201.291406,80.844 201.291406,81.612 L201.291406,85.68 L202.311406,85.68 L202.311406,81.132 C202.311406,79.848 201.483406,79.332 200.247406,79.332 C199.443406,79.332 198.723406,79.716 198.303406,80.388 C198.051406,79.62 197.367406,79.332 196.599406,79.332 C195.723406,79.332 195.063406,79.68 194.595406,80.388 L194.571406,80.388 L194.571406,79.476 L193.611406,79.476 L193.611406,85.68 Z M203.619406,85.68 L203.619406,77.112 L204.639406,77.112 L204.639406,80.316 L204.663406,80.316 C204.999406,79.632 205.779406,79.332 206.643406,79.332 C208.551406,79.332 209.499406,80.844 209.499406,82.596 C209.499406,84.36 208.563406,85.824 206.667406,85.824 C206.043406,85.824 205.107406,85.584 204.663406,84.852 L204.639406,84.852 L204.639406,85.68 L203.619406,85.68 Z M208.419406,82.524 C208.419406,81.36 207.819406,80.232 206.499406,80.232 C205.119406,80.232 204.603406,81.42 204.603406,82.572 C204.603406,83.784 205.155406,84.924 206.559406,84.924 C207.951406,84.924 208.419406,83.736 208.419406,82.524 Z M215.499406,81.684 C215.691406,81.66 215.895406,81.648 216.111406,81.648 C217.119406,81.648 217.923406,82.212 217.923406,83.28 C217.923406,84.3 217.071406,84.924 216.075406,84.924 C214.911406,84.924 214.299406,84.156 214.263406,83.052 L213.243406,83.052 C213.207406,84.816 214.347406,85.824 216.075406,85.824 C217.671406,85.824 219.003406,84.924 219.003406,83.232 C219.003406,82.212 218.511406,81.396 217.467406,81.168 L217.467406,81.144 C218.127406,80.844 218.643406,80.208 218.643406,79.452 C218.643406,77.88 217.527406,77.172 216.051406,77.172 C214.347406,77.172 213.483406,78.3 213.423406,79.92 L214.443406,79.92 C214.443406,78.924 214.947406,78.072 216.051406,78.072 C216.915406,78.072 217.563406,78.54 217.563406,79.44 C217.563406,80.352 216.807406,80.832 215.943406,80.832 L215.727406,80.832 C215.655406,80.832 215.583406,80.832 215.499406,80.82 L215.499406,81.684 Z M227.811406,85.884 L228.687406,85.884 L232.239406,76.908 L231.363406,76.908 L227.811406,85.884 Z" id="Crumb-1-/-Crumb-2-/"></path>
        </g>
    </g>
</svg>