<?xml version="1.0" encoding="UTF-8"?>
<svg width="258px" height="165px" viewBox="0 0 258 165" version="1.1" xmlns="http://www.w3.org/2000/svg" xmlns:xlink="http://www.w3.org/1999/xlink" style="background: #F5F7FA;">
    <!-- Generator: Sketch 45.2 (43514) - http://www.bohemiancoding.com/sketch -->
    <title>Button</title>
    <desc>Created with Sketch.</desc>
    <defs></defs>
    <g id="Page-1" stroke="none" stroke-width="1" fill="none" fill-rule="evenodd">
        <g id="Button">
            <g id="Primary-Button---Normal" transform="translate(90.712891, 62.500000)">
                <polygon id="Fill-23-Copy-9" fill="#3D70B2" points="76.4449403 40 0 40 0 0 76.4449403 0"></polygon>
                <path d="M19.024,15.39075 L19.024,17.72875 L21.25,17.72875 C22.034,17.72875 22.594,17.37875 22.594,16.53875 C22.594,15.60075 21.866,15.39075 21.082,15.39075 L19.024,15.39075 Z M16.826,23.67875 L16.826,13.68275 L21.53,13.68275 C23.434,13.68275 24.722,14.29875 24.722,16.16075 C24.722,17.15475 24.246,17.81275 23.364,18.24675 C24.596,18.59675 25.198,19.53475 25.198,20.78075 C25.198,22.81075 23.476,23.67875 21.67,23.67875 L16.826,23.67875 Z M19.024,19.22675 L19.024,21.97075 L21.376,21.97075 C22.23,21.97075 23,21.69075 23,20.65475 C23,19.63275 22.37,19.22675 21.418,19.22675 L19.024,19.22675 Z M33.0333333,16.44075 L31.0453333,16.44075 L31.0453333,20.23475 C31.0453333,21.70475 30.5833333,22.30675 29.5053333,22.30675 C28.5673333,22.30675 28.2313333,21.71875 28.2313333,20.52875 L28.2313333,16.44075 L26.2433333,16.44075 L26.2433333,20.89275 C26.2433333,22.68475 26.7753333,23.87475 28.8893333,23.87475 C29.7293333,23.87475 30.5973333,23.49675 31.1013333,22.67075 L31.1433333,22.67075 L31.1433333,23.67875 L33.0333333,23.67875 L33.0333333,16.44075 Z M36.8646667,14.27075 L34.8766667,14.27075 L34.8766667,16.44075 L33.6726667,16.44075 L33.6726667,17.77075 L34.8766667,17.77075 L34.8766667,22.04075 C34.8766667,23.49675 35.9266667,23.76275 37.1586667,23.76275 C37.5506667,23.76275 37.9846667,23.74875 38.3206667,23.69275 L38.3206667,22.13875 C38.1386667,22.18075 37.9286667,22.19475 37.7046667,22.19475 C37.0326667,22.19475 36.8646667,22.02675 36.8646667,21.35475 L36.8646667,17.77075 L38.3206667,17.77075 L38.3206667,16.44075 L36.8646667,16.44075 L36.8646667,14.27075 Z M42.306,14.27075 L40.318,14.27075 L40.318,16.44075 L39.114,16.44075 L39.114,17.77075 L40.318,17.77075 L40.318,22.04075 C40.318,23.49675 41.368,23.76275 42.6,23.76275 C42.992,23.76275 43.426,23.74875 43.762,23.69275 L43.762,22.13875 C43.58,22.18075 43.37,22.19475 43.146,22.19475 C42.474,22.19475 42.306,22.02675 42.306,21.35475 L42.306,17.77075 L43.762,17.77075 L43.762,16.44075 L42.306,16.44075 L42.306,14.27075 Z M46.1373333,20.06675 C46.1373333,21.22875 46.5433333,22.37675 47.8873333,22.37675 C49.2453333,22.37675 49.6513333,21.22875 49.6513333,20.06675 C49.6513333,18.90475 49.2453333,17.74275 47.8873333,17.74275 C46.5433333,17.74275 46.1373333,18.90475 46.1373333,20.06675 Z M44.1493333,20.06675 C44.1493333,17.75675 45.6193333,16.24475 47.8873333,16.24475 C50.1693333,16.24475 51.6393333,17.75675 51.6393333,20.06675 C51.6393333,22.36275 50.1693333,23.87475 47.8873333,23.87475 C45.6193333,23.87475 44.1493333,22.36275 44.1493333,20.06675 Z M52.6846667,23.67875 L54.6726667,23.67875 L54.6726667,19.88475 C54.6726667,18.41475 55.1346667,17.81275 56.2126667,17.81275 C57.1506667,17.81275 57.4866667,18.40075 57.4866667,19.59075 L57.4866667,23.67875 L59.4746667,23.67875 L59.4746667,19.22675 C59.4746667,17.43475 58.9426667,16.24475 56.8286667,16.24475 C55.9886667,16.24475 55.1206667,16.62275 54.6166667,17.44875 L54.5746667,17.44875 L54.5746667,16.44075 L52.6846667,16.44075 L52.6846667,23.67875 Z" id="Primary-Button" fill="#FFFFFF"></path>
            </g>
        </g>
    </g>
</svg>