<?xml version="1.0" encoding="UTF-8"?>
<svg width="258px" height="165px" viewBox="0 0 258 165" version="1.1" xmlns="http://www.w3.org/2000/svg" xmlns:xlink="http://www.w3.org/1999/xlink" style="background: #F5F7FA;">
    <!-- Generator: Sketch 46 (44423) - http://www.bohemiancoding.com/sketch -->
    <title>File Uploader</title>
    <desc>Created with Sketch.</desc>
    <defs></defs>
    <g id="Page-1" stroke="none" stroke-width="1" fill="none" fill-rule="evenodd">
        <g id="File-Uploader">
            <g id="Group-2" transform="translate(83.000000, 34.000000)">
                <rect id="Rectangle" fill="#DFE3E6" x="0.78515625" y="0.951171875" width="70" height="8"></rect>
                <rect id="Rectangle" fill="#DFE3E6" x="0.78515625" y="66.0488281" width="103.564453" height="12"></rect>
                <rect id="Rectangle" fill="#DFE3E6" x="0.78515625" y="84.0488281" width="103.564453" height="12"></rect>
                <rect id="Rectangle" fill="#DFE3E6" x="0.78515625" y="17.0488281" width="90.6191406" height="6"></rect>
                <rect id="Rectangle" fill-opacity="0.4" fill="#8C9BA5" x="5.47558594" y="70.0488281" width="45.3095703" height="4"></rect>
                <rect id="Rectangle" fill-opacity="0.4" fill="#8C9BA5" x="5.47558594" y="88.0488281" width="36.8662109" height="4"></rect>
                <g id="Group" transform="translate(0.785156, 33.048828)" fill="#3D70B2">
                    <path d="M49,1 L1,1 L1,21.4719101 L49,21.4719101 L49,1 Z M50,22.4719101 L0,22.4719101 L0,0 L50,0 L50,22.4719101 Z" id="Fill-23-Copy-9" fill-rule="nonzero"></path>
                    <g id="Secondary-button" transform="translate(8.426966, 7.303371)">
                        <path d="M3.25955056,1.79325843 L2.52808989,3.85393258 L3.98314607,3.85393258 L3.2752809,1.79325843 L3.25955056,1.79325843 Z M0.514606742,6.0247191 L2.64606742,0.408988764 L3.91235955,0.408988764 L6.01235955,6.0247191 L4.73033708,6.0247191 L4.30561798,4.7741573 L2.20561798,4.7741573 L1.76516854,6.0247191 L0.514606742,6.0247191 Z M9.14794007,3.97977528 C9.14794007,3.31910112 8.91198502,2.68988764 8.18838951,2.68988764 C7.45692884,2.68988764 7.20524345,3.32696629 7.20524345,3.98764045 C7.20524345,4.6247191 7.49625468,5.29325843 8.18838951,5.29325843 C8.91985019,5.29325843 9.14794007,4.64831461 9.14794007,3.97977528 Z M9.16367041,6.0247191 L9.16367041,5.50561798 L9.14794007,5.50561798 C8.88838951,5.94606742 8.44007491,6.13483146 7.91310861,6.13483146 C6.68614232,6.13483146 6.08838951,5.08876404 6.08838951,3.95617978 C6.08838951,2.86292135 6.69400749,1.84831461 7.88951311,1.84831461 C8.36928839,1.84831461 8.8411985,2.05280899 9.0928839,2.45393258 L9.10861423,2.45393258 L9.10861423,0.408988764 L10.2254682,0.408988764 L10.2254682,6.0247191 L9.16367041,6.0247191 Z M13.840824,3.97977528 C13.840824,3.31910112 13.6048689,2.68988764 12.8812734,2.68988764 C12.1498127,2.68988764 11.8981273,3.32696629 11.8981273,3.98764045 C11.8981273,4.6247191 12.1891386,5.29325843 12.8812734,5.29325843 C13.6127341,5.29325843 13.840824,4.64831461 13.840824,3.97977528 Z M13.8565543,6.0247191 L13.8565543,5.50561798 L13.840824,5.50561798 C13.5812734,5.94606742 13.1329588,6.13483146 12.6059925,6.13483146 C11.3790262,6.13483146 10.7812734,5.08876404 10.7812734,3.95617978 C10.7812734,2.86292135 11.3868914,1.84831461 12.582397,1.84831461 C13.0621723,1.84831461 13.5340824,2.05280899 13.7857678,2.45393258 L13.8014981,2.45393258 L13.8014981,0.408988764 L14.9183521,0.408988764 L14.9183521,6.0247191 L13.8565543,6.0247191 Z M17.77603,6.0247191 L18.8928839,6.0247191 L18.8928839,2.70561798 L19.6636704,2.70561798 L19.6636704,1.95842697 L18.8928839,1.95842697 L18.8928839,1.71460674 C18.8928839,1.37640449 19.0108614,1.2505618 19.317603,1.2505618 C19.4513109,1.2505618 19.5928839,1.25842697 19.7265918,1.2741573 L19.7265918,0.440449438 C19.5378277,0.43258427 19.3333333,0.408988764 19.1367041,0.408988764 C18.2243446,0.408988764 17.77603,0.920224719 17.77603,1.64382022 L17.77603,1.95842697 L17.1074906,1.95842697 L17.1074906,2.70561798 L17.77603,2.70561798 L17.77603,6.0247191 Z M20.3400749,6.0247191 L21.4569288,6.0247191 L21.4569288,1.95842697 L20.3400749,1.95842697 L20.3400749,6.0247191 Z M21.4569288,0.408988764 L20.3400749,0.408988764 L20.3400749,1.32921348 L21.4569288,1.32921348 L21.4569288,0.408988764 Z M22.2565543,6.0247191 L23.3734082,6.0247191 L23.3734082,0.408988764 L22.2565543,0.408988764 L22.2565543,6.0247191 Z M25.0853933,3.55505618 L26.9022472,3.55505618 C26.8,2.98876404 26.5561798,2.68988764 26.0134831,2.68988764 C25.2898876,2.68988764 25.1089888,3.24044944 25.0853933,3.55505618 Z M28.0191011,4.26292135 L25.0853933,4.26292135 C25.1168539,4.97865169 25.4550562,5.29325843 26.0842697,5.29325843 C26.5325843,5.29325843 26.894382,5.01797753 26.9651685,4.76629213 L27.9483146,4.76629213 C27.6337079,5.73370787 26.9651685,6.13483146 26.0449438,6.13483146 C24.7629213,6.13483146 23.9685393,5.25393258 23.9685393,3.99550562 C23.9685393,2.77640449 24.8101124,1.84831461 26.0449438,1.84831461 C27.4292135,1.84831461 28.105618,3.01235955 28.0191011,4.26292135 Z M28.417603,4.70337079 C28.4569288,5.78089888 29.3850187,6.13483146 30.328839,6.13483146 C31.2490637,6.13483146 32.1850187,5.78876404 32.1850187,4.71910112 C32.1850187,3.96404494 31.5479401,3.72808989 30.8951311,3.57865169 C30.2659176,3.42921348 29.628839,3.3741573 29.628839,2.97303371 C29.628839,2.63483146 29.9985019,2.59550562 30.2501873,2.59550562 C30.6513109,2.59550562 30.9816479,2.71348315 31.0131086,3.14606742 L32.0749064,3.14606742 C31.9883895,2.14719101 31.1625468,1.84831461 30.2816479,1.84831461 C29.4086142,1.84831461 28.511985,2.11573034 28.511985,3.15393258 C28.511985,3.87752809 29.1490637,4.08988764 29.8018727,4.23932584 C30.5962547,4.40449438 31.0681648,4.53033708 31.0681648,4.86853933 C31.0681648,5.26179775 30.6513109,5.38764045 30.3367041,5.38764045 C29.9041199,5.38764045 29.4794007,5.18314607 29.4794007,4.70337079 L28.417603,4.70337079 Z" id="Add-files"></path>
                    </g>
                </g>
                <path d="M96.3496094,69.0488281 C94.6996094,69.0488281 93.3496094,70.3988281 93.3496094,72.0488281 C93.3496094,73.6988281 94.6996094,75.0488281 96.3496094,75.0488281 C97.9996094,75.0488281 99.3496094,73.6988281 99.3496094,72.0488281 C99.3496094,70.3988281 97.9996094,69.0488281 96.3496094,69.0488281 L96.3496094,69.0488281 Z M97.6621094,72.8363281 L97.1371094,73.3613281 L96.3496094,72.5738281 L95.5621094,73.3613281 L95.0371094,72.8363281 L95.8246094,72.0488281 L95.0371094,71.2613281 L95.5621094,70.7363281 L96.3496094,71.5238281 L97.1371094,70.7363281 L97.6621094,71.2613281 L96.8746094,72.0488281 L97.6621094,72.8363281 L97.6621094,72.8363281 Z" id="Shape" fill="#152934"></path>
                <path d="M96.3496094,87.0488281 C94.6996094,87.0488281 93.3496094,88.3988281 93.3496094,90.0488281 C93.3496094,91.6988281 94.6996094,93.0488281 96.3496094,93.0488281 C97.9996094,93.0488281 99.3496094,91.6988281 99.3496094,90.0488281 C99.3496094,88.3988281 97.9996094,87.0488281 96.3496094,87.0488281 L96.3496094,87.0488281 Z M97.6621094,90.8363281 L97.1371094,91.3613281 L96.3496094,90.5738281 L95.5621094,91.3613281 L95.0371094,90.8363281 L95.8246094,90.0488281 L95.0371094,89.2613281 L95.5621094,88.7363281 L96.3496094,89.5238281 L97.1371094,88.7363281 L97.6621094,89.2613281 L96.8746094,90.0488281 L97.6621094,90.8363281 L97.6621094,90.8363281 Z" id="Shape" fill="#152934"></path>
            </g>
        </g>
    </g>
</svg>