<?xml version="1.0" encoding="UTF-8"?>
<svg width="258px" height="165px" viewBox="0 0 258 165" version="1.1" xmlns="http://www.w3.org/2000/svg" xmlns:xlink="http://www.w3.org/1999/xlink" style="background: #F5F7FA;">
    <!-- Generator: Sketch 45.2 (43514) - http://www.bohemiancoding.com/sketch -->
    <title>Link</title>
    <desc>Created with Sketch.</desc>
    <defs></defs>
    <g id="Page-1" stroke="none" stroke-width="1" fill="none" fill-rule="evenodd">
        <g id="Link" fill="#3D70B2">
            <path d="M115.826,85.2678683 L122.896,85.2678683 L122.896,83.4198683 L118.024,83.4198683 L118.024,75.2718683 L115.826,75.2718683 L115.826,85.2678683 Z M126.13,75.2718683 L124.142,75.2718683 L124.142,76.9098683 L126.13,76.9098683 L126.13,75.2718683 Z M124.142,85.2678683 L126.13,85.2678683 L126.13,78.0298683 L124.142,78.0298683 L124.142,85.2678683 Z M127.474,85.2678683 L129.462,85.2678683 L129.462,81.4738683 C129.462,80.0038683 129.924,79.4018683 131.002,79.4018683 C131.94,79.4018683 132.276,79.9898683 132.276,81.1798683 L132.276,85.2678683 L134.264,85.2678683 L134.264,80.8158683 C134.264,79.0238683 133.732,77.8338683 131.618,77.8338683 C130.778,77.8338683 129.91,78.2118683 129.406,79.0378683 L129.364,79.0378683 L129.364,78.0298683 L127.474,78.0298683 L127.474,85.2678683 Z M135.608,85.2678683 L137.596,85.2678683 L137.596,82.7758683 L138.366,82.0338683 L140.354,85.2678683 L142.762,85.2678683 L139.724,80.6898683 L142.454,78.0298683 L140.102,78.0298683 L137.596,80.6338683 L137.596,75.2718683 L135.608,75.2718683 L135.608,85.2678683 Z"></path>
        </g>
    </g>
</svg>