<?xml version="1.0" encoding="UTF-8"?>
<svg width="258px" height="165px" viewBox="0 0 258 165" version="1.1" xmlns="http://www.w3.org/2000/svg" xmlns:xlink="http://www.w3.org/1999/xlink" style="background: #F5F7FA;">
    <!-- Generator: Sketch 45.2 (43514) - http://www.bohemiancoding.com/sketch -->
    <title>Tabs</title>
    <desc>Created with Sketch.</desc>
    <defs></defs>
    <g id="Page-1" stroke="none" stroke-width="1" fill="none" fill-rule="evenodd">
        <g id="Tabs">
            <path d="M111.275008,77.5 L111.275008,69.352 L108.279008,69.352 L108.279008,67.504 L116.469008,67.504 L116.469008,69.352 L113.473008,69.352 L113.473008,77.5 L111.275008,77.5 Z M117.775008,72.488 L115.787008,72.488 C115.899008,70.64 117.565008,70.066 119.189008,70.066 C120.631008,70.066 122.367008,70.388 122.367008,72.124 L122.367008,75.89 C122.367008,76.548 122.437008,77.206 122.619008,77.5 L120.603008,77.5 C120.533008,77.276 120.477008,77.038 120.463008,76.8 C119.833008,77.458 118.923008,77.696 118.027008,77.696 C116.641008,77.696 115.563008,77.01 115.563008,75.526 C115.591008,72.236 120.463008,74 120.379008,72.376 C120.379008,71.536 119.791008,71.396 119.091008,71.396 C118.321008,71.396 117.845008,71.704 117.775008,72.488 Z M120.379008,74.7 L120.379008,73.958 C120.043008,74.252 119.343008,74.266 118.727008,74.378 C118.111008,74.49 117.551008,74.714 117.551008,75.442 C117.551008,76.17 118.125008,76.366 118.769008,76.366 C120.323008,76.366 120.379008,75.148 120.379008,74.7 Z M129.357008,73.888 C129.357008,72.656 128.839008,71.564 127.663008,71.564 C126.487008,71.564 125.969008,72.656 125.969008,73.888 C125.969008,75.092 126.487008,76.198 127.663008,76.198 C128.839008,76.198 129.357008,75.092 129.357008,73.888 Z M124.051008,77.5 L124.051008,67.504 L126.039008,67.504 L126.039008,71.144 L126.067008,71.144 C126.557008,70.402 127.453008,70.066 128.349008,70.066 C129.791008,70.066 131.345008,71.228 131.345008,73.874 C131.345008,76.52 129.791008,77.696 128.349008,77.696 C127.285008,77.696 126.403008,77.374 125.969008,76.576 L125.941008,76.576 L125.941008,77.5 L124.051008,77.5 Z M137.947008,71.466 C137.947008,70.43 138.325008,69.212 139.501008,69.212 C140.355008,69.212 140.971008,69.786 140.971008,70.724 C140.971008,71.928 139.767008,72.516 138.913008,73.118 C137.219008,74.28 135.819008,75.218 135.819008,77.5 L143.015008,77.5 L143.015008,75.792 L138.381008,75.792 C139.809008,73.776 142.959008,73.538 142.959008,70.57 C142.959008,68.652 141.391008,67.504 139.599008,67.504 C137.247008,67.504 135.973008,69.226 136.043008,71.466 L137.947008,71.466 Z" id="Tab-2" fill="#3D70B2"></path>
            <path d="M52.1089922,77.5 L52.1089922,69.352 L49.1129922,69.352 L49.1129922,67.504 L57.3029922,67.504 L57.3029922,69.352 L54.3069922,69.352 L54.3069922,77.5 L52.1089922,77.5 Z M58.6089922,72.488 L56.6209922,72.488 C56.7329922,70.64 58.3989922,70.066 60.0229922,70.066 C61.4649922,70.066 63.2009922,70.388 63.2009922,72.124 L63.2009922,75.89 C63.2009922,76.548 63.2709922,77.206 63.4529922,77.5 L61.4369922,77.5 C61.3669922,77.276 61.3109922,77.038 61.2969922,76.8 C60.6669922,77.458 59.7569922,77.696 58.8609922,77.696 C57.4749922,77.696 56.3969922,77.01 56.3969922,75.526 C56.4249922,72.236 61.2969922,74 61.2129922,72.376 C61.2129922,71.536 60.6249922,71.396 59.9249922,71.396 C59.1549922,71.396 58.6789922,71.704 58.6089922,72.488 Z M61.2129922,74.7 L61.2129922,73.958 C60.8769922,74.252 60.1769922,74.266 59.5609922,74.378 C58.9449922,74.49 58.3849922,74.714 58.3849922,75.442 C58.3849922,76.17 58.9589922,76.366 59.6029922,76.366 C61.1569922,76.366 61.2129922,75.148 61.2129922,74.7 Z M70.1909922,73.888 C70.1909922,72.656 69.6729922,71.564 68.4969922,71.564 C67.3209922,71.564 66.8029922,72.656 66.8029922,73.888 C66.8029922,75.092 67.3209922,76.198 68.4969922,76.198 C69.6729922,76.198 70.1909922,75.092 70.1909922,73.888 Z M64.8849922,77.5 L64.8849922,67.504 L66.8729922,67.504 L66.8729922,71.144 L66.9009922,71.144 C67.3909922,70.402 68.2869922,70.066 69.1829922,70.066 C70.6249922,70.066 72.1789922,71.228 72.1789922,73.874 C72.1789922,76.52 70.6249922,77.696 69.1829922,77.696 C68.1189922,77.696 67.2369922,77.374 66.8029922,76.576 L66.7749922,76.576 L66.7749922,77.5 L64.8849922,77.5 Z M81.3149922,67.7 L79.7329922,67.7 C79.5089922,69.198 78.2489922,69.688 76.8629922,69.646 L76.8629922,71.144 L79.3269922,71.144 L79.3269922,77.5 L81.3149922,77.5 L81.3149922,67.7 Z" id="Tab-1" fill="#152935"></path>
            <path d="M174.275008,77.5 L174.275008,69.352 L171.279008,69.352 L171.279008,67.504 L179.469008,67.504 L179.469008,69.352 L176.473008,69.352 L176.473008,77.5 L174.275008,77.5 Z M180.775008,72.488 L178.787008,72.488 C178.899008,70.64 180.565008,70.066 182.189008,70.066 C183.631008,70.066 185.367008,70.388 185.367008,72.124 L185.367008,75.89 C185.367008,76.548 185.437008,77.206 185.619008,77.5 L183.603008,77.5 C183.533008,77.276 183.477008,77.038 183.463008,76.8 C182.833008,77.458 181.923008,77.696 181.027008,77.696 C179.641008,77.696 178.563008,77.01 178.563008,75.526 C178.591008,72.236 183.463008,74 183.379008,72.376 C183.379008,71.536 182.791008,71.396 182.091008,71.396 C181.321008,71.396 180.845008,71.704 180.775008,72.488 Z M183.379008,74.7 L183.379008,73.958 C183.043008,74.252 182.343008,74.266 181.727008,74.378 C181.111008,74.49 180.551008,74.714 180.551008,75.442 C180.551008,76.17 181.125008,76.366 181.769008,76.366 C183.323008,76.366 183.379008,75.148 183.379008,74.7 Z M192.357008,73.888 C192.357008,72.656 191.839008,71.564 190.663008,71.564 C189.487008,71.564 188.969008,72.656 188.969008,73.888 C188.969008,75.092 189.487008,76.198 190.663008,76.198 C191.839008,76.198 192.357008,75.092 192.357008,73.888 Z M187.051008,77.5 L187.051008,67.504 L189.039008,67.504 L189.039008,71.144 L189.067008,71.144 C189.557008,70.402 190.453008,70.066 191.349008,70.066 C192.791008,70.066 194.345008,71.228 194.345008,73.874 C194.345008,76.52 192.791008,77.696 191.349008,77.696 C190.285008,77.696 189.403008,77.374 188.969008,76.576 L188.941008,76.576 L188.941008,77.5 L187.051008,77.5 Z M201.913008,73.062 C202.879008,73.062 204.181008,73.034 204.181008,74.518 C204.181008,75.456 203.481008,76.058 202.585008,76.058 C201.437008,76.058 200.905008,75.19 200.863008,74.126 L198.973008,74.126 C198.931008,76.38 200.415008,77.696 202.613008,77.696 C204.517008,77.696 206.253008,76.534 206.253008,74.476 C206.253008,73.37 205.595008,72.488 204.517008,72.25 L204.517008,72.222 C205.427008,71.956 205.889008,71.158 205.889008,70.22 C205.889008,68.47 204.167008,67.504 202.599008,67.504 C200.569008,67.504 199.281008,68.876 199.211008,70.892 L201.101008,70.892 C201.087008,69.884 201.605008,69.142 202.613008,69.142 C203.341008,69.142 203.999008,69.604 203.999008,70.444 C203.999008,71.564 202.767008,71.732 201.913008,71.662 L201.913008,73.062 Z" id="Tab-3" fill="#152935"></path>
            <polygon id="Selected" fill="#3D70B2" points="108.083008 95.5 146.083008 95.5 146.083008 97.5 108.083008 97.5"></polygon>
        </g>
    </g>
</svg>